<svg width="81" height="80" viewBox="0 0 81 80" fill="none" xmlns="http://www.w3.org/2000/svg">
<path d="M76.9658 42.7811C68.3911 60.2883 61.6473 56.6809 45.2287 73.5257C30.033 89.1158 2.37753 53.4664 1.3129 45.2449C-0.364613 32.2902 15.715 1.58815 40.5825 2.14818C56.2463 2.50096 85.5405 25.274 76.9658 42.7811Z" fill="#7F56C1"/>
<path fill-rule="evenodd" clip-rule="evenodd" d="M73.666 7V13.3871H71.537V62.3548H73.666V67.6774V68.7419V73H65.1499V71.9355C65.1499 70.1748 63.717 68.7419 61.9563 68.7419H19.3757C17.615 68.7419 16.1821 70.1748 16.1821 71.9355V73H7.66602V68.7419V67.6774V62.3548H9.79505V13.3871H7.66602V7H73.666ZM71.537 9.12903H9.79505V11.2581H71.537V9.12903ZM9.79505 70.871H14.1606C14.3214 70.08 14.6727 69.3636 15.1432 68.7419H9.79505V70.871ZM9.79505 64.4839V66.6129H71.537V64.4839H9.79505ZM67.1714 70.871H71.537V68.7419H66.1889C66.6594 69.3636 67.0107 70.08 67.1714 70.871ZM11.9241 62.3548H69.408V13.3871H11.9241V62.3548Z" fill="#FFFAF1"/>
<path d="M40.6667 43.4997C42.5997 43.4997 44.1667 41.9327 44.1667 39.9997C44.1667 38.0667 42.5997 36.4997 40.6667 36.4997C38.7337 36.4997 37.1667 38.0667 37.1667 39.9997C37.1667 41.9327 38.7337 43.4997 40.6667 43.4997Z" stroke="#FFFAF1" stroke-width="2" stroke-linecap="round" stroke-linejoin="round"/>
<path d="M48.5152 43.1815C48.374 43.5014 48.3319 43.8562 48.3942 44.2003C48.4566 44.5444 48.6206 44.8618 48.8652 45.1118L48.9288 45.1754C49.126 45.3724 49.2825 45.6064 49.3892 45.8639C49.496 46.1214 49.5509 46.3974 49.5509 46.6762C49.5509 46.955 49.496 47.231 49.3892 47.4885C49.2825 47.746 49.126 47.9799 48.9288 48.1769C48.7318 48.3742 48.4978 48.5306 48.2403 48.6374C47.9828 48.7441 47.7068 48.7991 47.428 48.7991C47.1493 48.7991 46.8732 48.7441 46.6157 48.6374C46.3582 48.5306 46.1243 48.3742 45.9273 48.1769L45.8636 48.1133C45.6137 47.8688 45.2962 47.7048 44.9521 47.6424C44.6081 47.58 44.2532 47.6221 43.9333 47.7633C43.6196 47.8978 43.3521 48.121 43.1637 48.4055C42.9752 48.6901 42.8741 49.0235 42.8727 49.3648V49.5451C42.8727 50.1077 42.6492 50.6472 42.2514 51.0451C41.8536 51.4429 41.3141 51.6663 40.7515 51.6663C40.1889 51.6663 39.6494 51.4429 39.2516 51.0451C38.8538 50.6472 38.6303 50.1077 38.6303 49.5451V49.4497C38.6221 49.0986 38.5085 48.7582 38.3042 48.4725C38.0999 48.1869 37.8144 47.9694 37.4848 47.8482C37.165 47.707 36.8101 47.6649 36.466 47.7272C36.122 47.7896 35.8045 47.9537 35.5545 48.1982L35.4909 48.2618C35.2939 48.459 35.06 48.6155 34.8024 48.7222C34.5449 48.829 34.2689 48.8839 33.9902 48.8839C33.7114 48.8839 33.4354 48.829 33.1779 48.7222C32.9203 48.6155 32.6864 48.459 32.4894 48.2618C32.2922 48.0648 32.1357 47.8308 32.029 47.5733C31.9222 47.3158 31.8673 47.0398 31.8673 46.761C31.8673 46.4823 31.9222 46.2063 32.029 45.9487C32.1357 45.6912 32.2922 45.4573 32.4894 45.2603L32.553 45.1966C32.7975 44.9467 32.9616 44.6292 33.0239 44.2851C33.0863 43.9411 33.0442 43.5862 32.903 43.2663C32.7686 42.9526 32.5453 42.6851 32.2608 42.4967C31.9762 42.3082 31.6428 42.2071 31.3015 42.2057H31.1212C30.5586 42.2057 30.0191 41.9823 29.6213 41.5844C29.2235 41.1866 29 40.6471 29 40.0845C29 39.5219 29.2235 38.9824 29.6213 38.5846C30.0191 38.1868 30.5586 37.9633 31.1212 37.9633H31.2167C31.5677 37.9551 31.9082 37.8415 32.1938 37.6372C32.4794 37.4329 32.697 37.1474 32.8182 36.8179C32.9594 36.498 33.0015 36.1431 32.9391 35.7991C32.8767 35.455 32.7127 35.1375 32.4682 34.8876L32.4045 34.8239C32.2073 34.6269 32.0509 34.393 31.9441 34.1355C31.8374 33.8779 31.7824 33.6019 31.7824 33.3232C31.7824 33.0444 31.8374 32.7684 31.9441 32.5109C32.0509 32.2534 32.2073 32.0194 32.4045 31.8224C32.6015 31.6252 32.8355 31.4687 33.093 31.362C33.3505 31.2552 33.6265 31.2003 33.9053 31.2003C34.1841 31.2003 34.4601 31.2552 34.7176 31.362C34.9751 31.4687 35.2091 31.6252 35.4061 31.8224L35.4697 31.886C35.7197 32.1305 36.0371 32.2946 36.3812 32.357C36.7252 32.4193 37.0801 32.3772 37.4 32.236H37.4848C37.7985 32.1016 38.0661 31.8784 38.2545 31.5938C38.443 31.3093 38.5441 30.9758 38.5455 30.6345V30.4542C38.5455 29.8916 38.7689 29.3521 39.1667 28.9543C39.5645 28.5565 40.1041 28.333 40.6667 28.333C41.2292 28.333 41.7688 28.5565 42.1666 28.9543C42.5644 29.3521 42.7879 29.8916 42.7879 30.4542V30.5497C42.7892 30.891 42.8904 31.2244 43.0788 31.509C43.2673 31.7935 43.5348 32.0167 43.8485 32.1512C44.1684 32.2924 44.5232 32.3345 44.8673 32.2721C45.2113 32.2097 45.5288 32.0457 45.7788 31.8012L45.8424 31.7376C46.0394 31.5403 46.2734 31.3839 46.5309 31.2771C46.7884 31.1704 47.0644 31.1154 47.3432 31.1154C47.6219 31.1154 47.898 31.1704 48.1555 31.2771C48.413 31.3839 48.6469 31.5403 48.8439 31.7376C49.0412 31.9346 49.1976 32.1685 49.3044 32.426C49.4111 32.6835 49.4661 32.9596 49.4661 33.2383C49.4661 33.5171 49.4111 33.7931 49.3044 34.0506C49.1976 34.3081 49.0412 34.5421 48.8439 34.7391L48.7803 34.8027C48.5358 35.0527 48.3718 35.3701 48.3094 35.7142C48.247 36.0583 48.2891 36.4131 48.4303 36.733V36.8179C48.5647 37.1316 48.788 37.3991 49.0725 37.5875C49.3571 37.776 49.6905 37.8771 50.0318 37.8785H50.2121C50.7747 37.8785 51.3142 38.1019 51.712 38.4998C52.1099 38.8976 52.3333 39.4371 52.3333 39.9997C52.3333 40.5623 52.1099 41.1018 51.712 41.4996C51.3142 41.8974 50.7747 42.1209 50.2121 42.1209H50.1167C49.7754 42.1222 49.4419 42.2234 49.1574 42.4118C48.8728 42.6003 48.6496 42.8678 48.5152 43.1815Z" stroke="#FFFAF1" stroke-width="2" stroke-linecap="round" stroke-linejoin="round"/>
</svg>
