<svg width="81" height="80" viewBox="0 0 81 80" fill="none" xmlns="http://www.w3.org/2000/svg">
<path d="M76.9658 42.7811C68.3911 60.2883 61.6473 56.6809 45.2287 73.5257C30.033 89.1158 2.37753 53.4664 1.3129 45.2449C-0.364613 32.2902 15.715 1.58815 40.5825 2.14818C56.2463 2.50096 85.5405 25.274 76.9658 42.7811Z" fill="#DECAFF"/>
<path fill-rule="evenodd" clip-rule="evenodd" d="M73.666 7V13.3871H71.537V62.3548H73.666V67.6774V68.7419V73H65.1499V71.9355C65.1499 70.1748 63.717 68.7419 61.9563 68.7419H19.3757C17.615 68.7419 16.1821 70.1748 16.1821 71.9355V73H7.66602V68.7419V67.6774V62.3548H9.79505V13.3871H7.66602V7H73.666ZM71.537 9.12903H9.79505V11.2581H71.537V9.12903ZM9.79505 70.871H14.1606C14.3214 70.08 14.6727 69.3636 15.1432 68.7419H9.79505V70.871ZM9.79505 64.4839V66.6129H71.537V64.4839H9.79505ZM67.1714 70.871H71.537V68.7419H66.1889C66.6594 69.3636 67.0107 70.08 67.1714 70.871ZM11.9241 62.3548H69.408V13.3871H11.9241V62.3548Z" fill="#424242"/>
<path d="M40.6667 43.5C42.5997 43.5 44.1667 41.933 44.1667 40C44.1667 38.067 42.5997 36.5 40.6667 36.5C38.7337 36.5 37.1667 38.067 37.1667 40C37.1667 41.933 38.7337 43.5 40.6667 43.5Z" stroke="#424242" stroke-width="2" stroke-linecap="round" stroke-linejoin="round"/>
<path d="M48.5152 43.1818C48.374 43.5017 48.3319 43.8565 48.3942 44.2006C48.4566 44.5447 48.6206 44.8621 48.8652 45.1121L48.9288 45.1757C49.126 45.3727 49.2825 45.6067 49.3892 45.8642C49.496 46.1217 49.5509 46.3977 49.5509 46.6765C49.5509 46.9553 49.496 47.2313 49.3892 47.4888C49.2825 47.7463 49.126 47.9802 48.9288 48.1773C48.7318 48.3745 48.4978 48.5309 48.2403 48.6377C47.9828 48.7444 47.7068 48.7994 47.428 48.7994C47.1493 48.7994 46.8732 48.7444 46.6157 48.6377C46.3582 48.5309 46.1243 48.3745 45.9273 48.1773L45.8636 48.1136C45.6137 47.8691 45.2962 47.7051 44.9521 47.6427C44.6081 47.5803 44.2532 47.6224 43.9333 47.7636C43.6196 47.8981 43.3521 48.1213 43.1637 48.4059C42.9752 48.6904 42.8741 49.0238 42.8727 49.3651V49.5454C42.8727 50.108 42.6492 50.6476 42.2514 51.0454C41.8536 51.4432 41.3141 51.6666 40.7515 51.6666C40.1889 51.6666 39.6494 51.4432 39.2516 51.0454C38.8538 50.6476 38.6303 50.108 38.6303 49.5454V49.45C38.6221 49.0989 38.5085 48.7585 38.3042 48.4728C38.0999 48.1872 37.8144 47.9697 37.4848 47.8485C37.165 47.7073 36.8101 47.6652 36.466 47.7276C36.122 47.7899 35.8045 47.954 35.5545 48.1985L35.4909 48.2621C35.2939 48.4593 35.06 48.6158 34.8024 48.7225C34.5449 48.8293 34.2689 48.8842 33.9902 48.8842C33.7114 48.8842 33.4354 48.8293 33.1779 48.7225C32.9203 48.6158 32.6864 48.4593 32.4894 48.2621C32.2922 48.0651 32.1357 47.8312 32.029 47.5736C31.9222 47.3161 31.8673 47.0401 31.8673 46.7613C31.8673 46.4826 31.9222 46.2066 32.029 45.949C32.1357 45.6915 32.2922 45.4576 32.4894 45.2606L32.553 45.197C32.7975 44.947 32.9616 44.6295 33.0239 44.2855C33.0863 43.9414 33.0442 43.5865 32.903 43.2666C32.7686 42.953 32.5453 42.6854 32.2608 42.497C31.9762 42.3085 31.6428 42.2074 31.3015 42.206H31.1212C30.5586 42.206 30.0191 41.9826 29.6213 41.5848C29.2235 41.1869 29 40.6474 29 40.0848C29 39.5222 29.2235 38.9827 29.6213 38.5849C30.0191 38.1871 30.5586 37.9636 31.1212 37.9636H31.2167C31.5677 37.9554 31.9082 37.8418 32.1938 37.6375C32.4794 37.4332 32.697 37.1477 32.8182 36.8182C32.9594 36.4983 33.0015 36.1434 32.9391 35.7994C32.8767 35.4553 32.7127 35.1378 32.4682 34.8879L32.4045 34.8242C32.2073 34.6272 32.0509 34.3933 31.9441 34.1358C31.8374 33.8783 31.7824 33.6022 31.7824 33.3235C31.7824 33.0447 31.8374 32.7687 31.9441 32.5112C32.0509 32.2537 32.2073 32.0197 32.4045 31.8227C32.6015 31.6255 32.8355 31.469 33.093 31.3623C33.3505 31.2555 33.6265 31.2006 33.9053 31.2006C34.1841 31.2006 34.4601 31.2555 34.7176 31.3623C34.9751 31.469 35.2091 31.6255 35.4061 31.8227L35.4697 31.8863C35.7197 32.1309 36.0371 32.2949 36.3812 32.3573C36.7252 32.4196 37.0801 32.3775 37.4 32.2363H37.4848C37.7985 32.1019 38.0661 31.8787 38.2545 31.5941C38.443 31.3096 38.5441 30.9761 38.5455 30.6348V30.4545C38.5455 29.8919 38.7689 29.3524 39.1667 28.9546C39.5645 28.5568 40.1041 28.3333 40.6667 28.3333C41.2292 28.3333 41.7688 28.5568 42.1666 28.9546C42.5644 29.3524 42.7879 29.8919 42.7879 30.4545V30.55C42.7892 30.8913 42.8904 31.2247 43.0788 31.5093C43.2673 31.7938 43.5348 32.017 43.8485 32.1515C44.1684 32.2927 44.5232 32.3348 44.8673 32.2724C45.2113 32.21 45.5288 32.046 45.7788 31.8015L45.8424 31.7379C46.0394 31.5406 46.2734 31.3842 46.5309 31.2774C46.7884 31.1707 47.0644 31.1157 47.3432 31.1157C47.6219 31.1157 47.898 31.1707 48.1555 31.2774C48.413 31.3842 48.6469 31.5406 48.8439 31.7379C49.0412 31.9349 49.1976 32.1688 49.3044 32.4263C49.4111 32.6838 49.4661 32.9599 49.4661 33.2386C49.4661 33.5174 49.4111 33.7934 49.3044 34.0509C49.1976 34.3084 49.0412 34.5424 48.8439 34.7394L48.7803 34.803C48.5358 35.053 48.3718 35.3705 48.3094 35.7145C48.247 36.0586 48.2891 36.4134 48.4303 36.7333V36.8182C48.5647 37.1319 48.788 37.3994 49.0725 37.5878C49.3571 37.7763 49.6905 37.8774 50.0318 37.8788H50.2121C50.7747 37.8788 51.3142 38.1023 51.712 38.5001C52.1099 38.8979 52.3333 39.4374 52.3333 40C52.3333 40.5626 52.1099 41.1021 51.712 41.4999C51.3142 41.8977 50.7747 42.1212 50.2121 42.1212H50.1167C49.7754 42.1226 49.4419 42.2237 49.1574 42.4121C48.8728 42.6006 48.6496 42.8681 48.5152 43.1818Z" stroke="#424242" stroke-width="2" stroke-linecap="round" stroke-linejoin="round"/>
</svg>
