<svg width="12" height="18" viewBox="0 0 12 18" fill="none" xmlns="http://www.w3.org/2000/svg">
<path d="M5.25 1C5.25 0.585786 5.58579 0.25 6 0.25C6.41421 0.25 6.75 0.585786 6.75 1L5.25 1ZM6.53033 17.5303C6.23744 17.8232 5.76256 17.8232 5.46967 17.5303L0.6967 12.7574C0.403806 12.4645 0.403806 11.9896 0.6967 11.6967C0.989593 11.4038 1.46447 11.4038 1.75736 11.6967L6 15.9393L10.2426 11.6967C10.5355 11.4038 11.0104 11.4038 11.3033 11.6967C11.5962 11.9896 11.5962 12.4645 11.3033 12.7574L6.53033 17.5303ZM6.75 1L6.75 17L5.25 17L5.25 1L6.75 1Z" fill="#9E9E9E"/>
</svg>
