<svg width="32" height="32" viewBox="0 0 32 32" fill="none" xmlns="http://www.w3.org/2000/svg">
<path d="M8.66667 12.6667H4V8" stroke="#538CD8" stroke-width="2" stroke-linecap="round" stroke-linejoin="round"/>
<path d="M8.22461 23.775C9.76263 25.3143 11.7226 26.3628 13.8567 26.788C15.9907 27.2132 18.2029 26.9958 20.2134 26.1635C22.2239 25.3312 23.9424 23.9213 25.1515 22.1122C26.3606 20.3031 27.006 18.176 27.006 16C27.006 13.824 26.3606 11.6969 25.1515 9.8878C23.9424 8.07866 22.2239 6.66877 20.2134 5.83647C18.2029 5.00417 15.9907 4.78686 13.8567 5.21202C11.7226 5.63719 9.76263 6.68573 8.22461 8.22501L3.97461 12.4625" stroke="#538CD8" stroke-width="2" stroke-linecap="round" stroke-linejoin="round"/>
<path d="M12.4697 19.9999H14.252V12.954H12.4648L10.6729 14.1747V15.7079L12.4355 14.5262H12.4697V19.9999ZM18.583 20.1268C20.2676 20.1268 21.4199 19.1161 21.4199 17.6122V17.6024C21.4199 16.2841 20.458 15.3319 19.1299 15.3319C18.3975 15.3319 17.8213 15.6395 17.543 16.1132H17.5088L17.6504 14.3309H20.9805V12.954H16.2393L15.9365 17.1532H17.4893C17.5625 17.0116 17.6797 16.8798 17.8262 16.7772C18.0264 16.6307 18.2852 16.5477 18.583 16.5477C19.252 16.5477 19.7305 16.9921 19.7305 17.6366V17.6464C19.7305 18.2958 19.2568 18.7499 18.583 18.7499C17.9922 18.7499 17.5674 18.4032 17.4551 17.9637L17.4453 17.9296H15.8193L15.8242 18.0126C15.9023 19.204 16.9473 20.1268 18.583 20.1268Z" fill="#538CD8"/>
</svg>
