<svg width="32" height="32" viewBox="0 0 32 32" fill="none" xmlns="http://www.w3.org/2000/svg">
<path d="M9.42896 6.41844L9.42897 6.41845L9.4304 6.41678C9.57592 6.24701 9.79727 6.1462 10.0504 6.1462H27.8867C28.3615 6.1462 28.7346 6.51934 28.7346 6.99415V25.0058C28.7346 25.4807 28.3615 25.8538 27.8867 25.8538H10.0504C9.82413 25.8538 9.57451 25.7513 9.4304 25.5832L9.43041 25.5832L9.4288 25.5814L1.44748 16.5768C1.17335 16.2516 1.17338 15.7775 1.44756 15.4523L9.42896 6.41844ZM10.3794 24.1377L10.4231 24.1871H10.489H26.7463H26.8925H26.9217V24.0409H27.0387V7.95906V7.81287H26.8925H10.489H10.4231L10.3794 7.86226L3.27416 15.9032L3.18862 16L3.27416 16.0968L10.3794 24.1377Z" fill="#538CD8" stroke="#538CD8" stroke-width="0.292398"/>
<path d="M17.6108 17.2705L17.5074 17.1671L17.404 17.2705L14.6262 20.0483C14.45 20.2246 14.2537 20.2979 14.0279 20.2979C13.802 20.2979 13.6057 20.2246 13.4295 20.0483C13.1065 19.7253 13.1065 19.2038 13.4295 18.8808L16.2073 16.103L16.3106 15.9996L16.2073 15.8963L13.4295 13.1185C13.1065 12.7955 13.1065 12.274 13.4295 11.951C13.7525 11.6279 14.274 11.6279 14.597 11.951L14.597 11.951L14.5975 11.9515L17.4046 14.7293L17.5079 14.8316L17.6108 14.7287L20.3886 11.951C20.7116 11.6279 21.233 11.6279 21.5561 11.951C21.8791 12.274 21.8791 12.7955 21.5561 13.1185L18.7783 15.8963L18.6744 16.0002L18.7788 16.1036L21.5853 18.8808C21.5854 18.8809 21.5855 18.881 21.5856 18.881C21.9083 19.2041 21.9082 19.7254 21.5853 20.0483C21.4091 20.2246 21.2128 20.2979 20.9869 20.2979C20.7611 20.2979 20.5648 20.2246 20.3886 20.0483L17.6108 17.2705Z" fill="#538CD8" stroke="#538CD8" stroke-width="0.292398"/>
</svg>
