<svg width="32" height="32" viewBox="0 0 32 32" fill="none" xmlns="http://www.w3.org/2000/svg">
<path fill-rule="evenodd" clip-rule="evenodd" d="M15.4463 4.09111C15.7661 3.9374 16.1457 3.98062 16.4228 4.20228L23.3459 9.74074C23.5649 9.91592 23.6923 10.1811 23.6923 10.4615C23.6923 10.742 23.5649 11.0072 23.3459 11.1823L17.3238 16L23.3459 20.8177C23.5649 20.9928 23.6923 21.258 23.6923 21.5385C23.6923 21.8189 23.5649 22.0841 23.3459 22.2593L16.4228 27.7977C16.1457 28.0194 15.7661 28.0626 15.4463 27.9089C15.1265 27.7552 14.9231 27.4318 14.9231 27.0769V17.9206L9.49975 22.2593C9.10166 22.5777 8.52078 22.5132 8.20231 22.1151C7.88384 21.717 7.94838 21.1361 8.34647 20.8177L14.3685 16L8.34647 11.1823C7.94838 10.8639 7.88384 10.283 8.20231 9.8849C8.52078 9.48681 9.10166 9.42227 9.49975 9.74074L14.9231 14.0794V4.92308C14.9231 4.56825 15.1265 4.24482 15.4463 4.09111ZM16.7693 17.9206L21.2916 21.5385L16.7693 25.1563V17.9206ZM16.7693 14.0794V6.84366L21.2916 10.4615L16.7693 14.0794Z" fill="#424242"/>
</svg>
