<svg width="32" height="32" viewBox="0 0 32 32" fill="none" xmlns="http://www.w3.org/2000/svg">
<path fill-rule="evenodd" clip-rule="evenodd" d="M3.98928 3.27269C3.62569 2.9091 3.03619 2.9091 2.6726 3.27269C2.309 3.63629 2.309 4.22578 2.6726 4.58938L14.5058 16.4226L8.3369 21.3578C7.93538 21.679 7.87028 22.2649 8.19149 22.6664C8.51271 23.0679 9.0986 23.133 9.50012 22.8118L14.9674 18.4379V27.6724C14.9674 28.0303 15.1726 28.3565 15.4951 28.5115C15.8177 28.6666 16.2006 28.623 16.48 28.3994L22.0373 23.9541L27.8105 29.7273C28.1741 30.0909 28.7636 30.0909 29.1272 29.7273C29.4908 29.3637 29.4908 28.7742 29.1272 28.4106L16.6012 15.8846C16.5737 15.8532 16.5444 15.824 16.5137 15.7971L3.98928 3.27269ZM16.4801 4.60054C16.2006 4.37697 15.8177 4.33338 15.4952 4.48841C15.1726 4.64345 14.9674 4.96966 14.9674 5.32756V10.9138C14.9674 11.428 15.3843 11.8448 15.8985 11.8448C16.4127 11.8448 16.8295 11.428 16.8295 10.9138V7.26469L21.3907 10.9136L18.4229 13.287C18.0213 13.6081 17.9561 14.194 18.2773 14.5956C18.5984 14.9972 19.1843 15.0624 19.5859 14.7412L23.4627 11.6409C23.6836 11.4642 23.8122 11.1967 23.8123 10.9138C23.8123 10.631 23.6837 10.3635 23.4628 10.1867L16.4801 4.60054ZM20.7036 22.6365L16.8295 18.752V25.7354L20.7036 22.6365Z" fill="#424242"/>
</svg>
