<svg width="80" height="80" viewBox="0 0 80 80" fill="none" xmlns="http://www.w3.org/2000/svg">
<path fill-rule="evenodd" clip-rule="evenodd" d="M50.3543 34.0311C50.1452 36.2851 49.156 38.4068 47.5421 40.0207C47.3988 40.164 47.2515 40.3024 47.1004 40.4358L47.0854 40.449C46.9697 40.5507 46.8518 40.6495 46.7319 40.7452L46.6893 40.779C46.9867 40.5443 47.2716 40.2913 47.5421 40.0207C49.2839 38.2789 50.298 35.9456 50.3891 33.493L50.3886 33.5069C50.3819 33.6823 50.3704 33.8571 50.3543 34.0311ZM40.8673 42.8733L40.8673 42.8721L40.8756 42.8719C40.8728 42.872 40.8701 42.872 40.8673 42.8721L40.8672 46.5908L40.8673 42.8733ZM39.9673 42.4875C39.9951 42.4896 40.0229 42.4915 40.0507 42.4933C40.0365 42.4923 40.0223 42.4914 40.0081 42.4904C39.9945 42.4895 39.9809 42.4885 39.9673 42.4875ZM40.5053 42.5114C40.4828 42.5111 40.4603 42.5106 40.4378 42.5101L40.5053 42.5114ZM31.2781 33.493C31.369 35.8496 32.3449 38.0909 34.0188 39.7648C34.2025 39.9485 34.393 40.1238 34.5898 40.2904C34.4885 40.2047 34.389 40.1166 34.2912 40.0264C34.2545 39.9925 34.218 39.9583 34.1818 39.9238C34.1269 39.8715 34.0725 39.8185 34.0188 39.7648C33.9845 39.7305 33.9507 39.696 33.917 39.6613C32.5164 38.2167 31.6244 36.3677 31.3564 34.393C31.34 34.2728 31.326 34.1522 31.3144 34.0311C31.2972 33.8526 31.2851 33.6731 31.2781 33.493ZM26.5016 9.85C23.3812 9.85 20.8516 12.3796 20.8516 15.5V65C20.8516 68.1204 23.3812 70.65 26.5016 70.65H53.5016C56.622 70.65 59.1516 68.1204 59.1516 65V15.5C59.1516 12.3796 56.622 9.85 53.5016 9.85H26.5016ZM23.1516 15.5C23.1516 13.6498 24.6514 12.15 26.5016 12.15H53.5016C55.3517 12.15 56.8516 13.6498 56.8516 15.5V65C56.8516 66.8502 55.3517 68.35 53.5016 68.35H26.5016C24.6514 68.35 23.1516 66.8502 23.1516 65V15.5ZM34.7208 13.35C33.9476 13.35 33.3208 13.9768 33.3208 14.75C33.3208 15.5232 33.9476 16.15 34.7208 16.15H45.7208C46.494 16.15 47.1208 15.5232 47.1208 14.75C47.1208 13.9768 46.494 13.35 45.7208 13.35H34.7208Z" fill="#424242"/>
<path fill-rule="evenodd" clip-rule="evenodd" d="M39.4463 28.0911C39.7661 27.9374 40.1457 27.9806 40.4228 28.2023L47.3459 33.7407C47.5649 33.9159 47.6923 34.1811 47.6923 34.4616C47.6923 34.742 47.5649 35.0072 47.3459 35.1824L41.3238 40L47.3459 44.8177C47.5649 44.9928 47.6923 45.2581 47.6923 45.5385C47.6923 45.8189 47.5649 46.0841 47.3459 46.2593L40.4228 51.7977C40.1457 52.0194 39.7661 52.0626 39.4463 51.9089C39.1265 51.7552 38.9231 51.4318 38.9231 51.0769V41.9206L33.4998 46.2593C33.1017 46.5777 32.5208 46.5132 32.2023 46.1151C31.8838 45.717 31.9484 45.1361 32.3465 44.8177L38.3685 40L32.3465 35.1824C31.9484 34.8639 31.8838 34.283 32.2023 33.8849C32.5208 33.4868 33.1017 33.4223 33.4998 33.7407L38.9231 38.0794V28.9231C38.9231 28.5683 39.1265 28.2448 39.4463 28.0911ZM40.7693 41.9206L45.2916 45.5385L40.7693 49.1563V41.9206ZM40.7693 38.0794V30.8437L45.2916 34.4616L40.7693 38.0794Z" fill="#424242"/>
</svg>
