<svg width="60" height="53" viewBox="0 0 60 53" fill="none" xmlns="http://www.w3.org/2000/svg">
<path d="M29.9981 18.3333V29M29.9981 39.6666H30.0248M25.4381 4.62664L2.85144 42.3333C2.38575 43.1398 2.13935 44.0541 2.13674 44.9854C2.13413 45.9166 2.37541 46.8323 2.83657 47.6414C3.29774 48.4504 3.9627 49.1246 4.76532 49.5969C5.56794 50.0692 6.48023 50.3231 7.41144 50.3333H52.5848C53.516 50.3231 54.4283 50.0692 55.2309 49.5969C56.0335 49.1246 56.6985 48.4504 57.1596 47.6414C57.6208 46.8323 57.8621 45.9166 57.8595 44.9854C57.8569 44.0541 57.6105 43.1398 57.1448 42.3333L34.5581 4.62664C34.0827 3.84293 33.4134 3.19496 32.6146 2.74527C31.8159 2.29557 30.9147 2.05933 29.9981 2.05933C29.0815 2.05933 28.1803 2.29557 27.3816 2.74527C26.5828 3.19496 25.9135 3.84293 25.4381 4.62664Z" stroke="#FF6565" stroke-width="4" stroke-linecap="round" stroke-linejoin="round"/>
</svg>
