<svg width="80" height="80" viewBox="0 0 80 80" fill="none" xmlns="http://www.w3.org/2000/svg">
<path fill-rule="evenodd" clip-rule="evenodd" d="M37.5327 11.0608C53.4872 27.0119 53.4921 52.8811 37.5293 68.9426C36.9453 69.5302 36.9483 70.4799 37.5359 71.0639C38.1234 71.6479 39.0732 71.645 39.6572 71.0574C56.7791 53.8295 56.7839 26.0657 39.6538 8.93923C39.0679 8.3535 38.1182 8.3536 37.5325 8.93945C36.9467 9.5253 36.9468 10.475 37.5327 11.0608ZM35.3828 39.947C35.3828 36.4359 34.6912 32.9593 33.3476 29.7155C32.0039 26.4717 30.0345 23.5244 27.5517 21.0418C26.9659 20.456 26.9659 19.5063 27.5517 18.9205C28.1375 18.3347 29.0872 18.3346 29.673 18.9204C32.4343 21.6816 34.6248 24.9597 36.1192 28.5674C37.6136 32.1752 38.3828 36.042 38.3828 39.947C38.3828 43.852 37.6136 47.7188 36.1192 51.3265C34.6248 54.9343 32.4343 58.2124 29.673 60.9736C29.0872 61.5593 28.1375 61.5593 27.5517 60.9735C26.9659 60.3877 26.9659 59.4379 27.5517 58.8522C30.0345 56.3696 32.0039 53.4222 33.3476 50.1785C34.6912 46.9347 35.3828 43.458 35.3828 39.947ZM21.2617 39.9472C21.2617 36.6015 19.9329 33.3927 17.5674 31.0266C16.9817 30.4407 16.9819 29.4909 17.5678 28.9052C18.1536 28.3195 19.1034 28.3197 19.6891 28.9056C22.6169 31.8343 24.2617 35.806 24.2617 39.9472C24.2617 44.0885 22.6169 48.0602 19.6891 50.9889C19.1034 51.5748 18.1536 51.5749 17.5678 50.9892C16.9819 50.4035 16.9817 49.4538 17.5674 48.8679C19.9329 46.5018 21.2617 43.293 21.2617 39.9472Z" fill="#424242"/>
</svg>
