<svg width="32" height="32" viewBox="0 0 32 32" fill="none" xmlns="http://www.w3.org/2000/svg">
<path fill-rule="evenodd" clip-rule="evenodd" d="M22.045 12.2231C21.4911 11.909 20.992 11.5094 20.5659 11.0421L16.7693 14.0794V6.84366L19.2954 8.86454C19.1037 8.27764 19 7.65092 19 7C19 6.76206 19.0139 6.52736 19.0408 6.29666L16.4228 4.20228C16.1457 3.98062 15.7661 3.9374 15.4463 4.09111C15.1265 4.24482 14.9231 4.56825 14.9231 4.92308V14.0794L9.49975 9.74074C9.10166 9.42227 8.52078 9.48681 8.20231 9.8849C7.88384 10.283 7.94838 10.8639 8.34647 11.1823L14.3685 16L8.34647 20.8177C7.94838 21.1361 7.88384 21.717 8.20231 22.1151C8.52078 22.5132 9.10166 22.5777 9.49975 22.2593L14.9231 17.9206V27.0769C14.9231 27.4318 15.1265 27.7552 15.4463 27.9089C15.7661 28.0626 16.1457 28.0194 16.4228 27.7977L23.3459 22.2593C23.5649 22.0841 23.6923 21.8189 23.6923 21.5385C23.6923 21.258 23.5649 20.9928 23.3459 20.8177L17.3238 16L22.045 12.2231ZM21.2916 21.5385L16.7693 17.9206V25.1563L21.2916 21.5385Z" fill="#424242"/>
<circle cx="25" cy="7" r="3" fill="#35BE32"/>
</svg>
