<svg width="32" height="32" viewBox="0 0 32 32" fill="none" xmlns="http://www.w3.org/2000/svg">
<path d="M16.5 21C18.9853 21 21 18.9853 21 16.5C21 14.0147 18.9853 12 16.5 12C14.0147 12 12 14.0147 12 16.5C12 18.9853 14.0147 21 16.5 21Z" stroke="#424242" stroke-width="2" stroke-linecap="round" stroke-linejoin="round"/>
<path d="M9.83717 23.0928L9.02322 23.9068M6 16.465H7.16278H6ZM16.465 6V7.16278V6ZM25.7672 16.465H26.93H25.7672ZM16.465 25.7672V26.93V25.7672ZM9.02322 9.02322L9.83717 9.83717L9.02322 9.02322ZM23.9068 9.02322L23.0928 9.83717L23.9068 9.02322ZM23.0928 23.0928L23.9068 23.9068L23.0928 23.0928Z" stroke="#424242" stroke-width="2" stroke-linecap="round" stroke-linejoin="round"/>
</svg>
