<svg width="80" height="80" viewBox="0 0 80 80" fill="none" xmlns="http://www.w3.org/2000/svg">
<path fill-rule="evenodd" clip-rule="evenodd" d="M25.8284 23L34.8284 14H46.1243L54.432 23H25.8284ZM23 23L34 12H47L57.1538 23H70C71.6569 23 73 24.3431 73 26C73 27.6569 71.6569 29 70 29H69V31C69 32.6569 67.6569 34 66 34H64V65H65C66.6569 65 68 66.3431 68 68V69C68 70.6569 66.6569 72 65 72H15C13.3431 72 12 70.6569 12 69V68C12 66.3431 13.3431 65 15 65H16V34H14C12.3431 34 11 32.6569 11 31V29H10C8.34315 29 7 27.6569 7 26C7 24.3431 8.34315 23 10 23H23ZM59 25H56.2782H23.8284H21H10C9.44772 25 9 25.4477 9 26C9 26.5523 9.44772 27 10 27H11H13H67H69H70C70.5523 27 71 26.5523 71 26C71 25.4477 70.5523 25 70 25H59ZM16 32H18H62H64H66C66.5523 32 67 31.5523 67 31V29H13V31C13 31.5523 13.4477 32 14 32H16ZM18 34V65H21V50.5H20C19.4477 50.5 19 50.0523 19 49.5C19 48.9477 19.4477 48.5 20 48.5H21V46C21 41.5817 24.5817 38 29 38H51C55.4183 38 59 41.5817 59 46V48.5H60C60.5523 48.5 61 48.9477 61 49.5C61 50.0523 60.5523 50.5 60 50.5H59V65H62V34H18ZM23 65V50.5H30V65H23ZM32 46V48.5H39V44C39 43.4477 39.4477 43 40 43C40.5523 43 41 43.4477 41 44V48.5H48V46C48 45.4477 48.4477 45 49 45C49.5523 45 50 45.4477 50 46V48.5H57V46C57 42.6863 54.3137 40 51 40H29C25.6863 40 23 42.6863 23 46V48.5H30V46C30 45.4477 30.4477 45 31 45C31.5523 45 32 45.4477 32 46ZM48 50.5H41V65H48V50.5ZM50 65V50.5H57V65H50ZM32 65V50.5H39V65H32ZM18 67H21H23H57H59H62H64H65C65.5523 67 66 67.4477 66 68V69C66 69.5523 65.5523 70 65 70H15C14.4477 70 14 69.5523 14 69V68C14 67.4477 14.4477 67 15 67H16H18Z" fill="#424242"/>
</svg>
