<svg width="80" height="80" viewBox="0 0 80 80" fill="none" xmlns="http://www.w3.org/2000/svg">
<path fill-rule="evenodd" clip-rule="evenodd" d="M41 6C41 5.44772 40.5523 5 40 5C39.4477 5 39 5.44772 39 6V11.5194L29.6492 19H20C18.8954 19 18 19.8954 18 21V24C18 25.1046 18.8954 26 20 26H24V30H23C21.8954 30 21 30.8954 21 32V55.8368C21 56.5224 21.3512 57.1603 21.9306 57.5269L25.9306 60.0579C27.2623 60.9005 29 59.9436 29 58.3678V32C29 30.8954 28.1046 30 27 30H26V26H34V29H33C31.8954 29 31 29.8954 31 31V70.5479C31 71.0965 31.2253 71.6209 31.6232 71.9986L35.6232 75.795C36.8974 77.0044 39 76.1011 39 74.3444V31C39 29.8954 38.1046 29 37 29H36V26H44V29H43C41.8954 29 41 29.8954 41 31V63.8368C41 64.5224 41.3512 65.1603 41.9306 65.5269L45.9306 68.0579C47.2623 68.9005 49 67.9436 49 66.3678V31C49 29.8954 48.1046 29 47 29H46V26H54V29H53C51.8954 29 51 29.8954 51 31V49.741C51 50.4967 51.4259 51.1878 52.1008 51.5275L56.1008 53.5408C57.4309 54.2103 59 53.2434 59 51.7543V31C59 29.8954 58.1046 29 57 29H56V26H60C61.1046 26 62 25.1046 62 24V21C62 19.8954 61.1046 19 60 19H50.3508L41 11.5194V6ZM50.008 21H49.9908H30.0092H29.992H20V24H60V21H50.008ZM40 13.2806L47.1492 19H32.8508L40 13.2806ZM54 31H56H57V51.7543L53 49.741V31H54ZM44 31L43 31V63.8368L47 66.3678V31H46H44ZM34 31H36H37V74.3444L33 70.5479V31H34ZM23 32H27V58.3678L23 55.8368V32ZM26 37C26 37.5523 25.5523 38 25 38C24.4477 38 24 37.5523 24 37C24 36.4477 24.4477 36 25 36C25.5523 36 26 36.4477 26 37ZM35 37C35.5523 37 36 36.5523 36 36C36 35.4477 35.5523 35 35 35C34.4477 35 34 35.4477 34 36C34 36.5523 34.4477 37 35 37ZM46 36C46 36.5523 45.5523 37 45 37C44.4477 37 44 36.5523 44 36C44 35.4477 44.4477 35 45 35C45.5523 35 46 35.4477 46 36ZM55 37C55.5523 37 56 36.5523 56 36C56 35.4477 55.5523 35 55 35C54.4477 35 54 35.4477 54 36C54 36.5523 54.4477 37 55 37Z" fill="#424242"/>
</svg>
