<svg width="32" height="32" viewBox="0 0 32 32" fill="none" xmlns="http://www.w3.org/2000/svg">
<path d="M5.04492 5.5L26.4263 26.8814" stroke="#424242" stroke-width="2" stroke-linecap="round" stroke-linejoin="round"/>
<path d="M12.9584 8.64069C13.3492 8.434 13.7662 8.26177 14.2057 8.12991C16.4626 7.44571 18.9535 7.89947 20.7389 9.31777C22.5242 10.7337 23.3343 12.9015 22.8627 15.0028H24.0506C24.9087 15.0029 25.7457 15.2686 26.4468 15.7632C27.1479 16.2579 27.6788 16.9573 27.9666 17.7657C28.2545 18.574 28.2851 19.4516 28.0544 20.2781C27.8238 21.1045 27.343 21.8394 26.6781 22.3818M22.8627 23.3178H9.79637C6.71033 23.3178 4.20752 20.9243 4.20752 17.9725C4.20752 15.0206 6.71033 12.6271 9.79637 12.6271C9.92941 12.0332 10.1587 11.4713 10.4711 10.9546L22.8627 23.3178Z" stroke="#424242" stroke-width="2" stroke-linecap="round" stroke-linejoin="round"/>
</svg>
