<svg width="32" height="32" viewBox="0 0 32 32" fill="none" xmlns="http://www.w3.org/2000/svg">
<path d="M9.5883 23.5015C8.10619 23.5015 6.68479 22.9383 5.63678 21.9359C4.58877 20.9334 4 19.5738 4 18.1561C4 16.7385 4.58877 15.3789 5.63678 14.3764C6.68479 13.374 8.10619 12.8108 9.5883 12.8108C9.93834 11.2514 10.9624 9.88094 12.4351 9.00102C13.1643 8.56533 13.9817 8.26317 14.8407 8.11179C15.6997 7.96042 16.5834 7.96279 17.4413 8.11879C18.2993 8.27478 19.1147 8.58133 19.841 9.02093C20.5673 9.46054 21.1903 10.0246 21.6744 10.6809C22.1585 11.3372 22.4942 12.0729 22.6624 12.846C22.8306 13.619 22.828 14.4143 22.6547 15.1865H23.8425C24.9452 15.1865 26.0026 15.6245 26.7823 16.4042C27.562 17.1839 28 18.2414 28 19.344C28 20.4466 27.562 21.5041 26.7823 22.2838C26.0026 23.0634 24.9452 23.5015 23.8425 23.5015H9.5883Z" stroke="#424242" stroke-width="2" stroke-linecap="round" stroke-linejoin="round"/>
</svg>
