<svg width="80" height="80" viewBox="0 0 80 80" fill="none" xmlns="http://www.w3.org/2000/svg">
<path d="M39.9996 16.5C36.5581 6.17644 60.0132 10.3367 70.789 12.7439C73.881 13.4346 76 16.2031 76 19.3713V60C76 63.866 72.866 67 69 67H42.3495C41.1175 67 40.1726 65.8982 40.3438 64.6781C41.4577 56.7399 44.6351 30.4054 39.9996 16.5Z" fill="#9EBFEC"/>
<rect x="6" y="16" width="68" height="48" rx="4" stroke="#424242" stroke-width="2"/>
<path d="M34.9997 42.6667C36.4724 42.6667 37.6663 41.4728 37.6663 40C37.6663 38.5272 36.4724 37.3333 34.9997 37.3333C33.5269 37.3333 32.333 38.5272 32.333 40C32.333 41.4728 33.5269 42.6667 34.9997 42.6667Z" stroke="#424242" stroke-width="2" stroke-linecap="round" stroke-linejoin="round"/>
<path d="M45.6667 32H35C30.5817 32 27 35.5817 27 40C27 44.4183 30.5817 48 35 48H45.6667C50.0849 48 53.6667 44.4183 53.6667 40C53.6667 35.5817 50.0849 32 45.6667 32Z" stroke="#424242" stroke-width="2" stroke-linecap="round" stroke-linejoin="round"/>
</svg>
