<svg width="32" height="32" viewBox="0 0 32 32" fill="none" xmlns="http://www.w3.org/2000/svg">
<path d="M17.333 5.33333H6.66634C5.92996 5.33333 5.33301 5.93028 5.33301 6.66666V25.3333C5.33301 26.0697 5.92996 26.6667 6.66634 26.6667H17.333C18.0694 26.6667 18.6663 26.0697 18.6663 25.3333V6.66666C18.6663 5.93028 18.0694 5.33333 17.333 5.33333Z" stroke="#424242" stroke-width="2" stroke-linecap="round" stroke-linejoin="round"/>
<path d="M10.667 6.66667H13.3337" stroke="#424242" stroke-width="2" stroke-linecap="round" stroke-linejoin="round"/>
<path d="M12 22.6667V22.68" stroke="#424242" stroke-width="2" stroke-linecap="round" stroke-linejoin="round"/>
<path d="M25.1839 20.6623C25.5028 21.1961 26.2011 21.3764 26.6798 20.9796C27.3642 20.4123 27.9423 19.7233 28.3831 18.9442C29.0094 17.8371 29.337 16.5861 29.3336 15.3141C29.3303 14.0421 28.9962 12.7929 28.3641 11.6891C27.9192 10.9123 27.3375 10.2263 26.6502 9.66263C26.1693 9.26837 25.472 9.45232 25.1559 9.98777C24.8399 10.5232 25.0292 11.2059 25.4821 11.6319C25.8463 11.9746 26.1595 12.3705 26.4101 12.8081C26.8481 13.5729 27.0796 14.4386 27.082 15.32C27.0843 16.2014 26.8573 17.0683 26.4233 17.8355C26.175 18.2743 25.8639 18.6719 25.5014 19.0165C25.0508 19.4448 24.865 20.1285 25.1839 20.6623Z" fill="#424242"/>
<path d="M22.1551 18.7511C22.3621 19.2265 22.9229 19.4511 23.3473 19.1533C23.8175 18.8233 24.225 18.4078 24.5471 17.9256C25.044 17.1819 25.3166 16.3109 25.3326 15.4166C25.3485 14.5222 25.1071 13.6421 24.6371 12.8811C24.3324 12.3878 23.94 11.958 23.4819 11.6115C23.0683 11.2987 22.4999 11.5031 22.276 11.9708C22.0522 12.4385 22.2666 12.9908 22.6341 13.3566C22.788 13.5098 22.9243 13.6812 23.0395 13.8678C23.3204 14.3226 23.4647 14.8486 23.4552 15.3831C23.4456 15.9176 23.2827 16.4381 22.9857 16.8826C22.8639 17.065 22.7216 17.2314 22.5623 17.379C22.182 17.7314 21.948 18.2757 22.1551 18.7511Z" fill="#424242"/>
</svg>
