<svg width="80" height="80" viewBox="0 0 80 80" fill="none" xmlns="http://www.w3.org/2000/svg">
<path fill-rule="evenodd" clip-rule="evenodd" d="M52.803 16.6287C52.6736 16.6847 52.5396 16.7115 52.4069 16.7115L52.4069 16.7115C52.0226 16.7115 51.6567 16.4881 51.4944 16.1137C50.3745 13.539 51.5005 11.5729 51.549 11.4906C51.827 11.0164 52.4375 10.8593 52.9102 11.1373C53.3805 11.4139 53.54 12.0164 53.2691 12.4887C53.2319 12.5565 52.6223 13.7187 53.3185 15.3202C53.5377 15.824 53.3067 16.4095 52.803 16.6287ZM60.5749 13.7183C60.6078 13.7437 63.8861 16.2911 62.896 21.4866C62.7935 22.0266 63.1476 22.5473 63.6862 22.6498C63.7492 22.6616 63.8118 22.6672 63.8739 22.6672C64.3419 22.6672 64.7591 22.3352 64.8494 21.8596C66.068 15.4629 61.9501 12.2649 61.7737 12.1314C61.3354 11.7998 60.7126 11.8863 60.3811 12.3247C60.0495 12.7635 60.1365 13.3872 60.5749 13.7183L60.5749 13.7183ZM32.9556 70C42.856 70 50.9099 61.9456 50.9099 52.0445C50.9099 47.9101 49.4701 43.8749 46.8564 40.6813C44.4514 37.7426 41.1552 35.6316 37.5096 34.6759V29.1361H34.0286C34.2397 27.2024 35.0055 23.1701 37.6926 23.1701C39.4842 23.1701 40.7513 24.1508 42.2183 25.2876L42.2188 25.288C44.1048 26.7489 46.2425 28.4047 49.9142 28.4047C53.5919 28.4047 55.4601 26.5171 56.381 24.935C56.8951 24.0498 57.167 23.1678 57.3109 22.5201C59.1331 22.514 60.4801 21.6547 60.9176 20.2178C62.0704 16.4306 56.8175 12.5661 56.2145 12.1377C55.8584 11.8842 55.3787 11.8959 55.0315 12.1636C54.7278 12.3978 54.5912 12.7832 54.6651 13.15C54.6757 13.2024 54.6905 13.2544 54.7098 13.3056C54.7498 13.4124 55.6764 15.941 53.6986 17.8087C52.9145 18.5495 52.6605 19.4648 53.001 20.3217C53.3552 21.2116 54.2893 21.8452 55.3443 22.198C55.2272 22.6895 55.0127 23.347 54.627 23.9918C53.6671 25.5995 52.081 26.4151 49.9141 26.4151C46.9234 26.4151 45.2309 25.1044 43.439 23.7167L43.4359 23.7143L43.4337 23.7125C41.8258 22.4676 40.163 21.18 37.6925 21.18C33.2176 21.18 32.2351 26.8082 32.0201 29.136H28.4007V34.6758C24.7546 35.6315 21.4589 37.743 19.0535 40.6812C16.4393 43.8745 15 47.91 15 52.0444C15.0003 58.2325 18.1465 63.6993 22.9234 66.9293C25.7895 68.8673 29.2426 70 32.9556 70ZM54.8509 19.5868C54.8212 19.513 54.9722 19.3432 55.0658 19.2548C56.3832 18.0107 56.8386 16.587 56.9322 15.3748C58.189 16.6448 59.4151 18.3253 59.0154 19.6385C58.7793 20.4155 57.8334 20.5322 57.2901 20.5322C56.8411 20.532 56.407 20.4525 56.0319 20.3331C55.4067 20.1341 54.9453 19.8243 54.8509 19.5868L54.8509 19.5868ZM35.5209 34.2741C33.8234 34.0304 32.0878 34.0304 30.3909 34.2741V31.1259H35.5209V34.2741ZM29.604 36.4329C31.7995 35.9635 34.1114 35.9635 36.3069 36.4329C43.6161 37.9945 48.9198 44.5596 48.9198 52.0452C48.9198 60.8487 41.7574 68.0103 32.9547 68.0103C24.1517 68.0108 16.9896 60.8492 16.9896 52.0452C16.9896 51.1096 17.0725 50.1884 17.2318 49.2895C18.347 42.9972 23.2078 37.7994 29.604 36.4329ZM29.6042 42.6072C25.1853 43.5517 21.9789 47.521 21.9789 52.0457L21.979 52.0457C21.979 52.5946 21.5331 53.0409 20.9847 53.0409C20.4353 53.0409 19.9899 52.595 19.9899 52.0457C19.9899 46.5892 23.8584 41.801 29.1889 40.6623C29.7256 40.5475 30.2538 40.8899 30.369 41.4271C30.4838 41.9647 30.1414 42.4929 29.6042 42.6072Z" fill="#424242"/>
</svg>
