<svg width="32" height="32" viewBox="0 0 32 32" fill="none" xmlns="http://www.w3.org/2000/svg">
<path fill-rule="evenodd" clip-rule="evenodd" d="M5.69912 4.28499C5.30423 3.89888 4.67111 3.906 4.28499 4.30088C3.89888 4.69577 3.906 5.3289 4.30088 5.71501L4.97905 6.3781C4.36917 7.0802 4 7.99699 4 9V23C4 25.2091 5.79086 27 8 27H24C24.6033 27 25.1754 26.8664 25.6884 26.6272L26.8009 27.715C27.1958 28.1011 27.8289 28.094 28.215 27.6991C28.6011 27.3042 28.594 26.6711 28.1991 26.285L5.69912 4.28499ZM24.024 24.9999L23.0014 24H9C7.89543 24 7 23.1046 7 22V15C7 13.8954 7.89543 13 9 13H9.5C9.5 12.3925 9.77086 11.8483 10.1984 11.4815L6.4141 7.78126C6.15442 8.11868 6 8.54131 6 9V23C6 24.1046 6.89543 25 8 25H24C24.008 25 24.016 25 24.024 24.9999ZM11.7514 13H11.5V14C11.5 14.5523 11.0523 15 10.5 15H9V22L10.5 22V19C10.5 18.4477 10.9477 18 11.5 18C12.0523 18 12.5 18.4477 12.5 19V21.9997L13.5 22V19C13.5 18.4477 13.9477 18 14.5 18C15.0523 18 15.5 18.4477 15.5 19V21.9997L16.5 22V19C16.5 18.6294 16.7016 18.3058 17.0012 18.1331L11.7514 13ZM18.5 19.5986V21.9997L19.5 22V20.5764L18.5 19.5986Z" fill="#424242"/>
<path d="M26 21.0995C26 21.5807 26.2599 22.0244 26.6796 22.2597C27.2707 22.5911 28 22.1639 28 21.4863V9C28 6.79086 26.2091 5 24 5H11.5355C10.6446 5 10.1985 6.07714 10.8284 6.70711C11.016 6.89464 11.2703 7 11.5355 7H24C25.1046 7 26 7.89543 26 9V21.0995Z" fill="#424242"/>
<path d="M14.7887 10C14.6014 10 14.4193 9.93854 14.2704 9.82505C13.5187 9.25231 13.4289 8.0636 14.372 8.00403C14.4143 8.00136 14.457 8 14.5 8H17.5C18.6046 8 19.5 8.89543 19.5 10V11H20.5C21.6046 11 22.5 11.8954 22.5 13H23C24.1046 13 25 13.8954 25 15V18.4645C25 19.3554 23.9229 19.8015 23.2929 19.1716C23.1054 18.984 23 18.7297 23 18.4645V15H21.5C20.9477 15 20.5 14.5523 20.5 14V13H18.5C17.9477 13 17.5 12.5523 17.5 12V10H14.7887Z" fill="#424242"/>
</svg>
