<svg width="32" height="32" viewBox="0 0 32 32" fill="none" xmlns="http://www.w3.org/2000/svg">
<path fill-rule="evenodd" clip-rule="evenodd" d="M9 13C7.89543 13 7 13.8954 7 15V22C7 23.1046 7.89543 24 9 24H23C24.1046 24 25 23.1046 25 22V15C25 13.8954 24.1046 13 23 13H22.5C22.5 11.8954 21.6046 11 20.5 11H19.5V10C19.5 8.89543 18.6046 8 17.5 8H14.5C13.3954 8 12.5 8.89543 12.5 10V11H11.5C10.3954 11 9.5 11.8954 9.5 13H9ZM14.5 12C14.5 12.5523 14.0523 13 13.5 13H11.5V14C11.5 14.5523 11.0523 15 10.5 15H9V22L10.5 22V19C10.5 18.4477 10.9477 18 11.5 18C12.0523 18 12.5 18.4477 12.5 19V21.9997L13.5 22V19C13.5 18.4477 13.9477 18 14.5 18C15.0523 18 15.5 18.4477 15.5 19V21.9997L16.5 22V19C16.5 18.4477 16.9477 18 17.5 18C18.0523 18 18.5 18.4477 18.5 19V21.9997L19.5 22V19C19.5 18.4477 19.9477 18 20.5 18C21.0523 18 21.5 18.4477 21.5 19V21.9997L23 22V15H21.5C20.9477 15 20.5 14.5523 20.5 14V13H18.5C17.9477 13 17.5 12.5523 17.5 12V10H14.5V12Z" fill="#424242"/>
<path fill-rule="evenodd" clip-rule="evenodd" d="M8 5C5.79086 5 4 6.79086 4 9V23C4 25.2091 5.79086 27 8 27H24C26.2091 27 28 25.2091 28 23V9C28 6.79086 26.2091 5 24 5H8ZM6 9C6 7.89543 6.89543 7 8 7H24C25.1046 7 26 7.89543 26 9V23C26 24.1046 25.1046 25 24 25H8C6.89543 25 6 24.1046 6 23V9Z" fill="#424242"/>
</svg>
