<svg width="80" height="80" viewBox="0 0 80 80" fill="none" xmlns="http://www.w3.org/2000/svg">
<path fill-rule="evenodd" clip-rule="evenodd" d="M25.125 12.875C25.125 12.3918 25.5168 12 26 12C26.4832 12 26.875 12.3918 26.875 12.875V14.66C26.875 15.1316 26.4717 15.5 26 15.5C25.5283 15.5 25.125 15.1316 25.125 14.66V12.875ZM21.2196 16.6488C21.655 16.4258 21.8452 15.8845 21.6006 15.4609L20.5121 13.5755C20.2705 13.157 19.7354 13.0136 19.3169 13.2552C18.8983 13.4969 18.755 14.032 18.9966 14.4505L20.0854 16.3364C20.3123 16.7294 20.8157 16.8557 21.2196 16.6488ZM17.2677 20.1673C17.5429 19.7562 17.4378 19.1867 17.0094 18.9394L15.2529 17.9253C14.8344 17.6836 14.2992 17.827 14.0576 18.2455C13.816 18.664 13.9594 19.1992 14.3779 19.4408L16.1348 20.4551C16.5232 20.6794 17.0182 20.54 17.2677 20.1673ZM15.5309 25.1878C15.569 24.691 15.1912 24.25 14.6929 24.25H12.875C12.3918 24.25 12 24.6418 12 25.125C12 25.6082 12.3918 26 12.875 26H14.6942C15.1392 26 15.497 25.6316 15.5309 25.1878ZM16.5824 30.6484C16.3633 30.2054 15.8165 30.0085 15.3886 30.2556L14.0122 31.0503C13.5937 31.2919 13.4503 31.827 13.6919 32.2455C13.9335 32.664 14.4687 32.8074 14.8872 32.5658L16.2642 31.7708C16.653 31.5463 16.7814 31.0507 16.5824 30.6484ZM20.29 34.8132C19.8793 34.5465 19.3179 34.6545 19.073 35.0787L18.3629 36.3086C18.1212 36.7272 18.2646 37.2623 18.6831 37.5039C19.1017 37.7455 19.6368 37.6022 19.8784 37.1836L20.5887 35.9534C20.8154 35.5607 20.6703 35.0601 20.29 34.8132ZM26 36.5C25.5283 36.5 25.125 36.8684 25.125 37.34V39.125C25.125 39.6082 25.5168 40 26 40C26.4832 40 26.875 39.6082 26.875 39.125V37.34C26.875 36.8684 26.4717 36.5 26 36.5ZM31.7099 34.8132C31.3296 35.0601 31.1846 35.5607 31.4113 35.9534L32.1216 37.1837C32.3632 37.6022 32.8983 37.7456 33.3169 37.504C33.7354 37.2623 33.8788 36.7272 33.6371 36.3087L32.927 35.0787C32.6821 34.6545 32.1207 34.5465 31.7099 34.8132ZM35.4173 30.6491C35.2182 31.0515 35.3466 31.5471 35.7354 31.7716L37.1111 32.5658C37.5296 32.8074 38.0647 32.664 38.3063 32.2455C38.548 31.827 38.4046 31.2919 37.9861 31.0503L36.611 30.2564C36.1831 30.0093 35.6363 30.2062 35.4173 30.6491ZM36.4691 25.1878C36.503 25.6316 36.8608 26 37.3058 26H39.125C39.6082 26 40 25.6082 40 25.125C40 24.6418 39.6082 24.25 39.125 24.25H37.3071C36.8088 24.25 36.431 24.691 36.4691 25.1878ZM34.7318 20.1666C34.9813 20.5393 35.4763 20.6787 35.8647 20.4544L37.6203 19.4408C38.0388 19.1992 38.1822 18.664 37.9406 18.2455C37.699 17.827 37.1638 17.6836 36.7453 17.9253L34.9901 18.9386C34.5617 19.186 34.4566 19.7555 34.7318 20.1666ZM30.7804 16.6488C31.1843 16.8557 31.6877 16.7294 31.9146 16.3364L33.0034 14.4505C33.245 14.032 33.1017 13.4968 32.6831 13.2552C32.2646 13.0136 31.7295 13.157 31.4879 13.5755L30.3993 15.4609C30.1547 15.8845 30.345 16.4258 30.7804 16.6488ZM45.1038 33.9558C46.6063 33.6826 48.1545 33.6785 49.6589 33.9436C51.1632 34.2087 52.5903 34.7372 53.8591 35.4952C56.4221 37.0266 58.1726 39.3911 58.7683 42.0451C58.8708 42.5016 59.2761 42.8261 59.744 42.8261C62.2896 42.8261 64.7225 43.7938 66.5096 45.5031C68.2952 47.2111 69.2895 49.5178 69.2895 51.9131C69.2895 54.3084 68.2952 56.6151 66.5096 58.323C64.7225 60.0324 62.2896 61 59.744 61H32.8454C31.0299 61 29.2887 60.2788 28.005 58.9951C26.7212 57.7113 26 55.9701 26 54.1546C26 52.3391 26.7212 50.5979 28.005 49.3142C29.2887 48.0304 31.0299 47.3092 32.8454 47.3092H35.087C35.3907 47.3092 35.6779 47.1712 35.8677 46.9341C36.0575 46.697 36.1292 46.3865 36.0627 46.0902C35.7675 44.7751 35.763 43.4216 36.0495 42.105C36.336 40.7882 36.909 39.5291 37.7416 38.4004C38.5743 37.2715 39.6509 36.2946 40.9144 35.5299C42.1779 34.7651 43.6013 34.229 45.1038 33.9558ZM50.006 31.9739C48.2684 31.6677 46.4815 31.6725 44.746 31.9881C43.0105 32.3036 41.3564 32.9245 39.8788 33.8189C38.401 34.7133 37.1264 35.8652 36.132 37.2132C35.1375 38.5615 34.4435 40.079 34.0952 41.6798C33.8348 42.8767 33.7721 44.0999 33.907 45.3092H32.8454C30.4995 45.3092 28.2496 46.2411 26.5908 47.9C24.9319 49.5588 24 51.8087 24 54.1546C24 56.5006 24.9319 58.7504 26.5908 60.4093C28.2496 62.0681 30.4995 63 32.8454 63H59.744C62.7921 63 65.7238 61.8423 67.892 59.7683C70.0618 57.6928 71.2895 54.8682 71.2895 51.9131C71.2895 48.9579 70.0618 46.1333 67.892 44.0578C65.9091 42.1611 63.2877 41.0307 60.5227 40.8513C59.6557 37.9394 57.6441 35.4269 54.8849 33.7783C53.4015 32.8921 51.7435 32.2801 50.006 31.9739ZM30.125 26C30.125 28.2782 28.2782 30.125 26 30.125C23.7218 30.125 21.875 28.2782 21.875 26C21.875 23.7218 23.7218 21.875 26 21.875C28.2782 21.875 30.125 23.7218 30.125 26ZM32.125 26C32.125 29.3827 29.3827 32.125 26 32.125C22.6173 32.125 19.875 29.3827 19.875 26C19.875 22.6173 22.6173 19.875 26 19.875C29.3827 19.875 32.125 22.6173 32.125 26Z" fill="#424242"/>
</svg>
