<svg width="32" height="32" viewBox="0 0 32 32" fill="none" xmlns="http://www.w3.org/2000/svg">
<path d="M24 12.6667H28.6667V8" stroke="#538CD8" stroke-width="2" stroke-linecap="round" stroke-linejoin="round"/>
<path d="M23.7755 23.775C22.2375 25.3143 20.2775 26.3628 18.1434 26.788C16.0094 27.2132 13.7972 26.9958 11.7867 26.1635C9.77619 25.3312 8.05769 23.9213 6.8486 22.1122C5.63951 20.3031 4.99414 18.176 4.99414 16C4.99414 13.824 5.63951 11.6969 6.8486 9.8878C8.05769 8.07866 9.77619 6.66877 11.7867 5.83647C13.7972 5.00417 16.0094 4.78686 18.1434 5.21202C20.2775 5.63719 22.2375 6.68573 23.7755 8.22501L28.0255 12.4625" stroke="#538CD8" stroke-width="2" stroke-linecap="round" stroke-linejoin="round"/>
<path d="M12.4688 19.9999H14.251V12.954H12.4639L10.6719 14.1747V15.7079L12.4346 14.5262H12.4688V19.9999ZM18.582 20.1268C20.2666 20.1268 21.4189 19.1161 21.4189 17.6122V17.6024C21.4189 16.2841 20.457 15.3319 19.1289 15.3319C18.3965 15.3319 17.8203 15.6395 17.542 16.1132H17.5078L17.6494 14.3309H20.9795V12.954H16.2383L15.9355 17.1532H17.4883C17.5615 17.0116 17.6787 16.8798 17.8252 16.7772C18.0254 16.6307 18.2842 16.5477 18.582 16.5477C19.251 16.5477 19.7295 16.9921 19.7295 17.6366V17.6464C19.7295 18.2958 19.2559 18.7499 18.582 18.7499C17.9912 18.7499 17.5664 18.4032 17.4541 17.9637L17.4443 17.9296H15.8184L15.8232 18.0126C15.9014 19.204 16.9463 20.1268 18.582 20.1268Z" fill="#538CD8"/>
</svg>
