<svg width="80" height="80" viewBox="0 0 80 80" fill="none" xmlns="http://www.w3.org/2000/svg">
<path d="M77.9996 40C75.9998 50 66.0973 55.7921 44.914 55.2751C23.0725 54.742 -3 34 4.00004 24C12.0522 12.4969 33.8886 24.503 50.9997 28C65.1985 30.9017 80.6175 26.9095 77.9996 40Z" fill="#E95B51"/>
<path d="M63.4567 43.8445L63.2589 44.8247C63.5529 44.884 63.8579 44.8083 64.09 44.6183C64.3221 44.4284 64.4567 44.1444 64.4567 43.8445H63.4567ZM64.2175 39.3537L64.4693 40.3215L64.4693 40.3215L64.2175 39.3537ZM71.5573 36.6096L71.0661 35.7386L71.0661 35.7386L71.5573 36.6096ZM71.7357 36.529L72.0647 37.4733C72.428 37.3468 72.6865 37.023 72.7295 36.6407C72.7725 36.2584 72.5923 35.8854 72.2662 35.6813L71.7357 36.529ZM6.20703 37.7494L5.30087 37.3265C5.08502 37.789 5.25207 38.3398 5.68843 38.6044C6.1248 38.8691 6.69046 38.7627 7.00084 38.3576L6.20703 37.7494ZM7.27219 36.6442L6.62762 35.8796L6.62762 35.8796L7.27219 36.6442ZM8.38536 36.577L8.88024 35.708L8.88024 35.708L8.38536 36.577ZM15.74 39.3425L15.9926 38.3749L15.74 39.3425ZM16.5001 43.9355H15.5001C15.5001 44.2366 15.6358 44.5217 15.8695 44.7116C16.1032 44.9015 16.41 44.976 16.7047 44.9144L16.5001 43.9355ZM64.4567 43.8445V40.3303H62.4567V43.8445H64.4567ZM64.4567 40.3303C64.4567 40.3297 64.4567 40.3302 64.4565 40.3307C64.4565 40.3308 64.4567 40.33 64.4578 40.3285C64.4602 40.3256 64.4637 40.3229 64.4693 40.3215L63.9658 38.3859C63.088 38.6142 62.4567 39.4055 62.4567 40.3303H64.4567ZM64.4693 40.3215C67.5274 39.526 70.1153 38.5709 72.0485 37.4807L71.0661 35.7386C69.3395 36.7123 66.9331 37.614 63.9658 38.3859L64.4693 40.3215ZM72.0485 37.4807C72.0541 37.4775 72.0595 37.4751 72.0647 37.4733L71.4068 35.5846C71.2897 35.6254 71.1756 35.6768 71.0661 35.7386L72.0485 37.4807ZM72.2662 35.6813C69.5956 34.01 65.143 32.858 59.6855 32.111C54.1862 31.3582 47.5255 31 40.3305 31V33C47.4684 33 54.0329 33.3559 59.4143 34.0925C64.8374 34.8348 68.921 35.9472 71.2053 37.3767L72.2662 35.6813ZM40.3305 31C31.913 31 23.8135 31.3956 17.5554 32.3221C14.4307 32.7847 11.7226 33.3856 9.65047 34.1548C7.64623 34.8988 5.96899 35.895 5.30087 37.3265L7.1132 38.1723C7.41793 37.5194 8.39371 36.7547 10.3465 36.0298C12.2313 35.3301 14.7842 34.7542 17.8483 34.3006C23.9678 33.3946 31.9573 33 40.3305 33V31ZM6.62762 35.8796C6.17091 36.2647 5.76345 36.6841 5.41322 37.1413L7.00084 38.3576C7.25453 38.0265 7.55913 37.7102 7.91675 37.4087L6.62762 35.8796ZM8.88024 35.708C8.22584 35.3353 7.31369 35.3012 6.62762 35.8796L7.91675 37.4087C7.90572 37.4181 7.89298 37.4253 7.88094 37.4298C7.86945 37.4342 7.86186 37.4349 7.85975 37.435C7.85786 37.435 7.86048 37.4347 7.86696 37.4363C7.8734 37.4379 7.88164 37.4409 7.89047 37.4459L8.88024 35.708ZM15.9926 38.3749C13.0129 37.5972 10.6019 36.6885 8.88024 35.708L7.89047 37.4459C9.82158 38.5457 12.4167 39.5087 15.4875 40.3101L15.9926 38.3749ZM17.5001 40.319C17.5001 39.3948 16.8695 38.6038 15.9926 38.3749L15.4875 40.3101C15.4931 40.3116 15.4966 40.3142 15.499 40.3172C15.5001 40.3187 15.5004 40.3195 15.5003 40.3194C15.5001 40.3189 15.5001 40.3184 15.5001 40.319H17.5001ZM17.5001 43.9355V40.319H15.5001V43.9355H17.5001ZM16.7047 44.9144C22.7676 43.6472 31.0483 42.8609 40.2001 42.8609V40.8609C30.9505 40.8609 22.5269 41.6543 16.2956 42.9567L16.7047 44.9144ZM40.2001 42.8609C49.1332 42.8609 57.2372 43.6101 63.2589 44.8247L63.6544 42.8642C57.4713 41.617 49.2298 40.8609 40.2001 40.8609V42.8609Z" fill="#FFFAF1"/>
<path d="M15.7399 39.3425L15.4873 40.3101L15.7399 39.3425ZM64.6709 48.6911L64.426 47.7215L64.6709 48.6911ZM64.2174 39.3537L63.9656 38.3859L64.2174 39.3537ZM8.38521 36.577L7.89033 37.4459L8.38521 36.577ZM71.5572 36.6096L71.066 35.7386L71.5572 36.6096ZM72.7511 36.7614L72.0023 37.4242L72.7511 36.7614ZM71.066 35.7386C69.3394 36.7123 66.9329 37.614 63.9656 38.3859L64.4691 40.3215C67.5272 39.526 70.1151 38.5709 72.0484 37.4807L71.066 35.7386ZM75.4 41.3988C75.4 39.2772 74.753 37.5144 73.4999 36.0986L72.0023 37.4242C72.902 38.4407 73.4 39.7188 73.4 41.3988H75.4ZM64.9158 49.6606C68.033 48.8732 70.6055 47.8484 72.4203 46.5298C74.2541 45.1973 75.4 43.4923 75.4 41.3988H73.4C73.4 42.6548 72.7441 43.8223 71.2447 44.9118C69.7263 46.0151 67.4343 46.9617 64.426 47.7215L64.9158 49.6606ZM62.4565 40.3303V47.7317H64.4565V40.3303H62.4565ZM15.9924 38.3749C13.0127 37.5973 10.6018 36.6885 8.8801 35.708L7.89033 37.4459C9.82144 38.5457 12.4166 39.5087 15.4873 40.3101L15.9924 38.3749ZM6.62747 35.8796C4.95427 37.2903 4 39.1192 4 41.3988H6C6 39.7612 6.65246 38.4745 7.91661 37.4087L6.62747 35.8796ZM4 41.3988C4 43.4992 5.27788 45.1756 7.20151 46.4672C9.12032 47.7556 11.8236 48.768 15.0531 49.5547L15.5264 47.6115C12.3935 46.8484 9.95188 45.9049 8.31642 44.8068C6.68579 43.7119 6 42.5709 6 41.3988H4ZM17.5 47.6207V40.319H15.5V47.6207H17.5ZM15.0531 49.5547C16.3191 49.8631 17.5 48.8897 17.5 47.6207H15.5C15.5 47.6231 15.4998 47.6234 15.5 47.6224C15.5002 47.6215 15.5006 47.6204 15.5011 47.6193C15.502 47.6175 15.5028 47.6168 15.5033 47.6163C15.5039 47.6159 15.5067 47.6138 15.5128 47.6124C15.5159 47.6117 15.5193 47.6113 15.5224 47.6113C15.5257 47.6113 15.5272 47.6117 15.5264 47.6115L15.0531 49.5547ZM15.4873 40.3101C15.493 40.3116 15.4965 40.3142 15.4988 40.3172C15.4999 40.3187 15.5002 40.3195 15.5002 40.3194C15.5 40.3189 15.5 40.3184 15.5 40.319H17.5C17.5 39.3948 16.8694 38.6038 15.9924 38.3749L15.4873 40.3101ZM64.426 47.7215C64.4254 47.7217 64.4272 47.7212 64.4308 47.7212C64.4343 47.7211 64.4381 47.7215 64.4416 47.7223C64.4485 47.7239 64.4519 47.7263 64.4527 47.727C64.4536 47.7277 64.4545 47.7286 64.4554 47.7305C64.4559 47.7316 64.4563 47.7327 64.4565 47.7336C64.4568 47.7345 64.4565 47.7341 64.4565 47.7317H62.4565C62.4565 49.0032 63.644 49.9819 64.9158 49.6606L64.426 47.7215ZM63.9656 38.3859C63.0879 38.6142 62.4565 39.4055 62.4565 40.3303H64.4565C64.4565 40.3297 64.4565 40.3302 64.4564 40.3307C64.4563 40.3308 64.4566 40.33 64.4577 40.3285C64.46 40.3256 64.4635 40.3229 64.4691 40.3215L63.9656 38.3859ZM8.8801 35.708C8.22569 35.3353 7.31355 35.3012 6.62747 35.8796L7.91661 37.4087C7.90557 37.4181 7.89283 37.4253 7.88079 37.4298C7.86931 37.4342 7.86172 37.4349 7.85961 37.435C7.85771 37.435 7.86033 37.4347 7.86682 37.4363C7.87326 37.4379 7.88149 37.4409 7.89033 37.4459L8.8801 35.708ZM72.0484 37.4807C72.0581 37.4752 72.0672 37.4721 72.0743 37.4706C72.0814 37.4691 72.0834 37.4698 72.0796 37.4694C72.0753 37.4689 72.0637 37.4669 72.0477 37.4589C72.0308 37.4505 72.0146 37.4382 72.0023 37.4242L73.4999 36.0986C72.8262 35.3375 71.7832 35.3341 71.066 35.7386L72.0484 37.4807Z" fill="#FFFAF1"/>
<path d="M8.72625 57.5809C8.60815 57.5806 8.49191 57.5515 8.38754 57.4962C8.28317 57.441 8.1938 57.3612 8.12714 57.2637C8.06047 57.1662 8.01852 57.054 8.00487 56.9366C7.99123 56.8193 8.00632 56.7005 8.04884 56.5903L9.63675 52.4675C9.71283 52.2959 9.85224 52.1603 10.0259 52.089C10.1995 52.0177 10.394 52.0161 10.5688 52.0847C10.7435 52.1533 10.885 52.2867 10.9638 52.4571C11.0426 52.6275 11.0525 52.8217 10.9916 52.9993L9.41095 57.1147C9.35768 57.2528 9.26363 57.3713 9.14131 57.4546C9.019 57.5379 8.87422 57.582 8.72625 57.5809Z" fill="#FFFAF1"/>
<path d="M21.1687 59.3873H21.0084C20.9151 59.3658 20.827 59.3262 20.749 59.2706C20.6711 59.215 20.6048 59.1447 20.5541 59.0635C20.5033 58.9823 20.4691 58.8919 20.4533 58.7975C20.4375 58.7031 20.4405 58.6065 20.4621 58.5132L21.4163 54.2958C21.4588 54.1026 21.5763 53.9342 21.743 53.8276C21.9096 53.7211 22.1118 53.6851 22.305 53.7276C22.4981 53.7701 22.6665 53.8876 22.7731 54.0543C22.8796 54.2209 22.9156 54.4231 22.8731 54.6163L21.8752 58.8264C21.8376 58.9857 21.7474 59.1276 21.6192 59.2294C21.491 59.3311 21.3323 59.3868 21.1687 59.3873Z" fill="#FFFAF1"/>
<path d="M33.7616 60.2833H33.7033C33.5113 60.2684 33.3329 60.178 33.2073 60.032C33.0817 59.8859 33.0191 59.696 33.0332 59.5039L33.3537 55.2428C33.3609 55.1471 33.3868 55.0538 33.43 54.9682C33.4733 54.8826 33.533 54.8063 33.6057 54.7437C33.6784 54.6812 33.7627 54.6335 33.8538 54.6035C33.9449 54.5736 34.0411 54.5618 34.1367 54.569C34.2324 54.5762 34.3257 54.6021 34.4113 54.6454C34.4969 54.6886 34.5732 54.7483 34.6358 54.821C34.6983 54.8937 34.746 54.978 34.776 55.0691C34.8059 55.1602 34.8177 55.2564 34.8105 55.352L34.49 59.6132C34.4753 59.7961 34.3921 59.9667 34.2571 60.091C34.1221 60.2152 33.9451 60.2839 33.7616 60.2833Z" fill="#FFFAF1"/>
<path d="M46.4006 60.2833C46.2159 60.2838 46.0379 60.2141 45.9027 60.0883C45.7675 59.9626 45.6851 59.7901 45.6722 59.6059L45.3517 55.3448C45.3372 55.1516 45.4 54.9606 45.5264 54.8137C45.6527 54.6669 45.8322 54.5762 46.0254 54.5618C46.2186 54.5473 46.4096 54.6101 46.5565 54.7365C46.7033 54.8628 46.794 55.0423 46.8085 55.2355L47.1289 59.4967C47.1369 59.5924 47.1259 59.6887 47.0965 59.7802C47.067 59.8716 47.0198 59.9563 46.9575 60.0294C46.8953 60.1025 46.8191 60.1626 46.7335 60.2062C46.648 60.2498 46.5546 60.276 46.4588 60.2833H46.4006Z" fill="#FFFAF1"/>
<path d="M58.9926 59.3873C58.8242 59.3915 58.6596 59.3371 58.5268 59.2335C58.394 59.1299 58.3012 58.9835 58.2642 58.8192L57.3319 54.6018C57.2894 54.4086 57.3254 54.2064 57.4319 54.0398C57.5385 53.8731 57.7068 53.7556 57.9 53.7131C58.0932 53.6706 58.2954 53.7066 58.462 53.8132C58.6287 53.9197 58.7462 54.0881 58.7887 54.2813L59.7429 58.4987C59.7645 58.592 59.7674 58.6886 59.7517 58.783C59.7359 58.8774 59.7017 58.9678 59.6509 59.049C59.6002 59.1302 59.5339 59.2005 59.456 59.2561C59.378 59.3117 59.2899 59.3513 59.1966 59.3728L58.9926 59.3873Z" fill="#FFFAF1"/>
<path d="M72.112 56.5903L70.5241 52.4676C70.4546 52.2869 70.3161 52.1413 70.1392 52.0628C69.9623 51.9842 69.7615 51.9792 69.5809 52.0487C69.4002 52.1183 69.2546 52.2567 69.1761 52.4336C69.0975 52.6105 69.0925 52.8114 69.162 52.992L70.7499 57.1148C70.8195 57.2954 70.9579 57.441 71.1348 57.5195C71.3117 57.5981 71.5126 57.6031 71.6932 57.5336C71.8738 57.464 72.0194 57.3256 72.098 57.1487C72.1765 56.9718 72.1816 56.7709 72.112 56.5903Z" fill="#FFFAF1"/>
<path d="M8.72625 22.7024C8.60815 22.7028 8.49191 22.7318 8.38754 22.7871C8.28317 22.8423 8.1938 22.9222 8.12714 23.0196C8.06047 23.1171 8.01852 23.2294 8.00487 23.3467C7.99123 23.464 8.00632 23.5829 8.04884 23.693L9.63675 27.8158C9.71283 27.9874 9.85224 28.123 10.0259 28.1943C10.1995 28.2657 10.394 28.2672 10.5688 28.1986C10.7435 28.13 10.885 27.9966 10.9638 27.8262C11.0426 27.6558 11.0525 27.4616 10.9916 27.284L9.41095 23.1686C9.35768 23.0305 9.26363 22.912 9.14131 22.8287C9.019 22.7454 8.87422 22.7014 8.72625 22.7024Z" fill="#FFFAF1"/>
<path d="M21.1687 20.8961H21.0084C20.9151 20.9175 20.827 20.9572 20.749 21.0127C20.6711 21.0683 20.6048 21.1387 20.5541 21.2198C20.5033 21.301 20.4691 21.3914 20.4533 21.4858C20.4375 21.5803 20.4405 21.6769 20.4621 21.7701L21.4163 25.9876C21.4588 26.1807 21.5763 26.3491 21.743 26.4557C21.9096 26.5622 22.1118 26.5982 22.305 26.5557C22.4981 26.5132 22.6665 26.3957 22.7731 26.2291C22.8796 26.0624 22.9156 25.8602 22.8731 25.6671L21.8752 21.4569C21.8376 21.2977 21.7474 21.1557 21.6192 21.0539C21.491 20.9522 21.3323 20.8966 21.1687 20.8961Z" fill="#FFFAF1"/>
<path d="M33.7616 20H33.7033C33.5113 20.0149 33.3329 20.1053 33.2073 20.2514C33.0817 20.3974 33.0191 20.5873 33.0332 20.7794L33.3537 25.0406C33.3609 25.1362 33.3868 25.2295 33.43 25.3151C33.4733 25.4008 33.533 25.477 33.6057 25.5396C33.6784 25.6022 33.7627 25.6498 33.8538 25.6798C33.9449 25.7098 34.0411 25.7215 34.1367 25.7143C34.2324 25.7071 34.3257 25.6812 34.4113 25.638C34.4969 25.5947 34.5732 25.5351 34.6358 25.4624C34.6983 25.3896 34.746 25.3053 34.776 25.2142C34.8059 25.1231 34.8177 25.0269 34.8105 24.9313L34.49 20.6702C34.4753 20.4872 34.3921 20.3166 34.2571 20.1924C34.1221 20.0681 33.9451 19.9994 33.7616 20Z" fill="#FFFAF1"/>
<path d="M46.4006 20C46.2159 19.9995 46.0379 20.0692 45.9027 20.195C45.7675 20.3208 45.6851 20.4932 45.6722 20.6774L45.3517 24.9385C45.3372 25.1317 45.4 25.3227 45.5264 25.4696C45.6527 25.6164 45.8322 25.7071 46.0254 25.7216C46.2186 25.7361 46.4096 25.6732 46.5565 25.5469C46.7033 25.4205 46.794 25.241 46.8085 25.0478L47.1289 20.7867C47.1369 20.6909 47.1259 20.5946 47.0965 20.5032C47.067 20.4117 47.0198 20.327 46.9575 20.2539C46.8953 20.1808 46.8191 20.1207 46.7335 20.0771C46.648 20.0336 46.5546 20.0073 46.4588 20H46.4006Z" fill="#FFFAF1"/>
<path d="M58.9926 20.896C58.8242 20.8919 58.6596 20.9462 58.5268 21.0498C58.394 21.1534 58.3012 21.2998 58.2642 21.4641L57.3319 25.6816C57.2894 25.8747 57.3254 26.0769 57.4319 26.2435C57.5385 26.4102 57.7068 26.5277 57.9 26.5702C58.0932 26.6127 58.2954 26.5767 58.462 26.4702C58.6287 26.3636 58.7462 26.1952 58.7887 26.0021L59.7429 21.7846C59.7645 21.6914 59.7674 21.5947 59.7517 21.5003C59.7359 21.4059 59.7017 21.3155 59.6509 21.2343C59.6002 21.1532 59.5339 21.0828 59.456 21.0272C59.378 20.9717 59.2899 20.932 59.1966 20.9105L58.9926 20.896Z" fill="#FFFAF1"/>
<path d="M72.112 23.693L70.5241 27.8158C70.4546 27.9964 70.3161 28.142 70.1392 28.2205C69.9623 28.2991 69.7615 28.3041 69.5809 28.2346C69.4002 28.165 69.2546 28.0266 69.1761 27.8497C69.0975 27.6728 69.0925 27.4719 69.162 27.2913L70.7499 23.1686C70.8195 22.9879 70.9579 22.8423 71.1348 22.7638C71.3117 22.6852 71.5126 22.6802 71.6932 22.7497C71.8738 22.8193 72.0194 22.9577 72.098 23.1346C72.1765 23.3115 72.1816 23.5124 72.112 23.693Z" fill="#FFFAF1"/>
</svg>
