<svg width="52" height="52" viewBox="0 0 52 52" fill="none" xmlns="http://www.w3.org/2000/svg">
<path fill-rule="evenodd" clip-rule="evenodd" d="M25.9998 0.800003C24.0116 0.800003 22.3998 2.41178 22.3998 4.40001V18.8C22.3998 20.7882 24.0116 22.4 25.9998 22.4C27.988 22.4 29.5998 20.7882 29.5998 18.8V4.4C29.5998 2.41178 27.988 0.800003 25.9998 0.800003ZM5.66381 10.6883C6.84785 9.11576 9.12817 9.12842 10.5201 10.5203C11.912 11.9123 11.8769 14.1547 10.7802 15.7894C9.43935 17.7881 8.49865 20.0412 8.02458 22.4245C7.31741 25.9797 7.68036 29.6647 9.06751 33.0136C10.4547 36.3625 12.8037 39.2248 15.8176 41.2387C18.8316 43.2525 22.375 44.3274 25.9998 44.3274C29.6246 44.3274 33.168 43.2525 36.1819 41.2387C39.1958 39.2248 41.5449 36.3625 42.9321 33.0136C44.3192 29.6647 44.6822 25.9797 43.975 22.4245C43.5009 20.0412 42.5602 17.7881 41.2194 15.7894C40.1227 14.1547 40.0876 11.9123 41.4795 10.5203C42.8714 9.12842 45.1517 9.11576 46.3358 10.6883C48.6281 13.7329 50.2171 17.2663 50.9665 21.0338C51.9487 25.9718 51.4446 31.0901 49.5179 35.7416C47.5912 40.393 44.3285 44.3687 40.1423 47.1658C35.9561 49.9629 31.0345 51.4559 25.9998 51.4559C20.9651 51.4559 16.0435 49.9629 11.8573 47.1658C7.6711 44.3687 4.40836 40.393 2.48167 35.7416C0.554975 31.0901 0.0508648 25.9718 1.03308 21.0338C1.78249 17.2663 3.37146 13.7329 5.66381 10.6883Z" fill="#BDBDBD"/>
</svg>
