<svg width="37" height="36" viewBox="0 0 37 36" fill="none" xmlns="http://www.w3.org/2000/svg">
<path d="M18.1951 3V4.5M4.69513 18H3.19513M8.44513 8.25L7.54498 7.34985M27.9451 8.25L28.8455 7.34985M33.1951 18H31.6951M15.1951 20.25H21.1951M18.1951 20.25V27.75M23.4451 25.3109C25.7162 23.6772 27.1951 21.0113 27.1951 18C27.1951 13.0294 23.1657 9 18.1951 9C13.2246 9 9.19513 13.0294 9.19513 18C9.19513 21.0113 10.674 23.6772 12.9451 25.3109V28.2C12.9451 29.8802 12.9451 30.7202 13.2721 31.362C13.5597 31.9265 14.0187 32.3854 14.5832 32.673C15.2249 33 16.065 33 17.7451 33H18.6451C20.3253 33 21.1654 33 21.8071 32.673C22.3716 32.3854 22.8305 31.9265 23.1181 31.362C23.4451 30.7202 23.4451 29.8802 23.4451 28.2V25.3109Z" stroke="white" stroke-width="2" stroke-linecap="round" stroke-linejoin="round"/>
</svg>
