<svg width="32" height="32" viewBox="0 0 32 32" fill="none" xmlns="http://www.w3.org/2000/svg">
<path fill-rule="evenodd" clip-rule="evenodd" d="M12.4002 16C12.4185 15.1742 12.4982 14.3554 12.6369 13.55H19.3631C19.5018 14.3554 19.5815 15.1742 19.5998 16C19.5931 16.3027 19.5781 16.6045 19.5551 16.905C20.1819 16.5499 20.8688 16.2888 21.5969 16.1407C21.598 16.1007 21.599 16.0608 21.5998 16.0208C21.6001 16.0069 21.6001 15.9931 21.5998 15.9792C21.5828 15.1617 21.512 14.3504 21.3893 13.55H26.2126C26.4005 14.336 26.5 15.1564 26.5 16C26.5 16.3079 26.4867 16.6128 26.4608 16.914C27.1446 17.3036 27.7563 17.8052 28.271 18.3938C28.4213 17.619 28.5 16.8187 28.5 16C28.5 9.09644 22.9036 3.5 16 3.5C9.09644 3.5 3.5 9.09644 3.5 16C3.5 22.9036 9.09644 28.5 16 28.5C16.8187 28.5 17.619 28.4213 18.3938 28.271C17.5159 27.5032 16.8315 26.5197 16.4234 25.4031C16.2864 25.5912 16.1452 25.7767 16 25.9594C14.6919 24.3138 13.7149 22.4426 13.1105 20.45H16.479C16.7668 19.7146 17.1753 19.0398 17.6803 18.45H12.6369C12.4982 17.6446 12.4185 16.8258 12.4002 16ZM5.5 16C5.5 15.1564 5.59949 14.336 5.78736 13.55H10.6107C10.488 14.3504 10.4172 15.1617 10.4002 15.9792C10.3999 15.9931 10.3999 16.0069 10.4002 16.0208C10.4172 16.8383 10.488 17.6496 10.6107 18.45H5.78736C5.59949 17.664 5.5 16.8436 5.5 16ZM11.0308 11.55H6.48686C7.8511 8.63857 10.5125 6.45609 13.727 5.74669C12.4969 7.51469 11.5861 9.47922 11.0308 11.55ZM13.1105 11.55C13.7149 9.55738 14.6919 7.68621 16 6.04059C17.3081 7.68621 18.2851 9.55738 18.8895 11.55H13.1105ZM11.0308 20.45C11.5861 22.5208 12.4969 24.4853 13.727 26.2533C10.5125 25.5439 7.8511 23.3614 6.48686 20.45H11.0308ZM20.9692 11.55H25.5131C24.1489 8.63857 21.4875 6.45609 18.273 5.74669C19.5031 7.51469 20.4139 9.47922 20.9692 11.55Z" fill="#424242"/>
<path fill-rule="evenodd" clip-rule="evenodd" d="M23 30C26.866 30 30 26.866 30 23C30 19.134 26.866 16 23 16C19.134 16 16 19.134 16 23C16 26.866 19.134 30 23 30ZM19.8447 25.0947C19.5518 25.3876 19.5518 25.8624 19.8447 26.1553C20.1376 26.4482 20.6124 26.4482 20.9053 26.1553L23 24.0607L25.0947 26.1553C25.3876 26.4482 25.8624 26.4482 26.1553 26.1553C26.4482 25.8624 26.4482 25.3876 26.1553 25.0947L24.0607 23L26.1553 20.9053C26.4482 20.6124 26.4482 20.1376 26.1553 19.8447C25.8624 19.5518 25.3876 19.5518 25.0947 19.8447L23 21.9393L20.9053 19.8447C20.6124 19.5518 20.1376 19.5518 19.8447 19.8447C19.5518 20.1376 19.5518 20.6124 19.8447 20.9053L21.9393 23L19.8447 25.0947Z" fill="#424242"/>
<path fill-rule="evenodd" clip-rule="evenodd" d="M3.86729 12.9799C3.98852 12.4913 4.13849 12.014 4.31531 11.55C4.412 11.2963 4.51672 11.0465 4.62916 10.801C6.25298 7.25526 9.48647 4.60055 13.3945 3.77193C13.7084 3.70538 14.0266 3.65061 14.3487 3.60811C14.7129 3.56005 15.082 3.52766 15.4553 3.51165C15.6359 3.50391 15.8175 3.5 16 3.5C16.1825 3.5 16.3641 3.50391 16.5447 3.51165C16.918 3.52766 17.2871 3.56005 17.6513 3.60811C17.9734 3.65061 18.2916 3.70538 18.6055 3.77193C22.5136 4.60055 25.7471 7.25532 27.3709 10.8011C27.4833 11.0466 27.588 11.2963 27.6847 11.55C27.8615 12.014 28.0115 12.4912 28.1327 12.9798C28.1794 13.1682 28.2219 13.3583 28.26 13.55C28.4057 14.2831 28.4873 15.0393 28.4986 15.8125C28.4989 15.8334 28.4992 15.8543 28.4994 15.8752C28.4998 15.9168 28.5 15.9584 28.5 16C28.5 16.1153 28.4984 16.2303 28.4953 16.3449C28.4764 17.0437 28.4001 17.7281 28.271 18.3938C28.9667 19.1891 29.4852 20.1434 29.7651 21.1949C29.9183 21.7708 30 22.3759 30 23C30 26.866 26.866 30 23 30C22.3759 30 21.7708 29.9183 21.1949 29.7651C20.1434 29.4852 19.1891 28.9667 18.3938 28.271C18.1488 28.3186 17.9012 28.3589 17.6513 28.3919C17.2871 28.44 16.918 28.4723 16.5447 28.4883C16.3641 28.4961 16.1825 28.5 16 28.5C15.9584 28.5 15.9168 28.4998 15.8752 28.4994C15.7347 28.498 15.5947 28.4943 15.4553 28.4883C14.7518 28.4582 14.0634 28.3699 13.3947 28.2281C9.48656 27.3995 6.25299 24.7448 4.62914 21.199C4.51671 20.9535 4.412 20.7037 4.31531 20.45C4.1385 19.986 3.98852 19.5087 3.8673 19.0201C3.82056 18.8317 3.77809 18.6417 3.74 18.45C3.58256 17.6577 3.5 16.8385 3.5 16C3.5 15.1615 3.58256 14.3423 3.74 13.55C3.77809 13.3583 3.82055 13.1683 3.86729 12.9799ZM7.71402 22.45C7.36058 21.9966 7.04354 21.5135 6.76729 21.0049C6.66853 20.8231 6.57499 20.6381 6.48686 20.45H11.0308C11.0821 20.6415 11.1365 20.8321 11.194 21.0218C11.1948 21.0247 11.1957 21.0276 11.1966 21.0305C11.4636 21.9106 11.7954 22.7696 12.1893 23.6004C12.5448 24.3501 12.9508 25.0769 13.4053 25.7753C13.51 25.9362 13.6172 26.0955 13.727 26.2533C12.6367 26.0127 11.61 25.6026 10.676 25.0521C9.53182 24.3777 8.5267 23.4925 7.71402 22.45ZM14.0032 22.7578C14.0417 22.8388 14.0809 22.9196 14.1208 23C14.3292 23.4207 14.5556 23.8329 14.7996 24.2355C14.9798 24.5328 15.1696 24.8248 15.3687 25.1111C15.4945 25.2919 15.6241 25.4704 15.7573 25.6465C15.8369 25.7517 15.9178 25.856 16 25.9594C16.1452 25.7767 16.2864 25.5912 16.4234 25.4031C16.1495 24.6537 16 23.8443 16 23C16 22.8554 16.0044 22.7118 16.013 22.5693C16.0155 22.5294 16.0182 22.4897 16.0213 22.45C16.024 22.4146 16.0271 22.3793 16.0303 22.344C16.0919 21.6816 16.2458 21.0459 16.479 20.45H13.1105C13.1278 20.5069 13.1453 20.5637 13.1632 20.6204C13.3595 21.2436 13.5925 21.8545 13.8608 22.45C13.9072 22.5531 13.9547 22.6556 14.0032 22.7578ZM17.6803 18.45C18.2089 17.8325 18.8432 17.3082 19.5551 16.905C19.5667 16.7536 19.5762 16.6019 19.5837 16.45C19.5911 16.3003 19.5965 16.1502 19.5998 16C19.5989 15.9613 19.5979 15.9227 19.5968 15.8841C19.5853 15.4868 19.5595 15.0913 19.5198 14.6982C19.4912 14.4152 19.4553 14.133 19.4124 13.8529C19.3969 13.7517 19.3805 13.6508 19.3631 13.55H12.6369C12.6195 13.6508 12.6031 13.7517 12.5876 13.8529C12.4792 14.5603 12.4162 15.2774 12.4002 16C12.4011 16.0387 12.4021 16.0773 12.4032 16.1159C12.4231 16.7993 12.485 17.4775 12.5876 18.1471C12.6031 18.2483 12.6195 18.3492 12.6369 18.45H17.6803ZM11.0308 11.55C11.0822 11.3583 11.1366 11.1676 11.1941 10.9778C11.1949 10.975 11.1958 10.9723 11.1966 10.9695C11.4636 10.0894 11.7954 9.23035 12.1893 8.39963C12.6267 7.47719 13.1405 6.58961 13.727 5.74669C13.7154 5.74924 13.7038 5.75181 13.6923 5.75441C12.6149 5.99603 11.6001 6.40324 10.676 6.94792C9.53182 7.62232 8.5267 8.50748 7.71402 9.55C7.23423 10.1655 6.82151 10.8358 6.48686 11.55H11.0308ZM14.7996 7.76454C14.4502 8.34096 14.1368 8.93728 13.8608 9.55C13.5681 10.1996 13.3175 10.8677 13.1105 11.55H18.8895C18.8722 11.4931 18.8547 11.4363 18.8368 11.3796C18.6405 10.7564 18.4075 10.1455 18.1392 9.55C17.8632 8.93728 17.5498 8.34096 17.2004 7.76454C17.0202 7.46721 16.8304 7.17517 16.6313 6.88891C16.4303 6.6001 16.2198 6.31716 16 6.04059C15.7802 6.31716 15.5697 6.6001 15.3687 6.88892C15.1696 7.17517 14.9798 7.46721 14.7996 7.76454ZM19.8107 8.39964C19.4552 7.64986 19.0492 6.92312 18.5947 6.22467C18.49 6.06382 18.3828 5.90447 18.273 5.74669C19.3633 5.98731 20.39 6.39739 21.324 6.94792C22.4682 7.62232 23.4733 8.50748 24.286 9.55C24.6394 10.0034 24.9565 10.4865 25.2327 10.9951C25.3315 11.1769 25.425 11.3619 25.5131 11.55H20.9692C20.9175 11.3571 20.8627 11.1651 20.8048 10.9741L20.8034 10.9695C20.5364 10.0894 20.2046 9.23036 19.8107 8.39964ZM21.3893 13.55C21.398 13.6065 21.4064 13.6631 21.4145 13.7198C21.4341 13.8561 21.4522 13.9928 21.4688 14.1297C21.5258 14.6001 21.565 15.0739 21.5859 15.55C21.5918 15.6851 21.5963 15.8204 21.5993 15.9558L21.5994 15.9608C21.5995 15.967 21.5997 15.9731 21.5998 15.9792C21.6001 15.9931 21.6001 16.0069 21.5998 16.0208C21.5997 16.0267 21.5995 16.0326 21.5994 16.0385C21.5987 16.0726 21.5978 16.1066 21.5969 16.1407C21.825 16.0943 22.0571 16.0589 22.2927 16.0353C22.5251 16.012 22.7614 16 23 16C23.2021 16 23.4022 16.0086 23.5999 16.0253C23.9055 16.0513 24.2054 16.0968 24.4985 16.1608C25.1973 16.3132 25.8571 16.57 26.4608 16.914C26.4795 16.6971 26.4916 16.4784 26.4969 16.258C26.499 16.1723 26.5 16.0863 26.5 16C26.5 15.5499 26.4717 15.1064 26.4167 14.6712C26.3687 14.2908 26.3003 13.9166 26.2126 13.55H21.3893ZM23 21.9393L20.9053 19.8447C20.6124 19.5518 20.1376 19.5518 19.8447 19.8447C19.5518 20.1376 19.5518 20.6124 19.8447 20.9053L21.9393 23L19.8447 25.0947C19.5518 25.3876 19.5518 25.8624 19.8447 26.1553C20.1376 26.4482 20.6124 26.4482 20.9053 26.1553L23 24.0607L25.0947 26.1553C25.3876 26.4482 25.8624 26.4482 26.1553 26.1553C26.4482 25.8624 26.4482 25.3876 26.1553 25.0947L24.0607 23L26.1553 20.9053C26.4482 20.6124 26.4482 20.1376 26.1553 19.8447C25.8624 19.5518 25.3876 19.5518 25.0947 19.8447L23 21.9393ZM8.58963 18.45L5.78736 18.45C5.59949 17.664 5.5 16.8436 5.5 16C5.5 15.1845 5.59296 14.3907 5.76887 13.6287C5.77494 13.6024 5.7811 13.5762 5.78736 13.55H10.6107C10.5095 14.2101 10.4436 14.8777 10.4141 15.55C10.4082 15.6851 10.4037 15.8204 10.4007 15.9558L10.4006 15.9615C10.4005 15.9674 10.4003 15.9733 10.4002 15.9792C10.3999 15.9931 10.3999 16.0069 10.4002 16.0208C10.4003 16.0267 10.4005 16.0326 10.4006 16.0385L10.4007 16.0442C10.4037 16.1796 10.4082 16.3149 10.4141 16.45C10.4411 17.0647 10.4985 17.6755 10.5855 18.2802M8.58963 18.45L10.6107 18.45L8.58963 18.45Z" fill="#424242"/>
</svg>
