<svg width="32" height="32" viewBox="0 0 32 32" fill="none" xmlns="http://www.w3.org/2000/svg">
<path fill-rule="evenodd" clip-rule="evenodd" d="M7.4085 7.99744C7.11321 7.73906 6.6941 7.67725 6.33678 7.83938C5.97947 8.00152 5.75 8.35764 5.75 8.75002V22.75C5.75 23.1424 5.97947 23.4985 6.33678 23.6606C6.6941 23.8228 7.11321 23.761 7.4085 23.5026L15.4085 16.5026C15.6255 16.3127 15.75 16.0384 15.75 15.75C15.75 15.4617 15.6255 15.1873 15.4085 14.9974L7.4085 7.99744ZM13.2314 15.75L7.75 20.5462V10.9538L13.2314 15.75ZM18.4085 7.99744C18.1132 7.73906 17.6941 7.67725 17.3368 7.83938C16.9795 8.00152 16.75 8.35764 16.75 8.75002V22.75C16.75 23.1424 16.9795 23.4985 17.3368 23.6606C17.6941 23.8228 18.1132 23.761 18.4085 23.5026L26.4085 16.5026C26.6255 16.3127 26.75 16.0384 26.75 15.75C26.75 15.4617 26.6255 15.1873 26.4085 14.9974L18.4085 7.99744ZM24.2314 15.75L18.75 20.5462V10.9538L24.2314 15.75Z" fill="#538CD8"/>
</svg>
