<svg width="80" height="80" viewBox="0 0 80 80" fill="none" xmlns="http://www.w3.org/2000/svg">
<path fill-rule="evenodd" clip-rule="evenodd" d="M20.8516 15.5C20.8516 12.3796 23.3812 9.84998 26.5016 9.84998H53.5016C56.622 9.84998 59.1516 12.3796 59.1516 15.5V65C59.1516 68.1204 56.622 70.65 53.5016 70.65H26.5016C23.3812 70.65 20.8516 68.1204 20.8516 65V15.5ZM26.5016 12.15C24.6514 12.15 23.1516 13.6498 23.1516 15.5V65C23.1516 66.8501 24.6514 68.35 26.5016 68.35H53.5016C55.3517 68.35 56.8516 66.8501 56.8516 65V15.5C56.8516 13.6498 55.3517 12.15 53.5016 12.15H26.5016ZM33.3208 14.75C33.3208 13.9768 33.9476 13.35 34.7208 13.35H45.7208C46.494 13.35 47.1208 13.9768 47.1208 14.75C47.1208 15.5232 46.494 16.15 45.7208 16.15H34.7208C33.9476 16.15 33.3208 15.5232 33.3208 14.75Z" fill="#424242"/>
<path d="M46.725 34.1794C46.575 34.0294 46.275 33.9544 46.05 34.0294L35.325 36.6544C35.025 36.7294 34.725 37.0294 34.725 37.4044V46.7044C34.275 46.4794 33.75 46.3294 33.15 46.3294C31.425 46.3294 30 47.3794 30 48.7294C30 50.0794 31.35 51.1294 33.15 51.1294C34.8 51.1294 36.45 50.0794 36.225 48.4294V41.0044L45.45 38.8294V44.1544C45 43.9294 44.475 43.7794 43.875 43.7794C42.15 43.7794 40.725 44.8294 40.725 46.1794C40.725 47.5294 42.075 48.5794 43.875 48.5794C45.6 48.5794 47.175 47.4544 46.95 45.8794V37.8544C46.95 37.7794 46.95 37.7044 46.95 37.7044V34.7044C46.95 34.5544 46.875 34.3294 46.725 34.1794ZM33.15 49.7794C32.25 49.7794 31.5 49.2544 31.5 48.8794C31.5 48.5044 32.175 47.9794 33.15 47.9794C33.975 47.9794 34.575 48.3544 34.725 48.7294V48.9544C34.65 49.4044 34.05 49.7794 33.15 49.7794ZM36.3 39.6544V38.0044L45.525 35.7544V37.2544L36.3 39.6544ZM43.875 47.2294C42.975 47.2294 42.225 46.7044 42.225 46.3294C42.225 45.8794 42.9 45.4294 43.875 45.4294C44.7 45.4294 45.3 45.8044 45.45 46.1794V46.3294C45.45 46.4044 45.45 46.4044 45.45 46.4044C45.375 46.7794 44.7 47.2294 43.875 47.2294Z" fill="#424242"/>
<path fill-rule="evenodd" clip-rule="evenodd" d="M35.325 36.6544L46.05 34.0294C46.275 33.9544 46.575 34.0294 46.725 34.1794C46.875 34.3294 46.95 34.5544 46.95 34.7044V45.8794C47.175 47.4544 45.6 48.5794 43.875 48.5794C42.075 48.5794 40.725 47.5294 40.725 46.1794C40.725 44.8294 42.15 43.7794 43.875 43.7794C44.265 43.7794 44.6234 43.8428 44.95 43.949C45.1259 44.0061 45.2925 44.0757 45.45 44.1544V38.8294L36.225 41.0044V48.4294C36.45 50.0794 34.8 51.1294 33.15 51.1294C31.35 51.1294 30 50.0794 30 48.7294C30 47.3794 31.425 46.3294 33.15 46.3294C33.54 46.3294 33.8984 46.3928 34.225 46.499C34.4009 46.5561 34.5675 46.6257 34.725 46.7044V37.4044C34.725 37.0294 35.025 36.7294 35.325 36.6544ZM34.225 45.9767V37.4044C34.225 36.7625 34.7198 36.2903 35.2037 36.1693L35.2061 36.1687L45.9146 33.5478C46.1253 33.483 46.3435 33.4902 46.5281 33.5328C46.7172 33.5765 46.9218 33.6691 47.0786 33.8259C47.3284 34.0758 47.45 34.4307 47.45 34.7044V45.8457C47.5756 46.8204 47.1431 47.6454 46.4614 48.2062C45.7802 48.7665 44.839 49.0794 43.875 49.0794C41.9304 49.0794 40.225 47.9209 40.225 46.1794C40.225 45.315 40.6834 44.5782 41.3521 44.074C42.0191 43.5709 42.9149 43.2794 43.875 43.2794C44.2605 43.2794 44.6191 43.3337 44.95 43.4267V39.461L36.725 41.4002V48.3971C36.8504 49.4109 36.3968 50.2379 35.7015 50.7898C35.0107 51.3381 34.0719 51.6294 33.15 51.6294C31.2054 51.6294 29.5 50.4709 29.5 48.7294C29.5 47.865 29.9584 47.1282 30.6271 46.624C31.2941 46.1209 32.1899 45.8294 33.15 45.8294C33.5355 45.8294 33.8941 45.8837 34.225 45.9767ZM32.2428 49.0401C32.4684 49.1741 32.7932 49.2794 33.15 49.2794C33.5348 49.2794 33.8227 49.1987 34.0053 49.0979C34.1568 49.0143 34.2084 48.9356 34.225 48.8948V48.8585C34.183 48.8059 34.1022 48.731 33.9609 48.6579C33.7648 48.5565 33.4881 48.4794 33.15 48.4794C32.75 48.4794 32.4287 48.5876 32.2207 48.7151C32.1261 48.7731 32.0638 48.8295 32.0276 48.8724C32.0692 48.9187 32.1396 48.9788 32.2428 49.0401ZM31.9948 48.9196C31.9945 48.9205 31.9943 48.9209 31.9943 48.9209L31.9948 48.9196ZM34.725 48.7294C34.575 48.3544 33.975 47.9794 33.15 47.9794C32.175 47.9794 31.5 48.5044 31.5 48.8794C31.5 49.2544 32.25 49.7794 33.15 49.7794C34.05 49.7794 34.65 49.4044 34.725 48.9544V48.7294ZM36.3 39.6544L45.525 37.2544V35.7544L36.3 38.0044V39.6544ZM36.8 39.0077L45.025 36.8679V36.391L36.8 38.3971V39.0077ZM42.9678 46.4901C43.1934 46.6241 43.5182 46.7294 43.875 46.7294C44.1994 46.7294 44.4897 46.6401 44.6972 46.5225C44.8627 46.4288 44.9277 46.3475 44.95 46.3161V46.3085C44.908 46.2559 44.8272 46.181 44.6859 46.1079C44.4898 46.0065 44.2131 45.9294 43.875 45.9294C43.4597 45.9294 43.1371 46.026 42.9354 46.1431C42.8127 46.2143 42.7613 46.2741 42.7399 46.3076C42.7404 46.3082 42.7409 46.3088 42.7414 46.3095C42.781 46.3573 42.8547 46.423 42.9678 46.4901ZM45.45 46.1794C45.3 45.8044 44.7 45.4294 43.875 45.4294C42.9 45.4294 42.225 45.8794 42.225 46.3294C42.225 46.7044 42.975 47.2294 43.875 47.2294C44.7 47.2294 45.375 46.7794 45.45 46.4044V46.1794Z" fill="#424242"/>
</svg>
