<svg width="80" height="80" viewBox="0 0 80 80" fill="none" xmlns="http://www.w3.org/2000/svg">
<path fill-rule="evenodd" clip-rule="evenodd" d="M73 13.3871V7H7V13.3871H9.12903V62.3548H7V67.6774V68.7419V73H15.5161V71.9355C15.5161 70.1748 16.949 68.7419 18.7097 68.7419H61.2903C63.051 68.7419 64.4839 70.1748 64.4839 71.9355V73H73V68.7419V67.6774V62.3548H70.871V13.3871H73ZM9.12903 9.12903H70.871V11.2581H9.12903V9.12903ZM13.4946 70.871H9.12903V68.7419H14.4772C14.0066 69.3636 13.6554 70.08 13.4946 70.871ZM9.12903 66.6129V64.4839H70.871V66.6129H9.12903ZM70.871 70.871H66.5054C66.3446 70.08 65.9934 69.3636 65.5228 68.7419H70.871V70.871ZM68.7419 62.3548H11.2581V13.3871H68.7419V62.3548ZM28.3378 28.7929C28.7284 28.4024 29.3615 28.4024 29.7521 28.7929L47.569 46.6099C47.5696 46.6105 47.5702 46.6111 47.5708 46.6116L51.1334 50.1742C51.5239 50.5648 51.5239 51.1979 51.1334 51.5885C50.7429 51.979 50.1097 51.979 49.7192 51.5885L46.4485 48.3178H33.7964C30.2005 48.3178 27.2075 45.5181 27.2075 41.9725C27.2075 38.6812 29.7864 36.0327 33.0326 35.6696C33.098 35.4836 33.1717 35.3011 33.2532 35.1225L28.3378 30.2071C27.9473 29.8166 27.9473 29.1834 28.3378 28.7929ZM38.4958 33.0869C40.4509 32.4942 42.5985 32.8946 44.1168 34.1008L44.1175 34.1013C45.6244 35.2964 46.2685 37.084 45.887 38.7839C45.8205 39.0802 45.8923 39.3907 46.0821 39.6277C46.2718 39.8648 46.5591 40.0028 46.8627 40.0028H48.0505H48.0506C48.7022 40.0029 49.3378 40.2047 49.8703 40.5803C50.4028 40.956 50.806 41.4872 51.0246 42.1011C51.2432 42.715 51.2665 43.3815 51.0913 44.0092C50.9161 44.6369 50.5509 45.195 50.046 45.6069C49.6181 45.956 49.5542 46.586 49.9033 47.0139C50.2524 47.4418 50.8823 47.5057 51.3103 47.1566C52.1351 46.4838 52.7314 45.5722 53.0176 44.5469C53.3038 43.5217 53.2657 42.433 52.9087 41.4302C52.5516 40.4275 51.893 39.5597 51.0233 38.9461C50.1535 38.3325 49.1152 38.003 48.0507 38.0028H48.0506H47.9924C48.0544 35.9157 47.0891 33.9057 45.3609 32.5348C43.3089 30.9046 40.4753 30.3974 37.9169 31.1725C37.415 31.3232 36.9382 31.5201 36.4909 31.7567C36.0027 32.0149 35.8162 32.62 36.0744 33.1082C36.3326 33.5964 36.9377 33.7829 37.4259 33.5247C37.7598 33.3481 38.1165 33.2007 38.493 33.0877L38.4958 33.0869ZM34.7722 36.8457C34.783 36.7976 34.7945 36.7498 34.8068 36.7022L44.4446 46.3178H33.7964C31.2201 46.3178 29.2075 44.3304 29.2075 41.9725C29.2075 39.6145 31.2201 37.6271 33.7964 37.6271C34.2644 37.6271 34.6699 37.3025 34.7722 36.8457Z" fill="#424242"/>
</svg>
