<svg width="80" height="80" viewBox="0 0 80 80" fill="none" xmlns="http://www.w3.org/2000/svg">
<path fill-rule="evenodd" clip-rule="evenodd" d="M70.096 13.9954C70.6457 13.9424 71.0484 13.4538 70.9954 12.904C70.9424 12.3543 70.4538 11.9516 69.904 12.0046C68.4147 12.1482 67.2001 12.9435 66.4857 13.5236C66.4423 13.5588 66.3801 13.5831 66.3149 13.5856C66.2518 13.5879 66.2149 13.5695 66.1982 13.5565C65.806 13.2507 65.2976 12.882 64.7761 12.5849C64.2983 12.3127 63.6416 12 63 12C62.4477 12 62 12.4477 62 13C62 13.5523 62.4477 14 63 14C63.0784 14 63.3394 14.0682 63.7861 14.3227C64.1893 14.5524 64.6125 14.8562 64.9685 15.1338C65.8151 15.7938 66.9856 15.694 67.7464 15.0762C68.3354 14.5979 69.1785 14.0839 70.096 13.9954ZM27.0841 21.9965C27.6344 21.95 28.0429 21.4663 27.9965 20.9159C27.95 20.3656 27.4663 19.9571 26.9159 20.0036C24.1302 20.2386 21.8856 21.7728 20.8223 22.63C20.7942 22.6527 20.7564 22.6671 20.7178 22.6688C20.6807 22.6705 20.6586 22.6602 20.6476 22.6522C20.035 22.209 19.0957 21.5658 18.1086 21.029C17.1719 20.5197 16.0069 20 15 20C14.4477 20 14 20.4477 14 21C14 21.5523 14.4477 22 15 22C15.4533 22 16.2225 22.28 17.1531 22.786C18.0334 23.2647 18.8948 23.8527 19.4755 24.2727C20.2786 24.8536 21.3526 24.7715 22.0776 24.1871C23.0305 23.4188 24.8923 22.1814 27.0841 21.9965ZM9 48C9 47.4477 9.44772 47 10 47H74C74.5523 47 75 47.4477 75 48C75 48.5523 74.5523 49 74 49H10C9.44772 49 9 48.5523 9 48ZM5 54C5 53.4477 5.44772 53 6 53H20C20.5523 53 21 53.4477 21 54C21 54.5523 20.5523 55 20 55H6C5.44772 55 5 54.5523 5 54ZM54 53C53.4477 53 53 53.4477 53 54C53 54.5523 53.4477 55 54 55H62C62.5523 55 63 54.5523 63 54C63 53.4477 62.5523 53 62 53H54ZM32 54C32 53.4477 32.4477 53 33 53H41C41.5523 53 42 53.4477 42 54C42 54.5523 41.5523 55 41 55H33C32.4477 55 32 54.5523 32 54ZM19 59C18.4477 59 18 59.4477 18 60C18 60.5523 18.4477 61 19 61H35C35.5523 61 36 60.5523 36 60C36 59.4477 35.5523 59 35 59H19ZM56 60C56 59.4477 56.4477 59 57 59H73C73.5523 59 74 59.4477 74 60C74 60.5523 73.5523 61 73 61H57C56.4477 61 56 60.5523 56 60ZM43 65C42.4477 65 42 65.4477 42 66C42 66.5523 42.4477 67 43 67H53C53.5523 67 54 66.5523 54 66C54 65.4477 53.5523 65 53 65H43ZM8 66C8 65.4477 8.44772 65 9 65H19C19.5523 65 20 65.4477 20 66C20 66.5523 19.5523 67 19 67H9C8.44772 67 8 66.5523 8 66ZM55.9958 30.9084C56.0464 31.4583 55.6416 31.9452 55.0917 31.9958C53.1963 32.1703 51.5588 33.3103 50.6572 34.0861C49.9093 34.7296 48.7536 34.82 47.9233 34.1713C47.3773 33.7448 46.6071 33.1796 45.8304 32.7258C45.4422 32.499 45.0702 32.3105 44.7369 32.1811C44.3928 32.0474 44.1489 32 44 32C43.4477 32 43 31.5523 43 31C43 30.4477 43.4477 30 44 30C44.5004 30 45.008 30.1408 45.4611 30.3168C45.925 30.497 46.3957 30.7397 46.8394 30.9989C47.7265 31.5172 48.5764 32.1436 49.1545 32.5952C49.1659 32.6042 49.191 32.617 49.2349 32.6151C49.2805 32.6132 49.3231 32.5955 49.3527 32.5701C50.3581 31.7049 52.3883 30.2362 54.9083 30.0042C55.4583 29.9536 55.9452 30.3584 55.9958 30.9084Z" fill="#424242"/>
</svg>
