<svg width="80" height="80" viewBox="0 0 80 80" fill="none" xmlns="http://www.w3.org/2000/svg">
<path d="M9.4855 44.3575C9.95908 44.6416 10.5733 44.4881 10.8575 44.0145C11.1416 43.5409 10.9881 42.9267 10.5145 42.6425L9.4855 44.3575ZM15.7809 42.3753C15.4359 41.9441 14.8066 41.8741 14.3753 42.2191C13.9441 42.5641 13.8741 43.1934 14.2191 43.6247L15.7809 42.3753ZM27 48C27.5523 48 28 47.5523 28 47C28 46.4477 27.5523 46 27 46V48ZM64.204 47.9569L63.783 47.0498L63.783 47.0498L64.204 47.9569ZM16.1627 47.9531L15.75 48.864L15.75 48.864L16.1627 47.9531ZM10.6336 44.2857L9.90624 44.972L9.90626 44.972L10.6336 44.2857ZM11.0684 38.3295L11.6221 39.1622H11.6221L11.0684 38.3295ZM17.6433 35.5987L17.914 36.5614L17.9141 36.5614L17.6433 35.5987ZM62.3567 35.5987L62.0859 36.5614L62.086 36.5614L62.3567 35.5987ZM68.9316 38.3295L69.4853 37.4968L69.4853 37.4968L68.9316 38.3295ZM6 38C6 36.9449 6.68197 35.7581 8.3469 34.521C9.99308 33.2978 12.4389 32.1539 15.5511 31.1758C21.7637 29.2233 30.4078 28 40 28V26C30.2622 26 21.4064 27.2391 14.9514 29.2678C11.7299 30.2803 9.05006 31.5068 7.15405 32.9156C5.27679 34.3105 4 36.0175 4 38H6ZM40 28C49.5922 28 58.2363 29.2233 64.4489 31.1758C67.5611 32.1539 70.0069 33.2978 71.6531 34.521C73.318 35.7581 74 36.9449 74 38H76C76 36.0175 74.7232 34.3105 72.846 32.9156C70.9499 31.5068 68.2701 30.2803 65.0486 29.2678C58.5936 27.2391 49.7378 26 40 26V28ZM74 38C74 38.359 73.8369 38.8258 73.4541 39.3891C73.0789 39.9413 72.5493 40.5029 71.9589 41.0301C70.7707 42.0913 69.4687 42.8976 69.0528 43.1056L69.9472 44.8944C70.5313 44.6024 71.9793 43.6934 73.2911 42.5219C73.9507 41.9328 74.6086 41.2487 75.1084 40.5131C75.6006 39.7887 76 38.9257 76 38H74ZM10.5145 42.6425C9.25489 41.8867 8.09737 41.1586 7.25092 40.3552C6.41244 39.5594 6 38.8039 6 38H4C4 39.5775 4.83756 40.822 5.87408 41.8058C6.90263 42.7821 8.24511 43.6133 9.4855 44.3575L10.5145 42.6425ZM14.2191 43.6247C14.6711 44.1896 15.406 44.7232 16.2401 45.1974C17.096 45.6841 18.1397 46.1549 19.2875 46.5664C21.5765 47.3869 24.3589 48 27 48V46C24.6411 46 22.0902 45.4464 19.9624 44.6837C18.9019 44.3035 17.9665 43.8784 17.2287 43.4589C16.469 43.0269 15.9956 42.6437 15.7809 42.3753L14.2191 43.6247ZM70 41C70 42.2752 68.7025 44.7666 63.783 47.0498L64.625 48.864C69.7529 46.484 72 43.4834 72 41H70ZM63.783 47.0498C59.009 49.2656 51.3236 51 40 51V53C51.5 53 59.5 51.2426 64.625 48.864L63.783 47.0498ZM40 51C29.191 51 21.4926 49.2701 16.5754 47.0422L15.75 48.864C21 51.2427 29 53 40 53V51ZM16.5754 47.0422C14.1144 45.9272 12.4159 44.7175 11.3609 43.5994L9.90626 44.972C11.1875 46.3299 13.125 47.6746 15.75 48.864L16.5754 47.0422ZM11.361 43.5994C10.2939 42.4685 10 41.5636 10 41H8C8 42.242 8.62438 43.6133 9.90624 44.972L11.361 43.5994ZM10 41C10 40.7848 10.1757 40.124 11.6221 39.1622L10.5147 37.4968C8.89205 38.5758 8 39.7598 8 41H10ZM11.6221 39.1622C12.9958 38.2488 15.1154 37.3485 17.914 36.5614L17.3726 34.636C14.4772 35.4504 12.134 36.42 10.5147 37.4968L11.6221 39.1622ZM17.9141 36.5614C23.4836 34.9949 31.2928 34 40 34V32C31.1634 32 23.1634 33.0073 17.3725 34.6361L17.9141 36.5614ZM40 34C48.7072 34 56.5164 34.9949 62.0859 36.5614L62.6275 34.6361C56.8366 33.0073 48.8366 32 40 32V34ZM62.086 36.5614C64.8846 37.3485 67.0042 38.2488 68.3779 39.1622L69.4853 37.4968C67.866 36.42 65.5228 35.4504 62.6274 34.636L62.086 36.5614ZM68.3779 39.1622C69.8243 40.124 70 40.7848 70 41H72C72 39.7598 71.1079 38.5758 69.4853 37.4968L68.3779 39.1622Z" fill="#FFFAF1"/>
</svg>
