<svg width="80" height="80" viewBox="0 0 80 80" fill="none" xmlns="http://www.w3.org/2000/svg">
<path d="M75.9994 34C78.9995 53 66.9996 69 34.9997 69C13.1516 69 -1.62696 48.8056 15.9997 33C26.4537 23.6261 33.2494 25.7711 44.9997 15C56.9997 4.00004 73.9173 20.8137 75.9994 34Z" fill="#E0921D"/>
<path fill-rule="evenodd" clip-rule="evenodd" d="M8.3469 34.521C6.68197 35.7581 6 36.9449 6 38C6 38.8039 6.41244 39.5594 7.25092 40.3552C7.47934 40.572 7.7304 40.7833 8.00002 40.9912C8.00423 39.7542 8.89589 38.5732 10.5147 37.4968C12.134 36.42 14.4772 35.4504 17.3726 34.636C23.1634 33.0073 31.1634 32 40 32C48.8366 32 56.8366 33.0073 62.6275 34.6361C65.5228 35.4504 67.866 36.42 69.4853 37.4968L68.9316 38.3295L69.4853 37.4968C71.105 38.5738 71.9968 39.7555 72 40.9933C72.5739 40.4767 73.0877 39.9284 73.4541 39.3891C73.8369 38.8258 74 38.359 74 38C74 36.9449 73.318 35.7581 71.6531 34.521C70.0069 33.2978 67.5611 32.1539 64.4489 31.1758C58.2363 29.2233 49.5922 28 40 28C30.4078 28 21.7637 29.2233 15.5511 31.1758C12.4389 32.1539 9.99308 33.2978 8.3469 34.521ZM70.6159 44.5137C71.3285 44.0749 72.3452 43.3666 73.2911 42.5219C73.9507 41.9328 74.6086 41.2487 75.1084 40.5131C75.6006 39.7887 76 38.9257 76 38C76 36.0175 74.7232 34.3105 72.846 32.9156C70.9499 31.5068 68.2701 30.2803 65.0486 29.2678C58.5936 27.2391 49.7378 26 40 26C30.2622 26 21.4064 27.2391 14.9514 29.2678C11.7299 30.2803 9.05006 31.5068 7.15405 32.9156C5.27679 34.3105 4 36.0175 4 38C4 39.5775 4.83756 40.822 5.87408 41.8058C6.84335 42.7258 8.09141 43.517 9.2701 44.2279C9.4604 44.4758 9.67237 44.7241 9.90624 44.972L9.90626 44.972C11.1875 46.3299 13.125 47.6746 15.75 48.864L16.1627 47.9531L15.75 48.864C21 51.2427 29 53 40 53C51.5 53 59.5 51.2426 64.625 48.864C67.4764 47.5406 69.437 46.0253 70.6159 44.5137ZM69.0528 43.1056L69.1001 43.2002C68.2202 44.3745 66.5921 45.7461 63.783 47.0498C59.009 49.2656 51.3236 51 40 51C29.191 51 21.4926 49.2701 16.5754 47.0422C14.1144 45.9272 12.4159 44.7175 11.361 43.5994C11.189 43.4172 11.0371 43.2408 10.9033 43.0708C10.8488 42.9557 10.7718 42.8501 10.6744 42.7614C10.1604 42.019 10 41.4164 10 41C10 40.7848 10.1757 40.124 11.6221 39.1622C12.9958 38.2488 15.1154 37.3485 17.914 36.5614L17.9141 36.5614C23.4836 34.9949 31.2928 34 40 34C48.7072 34 56.5164 34.9949 62.0859 36.5614L62.3538 35.6091L62.086 36.5614C64.8846 37.3485 67.0042 38.2488 68.3779 39.1622C69.8243 40.124 70 40.7848 70 41C70 41.5061 69.7956 42.2039 69.2415 43.0041C69.1667 43.0463 69.1032 43.0803 69.0528 43.1056ZM14.3753 42.2191C14.8066 41.8741 15.4359 41.9441 15.7809 42.3753C15.9956 42.6437 16.469 43.0269 17.2287 43.4589C17.9665 43.8784 18.9019 44.3035 19.9624 44.6837C22.0902 45.4464 24.6411 46 27 46C27.5523 46 28 46.4477 28 47C28 47.5523 27.5523 48 27 48C24.3589 48 21.5765 47.3869 19.2875 46.5664C18.1397 46.1549 17.096 45.6841 16.2401 45.1974C15.406 44.7232 14.6711 44.1896 14.2191 43.6247C13.8741 43.1934 13.9441 42.5641 14.3753 42.2191ZM8.72625 63.581C8.60815 63.5807 8.49191 63.5516 8.38754 63.4963C8.28317 63.4411 8.1938 63.3613 8.12714 63.2638C8.06047 63.1663 8.01852 63.0541 8.00487 62.9367C7.99123 62.8194 8.00632 62.7006 8.04884 62.5904L9.63675 58.4676C9.71283 58.296 9.85224 58.1604 10.0259 58.0891C10.1995 58.0178 10.394 58.0162 10.5688 58.0848C10.7435 58.1534 10.885 58.2868 10.9638 58.4572C11.0426 58.6276 11.0525 58.8218 10.9916 58.9994L9.41095 63.1148C9.35768 63.2529 9.26363 63.3714 9.14131 63.4547C9.019 63.538 8.87422 63.5821 8.72625 63.581ZM21.0084 65.3873H21.1686C21.3323 65.3867 21.491 65.3311 21.6192 65.2294C21.7473 65.1276 21.8375 64.9857 21.8752 64.8264L22.8731 60.6163C22.9156 60.4231 22.8796 60.2209 22.773 60.0543C22.6665 59.8876 22.4981 59.7701 22.3049 59.7276C22.1117 59.6851 21.9096 59.7211 21.7429 59.8276C21.5763 59.9342 21.4588 60.1026 21.4163 60.2958L20.4621 64.5132C20.4405 64.6065 20.4375 64.7031 20.4533 64.7975C20.4691 64.8919 20.5033 64.9823 20.554 65.0635C20.6048 65.1447 20.671 65.215 20.749 65.2706C20.8269 65.3262 20.9151 65.3658 21.0084 65.3873ZM33.7606 66.2832H33.7023C33.5103 66.2683 33.3319 66.1779 33.2063 66.0319C33.0808 65.8858 33.0181 65.6959 33.0322 65.5038L33.3527 61.2427C33.3599 61.147 33.3858 61.0537 33.4291 60.9681C33.4723 60.8825 33.532 60.8062 33.6047 60.7436C33.6774 60.6811 33.7617 60.6334 33.8528 60.6034C33.9439 60.5735 34.0401 60.5617 34.1357 60.5689C34.2314 60.5761 34.3247 60.602 34.4103 60.6453C34.4959 60.6885 34.5722 60.7482 34.6348 60.8209C34.6974 60.8936 34.745 60.9779 34.775 61.069C34.8049 61.1601 34.8167 61.2563 34.8095 61.3519L34.489 65.6131C34.4743 65.796 34.3911 65.9666 34.2561 66.0908C34.1211 66.2151 33.9441 66.2838 33.7606 66.2832ZM45.9018 66.0882C46.037 66.214 46.215 66.2837 46.3996 66.2832H46.4579C46.5537 66.2759 46.647 66.2497 46.7326 66.2061C46.8182 66.1625 46.8943 66.1024 46.9566 66.0294C47.0189 65.9562 47.0661 65.8715 47.0955 65.7801C47.1249 65.6886 47.136 65.5923 47.128 65.4966L46.8075 61.2354C46.793 61.0422 46.7024 60.8627 46.5555 60.7364C46.4087 60.61 46.2177 60.5472 46.0245 60.5617C45.8313 60.5761 45.6518 60.6668 45.5254 60.8136C45.3991 60.9605 45.3362 61.1515 45.3507 61.3447L45.6712 65.6059C45.6841 65.7901 45.7666 65.9625 45.9018 66.0882ZM58.9936 65.3873C58.8252 65.3915 58.6606 65.3371 58.5278 65.2335C58.395 65.1299 58.3022 64.9835 58.2652 64.8192L57.3329 60.6018C57.2904 60.4086 57.3263 60.2064 57.4329 60.0398C57.5394 59.8731 57.7078 59.7556 57.901 59.7131C58.0942 59.6706 58.2964 59.7066 58.463 59.8132C58.6297 59.9197 58.7472 60.0881 58.7897 60.2813L59.7439 64.4987C59.7654 64.592 59.7684 64.6886 59.7527 64.783C59.7369 64.8774 59.7026 64.9678 59.6519 65.049C59.6012 65.1302 59.5349 65.2005 59.457 65.2561C59.379 65.3117 59.2909 65.3513 59.1976 65.3728L58.9936 65.3873ZM70.5232 58.4676L72.1111 62.5903C72.1806 62.7709 72.1756 62.9718 72.097 63.1487C72.0185 63.3256 71.8729 63.464 71.6922 63.5336C71.5116 63.6031 71.3108 63.5981 71.1339 63.5195C70.957 63.441 70.8185 63.2954 70.749 63.1148L69.161 58.992C69.0915 58.8114 69.0966 58.6105 69.1751 58.4336C69.2536 58.2567 69.3993 58.1183 69.5799 58.0487C69.7605 57.9792 69.9614 57.9842 70.1383 58.0628C70.3152 58.1413 70.4536 58.2869 70.5232 58.4676Z" fill="#FFFAF1"/>
</svg>
