<svg width="32" height="32" viewBox="0 0 32 32" fill="none" xmlns="http://www.w3.org/2000/svg">
<path d="M13 9H11C10.4477 9 10 9.44772 10 10V22C10 22.5523 10.4477 23 11 23H13C13.5523 23 14 22.5523 14 22V10C14 9.44772 13.5523 9 13 9Z" stroke="white" stroke-width="2" stroke-linecap="round" stroke-linejoin="round"/>
<path d="M21 9H19C18.4477 9 18 9.44772 18 10V22C18 22.5523 18.4477 23 19 23H21C21.5523 23 22 22.5523 22 22V10C22 9.44772 21.5523 9 21 9Z" stroke="white" stroke-width="2" stroke-linecap="round" stroke-linejoin="round"/>
</svg>
