<svg width="32" height="32" viewBox="0 0 32 32" fill="none" xmlns="http://www.w3.org/2000/svg">
<path fill-rule="evenodd" clip-rule="evenodd" d="M25.0915 23.5026C25.3868 23.7609 25.8059 23.8228 26.1632 23.6606C26.5205 23.4985 26.75 23.1424 26.75 22.75V8.74998C26.75 8.35761 26.5205 8.00149 26.1632 7.83935C25.8059 7.67722 25.3868 7.73903 25.0915 7.99741L17.0915 14.9974C16.8745 15.1873 16.75 15.4616 16.75 15.75C16.75 16.0383 16.8745 16.3127 17.0915 16.5026L25.0915 23.5026ZM19.2686 15.75L24.75 10.9538V20.5462L19.2686 15.75ZM14.0915 23.5026C14.3868 23.7609 14.8059 23.8228 15.1632 23.6606C15.5205 23.4985 15.75 23.1424 15.75 22.75V8.74998C15.75 8.35761 15.5205 8.00149 15.1632 7.83935C14.8059 7.67722 14.3868 7.73903 14.0915 7.99741L6.0915 14.9974C5.87448 15.1873 5.75 15.4616 5.75 15.75C5.75 16.0383 5.87448 16.3127 6.0915 16.5026L14.0915 23.5026ZM8.26859 15.75L13.75 10.9538V20.5462L8.26859 15.75Z" fill="#538CD8"/>
</svg>
