<svg width="80" height="80" viewBox="0 0 80 80" fill="none" xmlns="http://www.w3.org/2000/svg">
<mask id="path-1-outside-1_3616_23465" maskUnits="userSpaceOnUse" x="10" y="17" width="59" height="46" fill="black">
<rect fill="white" x="10" y="17" width="59" height="46"/>
<path fill-rule="evenodd" clip-rule="evenodd" d="M11.3431 27.4818L11.3369 27.4876L11.3373 27.4757C10.9114 27.8748 10.8839 28.5383 11.283 28.9642C11.676 29.396 12.3514 29.4239 12.7774 29.0247C13.9321 27.9654 15.2245 27.0888 16.5833 26.1671L16.6667 26.1105L17.4869 25.5506L20.3387 23.9913C20.4667 23.9176 20.5948 23.844 20.6739 23.8046L22.7494 22.9264C26.6126 21.37 30.4552 20.4473 34.18 20.2032C38.1208 19.9421 42.0723 20.2739 45.8674 21.1812L48.7383 21.9807L51.7766 23.1568C51.8421 23.1849 51.9077 23.2102 51.9674 23.2333C52.0313 23.2579 52.0884 23.28 52.1311 23.2999L54.6455 24.5727L54.793 24.646L54.7931 24.646L54.7934 24.6462C55.0235 24.7603 55.2433 24.8694 55.4226 24.969L58.5363 26.9555L60.2873 28.3291C60.5273 28.5028 60.7606 28.6852 60.9897 28.8749C60.8524 28.8605 60.7144 28.8472 60.5753 28.8353C59.3444 28.7714 58.1066 28.7371 56.8977 28.7338C56.3051 28.7325 55.8348 29.208 55.8339 29.7886C55.8326 30.3811 56.3082 30.8514 56.8887 30.8523C58.0618 30.8545 59.2637 30.8875 60.4229 30.9491C61.3734 31.0296 62.3315 31.1914 63.3368 31.3613L63.5982 31.4054L63.9584 31.4702C64.3198 31.5613 64.7184 31.4623 64.9831 31.175C65.0065 31.1504 65.0285 31.125 65.049 31.0988C65.1171 31.0123 65.1697 30.9178 65.2071 30.8191C65.2226 30.778 65.2355 30.7361 65.2457 30.6938C65.2826 30.5416 65.286 30.3813 65.2525 30.2261L65.1697 29.8284C64.9315 28.6835 64.6826 27.5023 64.3211 26.2875C63.8962 24.9928 63.4236 23.6966 62.9267 22.4116C62.7169 21.8661 62.1033 21.5948 61.5578 21.8045C61.4243 21.86 61.3144 21.9283 61.2156 22.0209L61.2275 22.0212C60.9251 22.3047 60.8027 22.7556 60.9627 23.1738C61.4488 24.4225 61.9045 25.6883 62.3135 26.9166C62.355 27.0561 62.3952 27.1965 62.4342 27.3375C62.1478 27.0962 61.8541 26.8642 61.551 26.6464L59.7942 25.2666C59.7711 25.2419 59.7124 25.2041 59.7124 25.2041L56.4931 23.1543C56.1992 22.9892 55.893 22.8356 55.5868 22.682L55.5867 22.682L53.031 21.3899C52.9001 21.3287 52.7613 21.2747 52.6269 21.2225L52.6264 21.2223C52.5916 21.2087 52.5571 21.1953 52.523 21.1819L49.4493 19.9928C49.4138 19.9796 49.3486 19.9596 49.3486 19.9596L46.3886 19.1392C42.3501 18.1701 38.1899 17.8136 34.0331 18.0916C30.0861 18.3584 26.0267 19.3219 21.939 20.9728L19.7964 21.8908L19.7963 21.8908C19.632 21.9752 19.4677 22.0597 19.3091 22.1503L16.4207 23.7324C16.3902 23.7493 16.3351 23.7894 16.3351 23.7894L15.4782 24.3721C14.0831 25.3084 12.6387 26.291 11.3431 27.4818ZM67.7674 52.4624L67.7613 52.4682C66.4657 53.6591 65.0212 54.6416 63.6262 55.5779L62.7693 56.1606C62.7693 56.1606 62.7142 56.2007 62.6837 56.2176L59.7953 57.7997C59.6368 57.8903 59.4725 57.9747 59.3083 58.0591L59.308 58.0592L57.1654 58.9772C53.0777 60.6281 49.0183 61.5916 45.0713 61.8584C40.9145 62.1364 36.7543 61.7799 32.7158 60.8108L29.7558 59.9904C29.7558 59.9904 29.6906 59.9704 29.6551 59.9572L26.5813 58.7681C26.5603 58.7598 26.5391 58.7515 26.5178 58.7432C26.5044 58.738 26.4909 58.7328 26.4774 58.7275L26.4773 58.7275C26.343 58.6752 26.2043 58.6213 26.0734 58.5601L23.5177 57.268C23.2115 57.1145 22.9052 56.9609 22.6113 56.7957L19.3919 54.7459C19.3919 54.7459 19.3333 54.7081 19.3102 54.6834L17.5534 53.3036C17.2503 53.0858 16.9566 52.8538 16.6702 52.6125C16.7092 52.7535 16.7494 52.8939 16.7909 53.0334C17.1999 54.2617 17.6556 55.5275 18.1417 56.7762C18.3017 57.1944 18.1793 57.6453 17.8769 57.9288L17.8888 57.9291C17.79 58.0217 17.6801 58.09 17.5466 58.1455C17.0011 58.3552 16.3875 58.0839 16.1777 57.5384C15.6808 56.2534 15.2082 54.9572 14.7833 53.6625C14.4218 52.4477 14.1728 51.2665 13.9347 50.1216L13.8518 49.7239C13.7861 49.419 13.8625 49.0944 14.0559 48.8506C14.0763 48.8246 14.0981 48.7994 14.1213 48.775C14.386 48.4877 14.7846 48.3887 15.1459 48.4798L15.5062 48.5446C15.5936 48.5594 15.6807 48.5741 15.7675 48.5887C16.7728 48.7586 17.7309 48.9204 18.6815 49.0009C19.8407 49.0625 21.0426 49.0955 22.2157 49.0977C22.7962 49.0986 23.2718 49.5689 23.2705 50.1614C23.2696 50.742 22.7992 51.2175 22.2067 51.2162C20.9978 51.2129 19.76 51.1786 18.5291 51.1147C18.39 51.1028 18.252 51.0895 18.1146 51.0751C18.3438 51.2648 18.5771 51.4472 18.8171 51.6209L20.5681 52.9945L23.6818 54.981C23.8613 55.0807 24.0812 55.1898 24.3115 55.3041L24.4589 55.3773L26.9733 56.6501C27.016 56.67 27.073 56.692 27.1369 56.7167L27.137 56.7167C27.1966 56.7398 27.2623 56.7651 27.3278 56.7932L30.3661 57.9693L33.237 58.7688C37.0321 59.6761 40.9836 60.0079 44.9244 59.7468C48.6492 59.5027 52.4918 58.5801 56.355 57.0236L58.4305 56.1454C58.5096 56.106 58.6377 56.0324 58.7657 55.9587L61.6175 54.3994L62.4377 53.8395L62.5212 53.7829C63.8799 52.8612 65.1723 51.9846 66.327 50.9253C66.753 50.5261 67.4284 50.554 67.8214 50.9858C68.2205 51.4117 68.193 52.0752 67.7671 52.4743L67.7674 52.4624Z"/>
</mask>
<path fill-rule="evenodd" clip-rule="evenodd" d="M11.3431 27.4818L11.3369 27.4876L11.3373 27.4757C10.9114 27.8748 10.8839 28.5383 11.283 28.9642C11.676 29.396 12.3514 29.4239 12.7774 29.0247C13.9321 27.9654 15.2245 27.0888 16.5833 26.1671L16.6667 26.1105L17.4869 25.5506L20.3387 23.9913C20.4667 23.9176 20.5948 23.844 20.6739 23.8046L22.7494 22.9264C26.6126 21.37 30.4552 20.4473 34.18 20.2032C38.1208 19.9421 42.0723 20.2739 45.8674 21.1812L48.7383 21.9807L51.7766 23.1568C51.8421 23.1849 51.9077 23.2102 51.9674 23.2333C52.0313 23.2579 52.0884 23.28 52.1311 23.2999L54.6455 24.5727L54.793 24.646L54.7931 24.646L54.7934 24.6462C55.0235 24.7603 55.2433 24.8694 55.4226 24.969L58.5363 26.9555L60.2873 28.3291C60.5273 28.5028 60.7606 28.6852 60.9897 28.8749C60.8524 28.8605 60.7144 28.8472 60.5753 28.8353C59.3444 28.7714 58.1066 28.7371 56.8977 28.7338C56.3051 28.7325 55.8348 29.208 55.8339 29.7886C55.8326 30.3811 56.3082 30.8514 56.8887 30.8523C58.0618 30.8545 59.2637 30.8875 60.4229 30.9491C61.3734 31.0296 62.3315 31.1914 63.3368 31.3613L63.5982 31.4054L63.9584 31.4702C64.3198 31.5613 64.7184 31.4623 64.9831 31.175C65.0065 31.1504 65.0285 31.125 65.049 31.0988C65.1171 31.0123 65.1697 30.9178 65.2071 30.8191C65.2226 30.778 65.2355 30.7361 65.2457 30.6938C65.2826 30.5416 65.286 30.3813 65.2525 30.2261L65.1697 29.8284C64.9315 28.6835 64.6826 27.5023 64.3211 26.2875C63.8962 24.9928 63.4236 23.6966 62.9267 22.4116C62.7169 21.8661 62.1033 21.5948 61.5578 21.8045C61.4243 21.86 61.3144 21.9283 61.2156 22.0209L61.2275 22.0212C60.9251 22.3047 60.8027 22.7556 60.9627 23.1738C61.4488 24.4225 61.9045 25.6883 62.3135 26.9166C62.355 27.0561 62.3952 27.1965 62.4342 27.3375C62.1478 27.0962 61.8541 26.8642 61.551 26.6464L59.7942 25.2666C59.7711 25.2419 59.7124 25.2041 59.7124 25.2041L56.4931 23.1543C56.1992 22.9892 55.893 22.8356 55.5868 22.682L55.5867 22.682L53.031 21.3899C52.9001 21.3287 52.7613 21.2747 52.6269 21.2225L52.6264 21.2223C52.5916 21.2087 52.5571 21.1953 52.523 21.1819L49.4493 19.9928C49.4138 19.9796 49.3486 19.9596 49.3486 19.9596L46.3886 19.1392C42.3501 18.1701 38.1899 17.8136 34.0331 18.0916C30.0861 18.3584 26.0267 19.3219 21.939 20.9728L19.7964 21.8908L19.7963 21.8908C19.632 21.9752 19.4677 22.0597 19.3091 22.1503L16.4207 23.7324C16.3902 23.7493 16.3351 23.7894 16.3351 23.7894L15.4782 24.3721C14.0831 25.3084 12.6387 26.291 11.3431 27.4818ZM67.7674 52.4624L67.7613 52.4682C66.4657 53.6591 65.0212 54.6416 63.6262 55.5779L62.7693 56.1606C62.7693 56.1606 62.7142 56.2007 62.6837 56.2176L59.7953 57.7997C59.6368 57.8903 59.4725 57.9747 59.3083 58.0591L59.308 58.0592L57.1654 58.9772C53.0777 60.6281 49.0183 61.5916 45.0713 61.8584C40.9145 62.1364 36.7543 61.7799 32.7158 60.8108L29.7558 59.9904C29.7558 59.9904 29.6906 59.9704 29.6551 59.9572L26.5813 58.7681C26.5603 58.7598 26.5391 58.7515 26.5178 58.7432C26.5044 58.738 26.4909 58.7328 26.4774 58.7275L26.4773 58.7275C26.343 58.6752 26.2043 58.6213 26.0734 58.5601L23.5177 57.268C23.2115 57.1145 22.9052 56.9609 22.6113 56.7957L19.3919 54.7459C19.3919 54.7459 19.3333 54.7081 19.3102 54.6834L17.5534 53.3036C17.2503 53.0858 16.9566 52.8538 16.6702 52.6125C16.7092 52.7535 16.7494 52.8939 16.7909 53.0334C17.1999 54.2617 17.6556 55.5275 18.1417 56.7762C18.3017 57.1944 18.1793 57.6453 17.8769 57.9288L17.8888 57.9291C17.79 58.0217 17.6801 58.09 17.5466 58.1455C17.0011 58.3552 16.3875 58.0839 16.1777 57.5384C15.6808 56.2534 15.2082 54.9572 14.7833 53.6625C14.4218 52.4477 14.1728 51.2665 13.9347 50.1216L13.8518 49.7239C13.7861 49.419 13.8625 49.0944 14.0559 48.8506C14.0763 48.8246 14.0981 48.7994 14.1213 48.775C14.386 48.4877 14.7846 48.3887 15.1459 48.4798L15.5062 48.5446C15.5936 48.5594 15.6807 48.5741 15.7675 48.5887C16.7728 48.7586 17.7309 48.9204 18.6815 49.0009C19.8407 49.0625 21.0426 49.0955 22.2157 49.0977C22.7962 49.0986 23.2718 49.5689 23.2705 50.1614C23.2696 50.742 22.7992 51.2175 22.2067 51.2162C20.9978 51.2129 19.76 51.1786 18.5291 51.1147C18.39 51.1028 18.252 51.0895 18.1146 51.0751C18.3438 51.2648 18.5771 51.4472 18.8171 51.6209L20.5681 52.9945L23.6818 54.981C23.8613 55.0807 24.0812 55.1898 24.3115 55.3041L24.4589 55.3773L26.9733 56.6501C27.016 56.67 27.073 56.692 27.1369 56.7167L27.137 56.7167C27.1966 56.7398 27.2623 56.7651 27.3278 56.7932L30.3661 57.9693L33.237 58.7688C37.0321 59.6761 40.9836 60.0079 44.9244 59.7468C48.6492 59.5027 52.4918 58.5801 56.355 57.0236L58.4305 56.1454C58.5096 56.106 58.6377 56.0324 58.7657 55.9587L61.6175 54.3994L62.4377 53.8395L62.5212 53.7829C63.8799 52.8612 65.1723 51.9846 66.327 50.9253C66.753 50.5261 67.4284 50.554 67.8214 50.9858C68.2205 51.4117 68.193 52.0752 67.7671 52.4743L67.7674 52.4624Z" fill="#424242"/>
<path fill-rule="evenodd" clip-rule="evenodd" d="M11.3431 27.4818L11.3369 27.4876L11.3373 27.4757C10.9114 27.8748 10.8839 28.5383 11.283 28.9642C11.676 29.396 12.3514 29.4239 12.7774 29.0247C13.9321 27.9654 15.2245 27.0888 16.5833 26.1671L16.6667 26.1105L17.4869 25.5506L20.3387 23.9913C20.4667 23.9176 20.5948 23.844 20.6739 23.8046L22.7494 22.9264C26.6126 21.37 30.4552 20.4473 34.18 20.2032C38.1208 19.9421 42.0723 20.2739 45.8674 21.1812L48.7383 21.9807L51.7766 23.1568C51.8421 23.1849 51.9077 23.2102 51.9674 23.2333C52.0313 23.2579 52.0884 23.28 52.1311 23.2999L54.6455 24.5727L54.793 24.646L54.7931 24.646L54.7934 24.6462C55.0235 24.7603 55.2433 24.8694 55.4226 24.969L58.5363 26.9555L60.2873 28.3291C60.5273 28.5028 60.7606 28.6852 60.9897 28.8749C60.8524 28.8605 60.7144 28.8472 60.5753 28.8353C59.3444 28.7714 58.1066 28.7371 56.8977 28.7338C56.3051 28.7325 55.8348 29.208 55.8339 29.7886C55.8326 30.3811 56.3082 30.8514 56.8887 30.8523C58.0618 30.8545 59.2637 30.8875 60.4229 30.9491C61.3734 31.0296 62.3315 31.1914 63.3368 31.3613L63.5982 31.4054L63.9584 31.4702C64.3198 31.5613 64.7184 31.4623 64.9831 31.175C65.0065 31.1504 65.0285 31.125 65.049 31.0988C65.1171 31.0123 65.1697 30.9178 65.2071 30.8191C65.2226 30.778 65.2355 30.7361 65.2457 30.6938C65.2826 30.5416 65.286 30.3813 65.2525 30.2261L65.1697 29.8284C64.9315 28.6835 64.6826 27.5023 64.3211 26.2875C63.8962 24.9928 63.4236 23.6966 62.9267 22.4116C62.7169 21.8661 62.1033 21.5948 61.5578 21.8045C61.4243 21.86 61.3144 21.9283 61.2156 22.0209L61.2275 22.0212C60.9251 22.3047 60.8027 22.7556 60.9627 23.1738C61.4488 24.4225 61.9045 25.6883 62.3135 26.9166C62.355 27.0561 62.3952 27.1965 62.4342 27.3375C62.1478 27.0962 61.8541 26.8642 61.551 26.6464L59.7942 25.2666C59.7711 25.2419 59.7124 25.2041 59.7124 25.2041L56.4931 23.1543C56.1992 22.9892 55.893 22.8356 55.5868 22.682L55.5867 22.682L53.031 21.3899C52.9001 21.3287 52.7613 21.2747 52.6269 21.2225L52.6264 21.2223C52.5916 21.2087 52.5571 21.1953 52.523 21.1819L49.4493 19.9928C49.4138 19.9796 49.3486 19.9596 49.3486 19.9596L46.3886 19.1392C42.3501 18.1701 38.1899 17.8136 34.0331 18.0916C30.0861 18.3584 26.0267 19.3219 21.939 20.9728L19.7964 21.8908L19.7963 21.8908C19.632 21.9752 19.4677 22.0597 19.3091 22.1503L16.4207 23.7324C16.3902 23.7493 16.3351 23.7894 16.3351 23.7894L15.4782 24.3721C14.0831 25.3084 12.6387 26.291 11.3431 27.4818ZM67.7674 52.4624L67.7613 52.4682C66.4657 53.6591 65.0212 54.6416 63.6262 55.5779L62.7693 56.1606C62.7693 56.1606 62.7142 56.2007 62.6837 56.2176L59.7953 57.7997C59.6368 57.8903 59.4725 57.9747 59.3083 58.0591L59.308 58.0592L57.1654 58.9772C53.0777 60.6281 49.0183 61.5916 45.0713 61.8584C40.9145 62.1364 36.7543 61.7799 32.7158 60.8108L29.7558 59.9904C29.7558 59.9904 29.6906 59.9704 29.6551 59.9572L26.5813 58.7681C26.5603 58.7598 26.5391 58.7515 26.5178 58.7432C26.5044 58.738 26.4909 58.7328 26.4774 58.7275L26.4773 58.7275C26.343 58.6752 26.2043 58.6213 26.0734 58.5601L23.5177 57.268C23.2115 57.1145 22.9052 56.9609 22.6113 56.7957L19.3919 54.7459C19.3919 54.7459 19.3333 54.7081 19.3102 54.6834L17.5534 53.3036C17.2503 53.0858 16.9566 52.8538 16.6702 52.6125C16.7092 52.7535 16.7494 52.8939 16.7909 53.0334C17.1999 54.2617 17.6556 55.5275 18.1417 56.7762C18.3017 57.1944 18.1793 57.6453 17.8769 57.9288L17.8888 57.9291C17.79 58.0217 17.6801 58.09 17.5466 58.1455C17.0011 58.3552 16.3875 58.0839 16.1777 57.5384C15.6808 56.2534 15.2082 54.9572 14.7833 53.6625C14.4218 52.4477 14.1728 51.2665 13.9347 50.1216L13.8518 49.7239C13.7861 49.419 13.8625 49.0944 14.0559 48.8506C14.0763 48.8246 14.0981 48.7994 14.1213 48.775C14.386 48.4877 14.7846 48.3887 15.1459 48.4798L15.5062 48.5446C15.5936 48.5594 15.6807 48.5741 15.7675 48.5887C16.7728 48.7586 17.7309 48.9204 18.6815 49.0009C19.8407 49.0625 21.0426 49.0955 22.2157 49.0977C22.7962 49.0986 23.2718 49.5689 23.2705 50.1614C23.2696 50.742 22.7992 51.2175 22.2067 51.2162C20.9978 51.2129 19.76 51.1786 18.5291 51.1147C18.39 51.1028 18.252 51.0895 18.1146 51.0751C18.3438 51.2648 18.5771 51.4472 18.8171 51.6209L20.5681 52.9945L23.6818 54.981C23.8613 55.0807 24.0812 55.1898 24.3115 55.3041L24.4589 55.3773L26.9733 56.6501C27.016 56.67 27.073 56.692 27.1369 56.7167L27.137 56.7167C27.1966 56.7398 27.2623 56.7651 27.3278 56.7932L30.3661 57.9693L33.237 58.7688C37.0321 59.6761 40.9836 60.0079 44.9244 59.7468C48.6492 59.5027 52.4918 58.5801 56.355 57.0236L58.4305 56.1454C58.5096 56.106 58.6377 56.0324 58.7657 55.9587L61.6175 54.3994L62.4377 53.8395L62.5212 53.7829C63.8799 52.8612 65.1723 51.9846 66.327 50.9253C66.753 50.5261 67.4284 50.554 67.8214 50.9858C68.2205 51.4117 68.193 52.0752 67.7671 52.4743L67.7674 52.4624Z" stroke="#424242" stroke-width="0.8" mask="url(#path-1-outside-1_3616_23465)"/>
</svg>
