<svg width="80" height="80" viewBox="0 0 80 80" fill="none" xmlns="http://www.w3.org/2000/svg">
<path fill-rule="evenodd" clip-rule="evenodd" d="M73 7V13.3871H70.871V62.3548H73V67.6774V68.7419V73H64.4839V71.9355C64.4839 70.1748 63.051 68.7419 61.2903 68.7419H18.7097C16.949 68.7419 15.5161 70.1748 15.5161 71.9355V73H7V68.7419V67.6774V62.3548H9.12903V13.3871H7V7H73ZM70.871 9.12903H9.12903V11.2581H70.871V9.12903ZM9.12903 70.871H13.4946C13.6554 70.08 14.0066 69.3636 14.4772 68.7419H9.12903V70.871ZM9.12903 64.4839V66.6129H70.871V64.4839H9.12903ZM66.5054 70.871H70.871V68.7419H65.5228C65.9934 69.3636 66.3446 70.08 66.5054 70.871ZM11.2581 62.3548H68.7419V13.3871H11.2581V62.3548ZM26.25 15.5163H53.9274V60.226H26.25V15.5163ZM28.379 58.097H51.7984V17.6453H28.379V58.097ZM47.5404 21.9032H32.6372V53.8386H47.5404V21.9032ZM45.4113 24.0322V26.1612H34.7662V24.0322H45.4113ZM34.7662 43.1935V41.0645H45.4113V43.1935H34.7662ZM45.4113 45.3225V47.4516H34.7662V45.3225H45.4113ZM34.7662 38.9354V36.8064H45.4113V38.9354H34.7662ZM34.7662 34.6774V32.5483H45.4113V34.6774H34.7662ZM34.7662 30.4193V28.2903H45.4113V30.4193H34.7662ZM34.7662 51.7096V49.5806H45.4113V51.7096H34.7662ZM29.444 33.6127H31.573V42.1288H29.444V33.6127Z" fill="#424242"/>
</svg>
