<svg width="80" height="80" viewBox="0 0 80 80" fill="none" xmlns="http://www.w3.org/2000/svg">
<path fill-rule="evenodd" clip-rule="evenodd" d="M50.3528 34.0311C50.1438 36.2851 49.1545 38.4068 47.5407 40.0207C47.3973 40.164 47.25 40.3024 47.0989 40.4358L47.0839 40.449C46.9682 40.5507 46.8504 40.6495 46.7305 40.7452L46.6879 40.779L50.2606 46.9527L50.2605 46.9527L46.6878 40.779C46.9851 40.5443 47.27 40.2913 47.5406 40.0207C49.2823 38.2789 50.2965 35.9456 50.3876 33.493C50.3921 33.3726 50.3943 33.252 50.3943 33.1311H50.3944C50.3944 33.252 50.3922 33.3726 50.3877 33.493L50.3872 33.5069C50.3804 33.6823 50.3689 33.8571 50.3528 34.0311ZM42.262 33.1311L40.5805 30.2255L40.5805 30.2256L42.2619 33.1311H42.262ZM46.5046 40.4624C46.5046 40.4624 46.5046 40.4624 46.5046 40.4624L42.4713 33.493H42.4714L46.5046 40.4624ZM49.0382 34.393H44.0321L46.7266 39.0491C47.9721 37.7706 48.7755 36.1392 49.0382 34.393ZM40.8658 33.493H40.8657V42.5101C40.8658 42.5101 40.8658 42.5101 40.8658 42.5101V33.493ZM41.7658 34.793V41.539C42.9175 41.3864 44.0226 40.9989 45.0134 40.4048L41.7658 34.793ZM40.8658 42.8733L40.8658 42.8721L40.8741 42.8719C40.8713 42.872 40.8685 42.872 40.8657 42.8721V46.5908H40.8658L40.8658 42.8733ZM46.3974 40.9996L46.3973 40.9996C45.5166 41.6428 44.5366 42.1317 43.4996 42.4488C44.2501 42.2193 44.9707 41.8999 45.6455 41.4971C45.749 41.4352 45.8515 41.3715 45.9529 41.3057C45.9861 41.2842 46.0192 41.2624 46.0522 41.2404C46.1689 41.1628 46.2839 41.0825 46.3974 40.9996ZM41.7658 45.6908V43.7159C43.3021 43.5542 44.779 43.0604 46.0963 42.2761L48.0724 45.6908H41.7658ZM31.2586 46.5908L34.6855 40.8347C34.6855 40.8347 34.6854 40.8347 34.6854 40.8347L31.2585 46.5908H31.2586ZM40.4977 42.8732L40.4983 42.8732L40.5001 42.8733C40.4993 42.8733 40.4985 42.8732 40.4977 42.8732ZM34.9634 42.1273C36.3597 43.0101 37.9483 43.5592 39.604 43.7228V45.6908H32.8418L34.9634 42.1273ZM35.3023 40.8384L35.2751 40.8195C35.1504 40.7323 35.0277 40.642 34.9071 40.5485L34.8721 40.5213L39.0564 33.493H39.0563L34.872 40.5213C35.7889 41.2383 36.8278 41.7756 37.9332 42.1103C36.9973 41.8269 36.1091 41.3984 35.3023 40.8384ZM39.9658 42.4875C39.9936 42.4896 40.0214 42.4915 40.0492 42.4933C40.035 42.4923 40.0208 42.4914 40.0067 42.4904C39.993 42.4895 39.9794 42.4885 39.9658 42.4875ZM40.5039 42.5114C40.4813 42.5111 40.4588 42.5106 40.4364 42.5101L40.5039 42.5114ZM36.0698 40.2688C37.1346 40.9522 38.3421 41.3907 39.604 41.5477L39.604 34.393H39.568L36.0698 40.2688ZM31.2767 33.493H31.2766C31.3674 35.8496 32.3435 38.0909 34.0173 39.7648C34.201 39.9485 34.3915 40.1238 34.5883 40.2904L34.5883 40.2903C34.4871 40.2046 34.3875 40.1166 34.2897 40.0264C34.253 39.9925 34.2166 39.9583 34.1803 39.9238C34.1255 39.8715 34.0712 39.8185 34.0174 39.7648C33.9832 39.7305 33.9492 39.696 33.9155 39.6613C32.5149 38.2167 31.6229 36.3677 31.3549 34.393C31.3386 34.2728 31.3246 34.1522 31.3129 34.0311C31.2957 33.8526 31.2836 33.6731 31.2767 33.493ZM37.052 34.393H32.264C32.5138 36.0529 33.2521 37.6091 34.3943 38.8571L37.052 34.393ZM39.2718 33.1311L40.576 30.9404L40.576 30.9403L39.2717 33.1311H39.2718ZM51.0396 46.5019L47.8425 40.9774C47.9561 40.8733 48.0677 40.7665 48.1771 40.6571C50.0797 38.7544 51.1876 36.2056 51.2871 33.5264C51.292 33.3949 51.2944 33.2632 51.2944 33.1311C51.2944 32.6341 50.8915 32.2311 50.3944 32.2311H42.781L41.3595 29.7747C41.1996 29.4984 40.9053 29.3275 40.5861 29.3255C40.2669 29.3235 39.9705 29.4908 39.8072 29.7651L38.339 32.2311H30.9078C30.4108 32.2311 30.0078 32.6341 30.0078 33.1311C30.0078 33.2632 30.0103 33.3949 30.0151 33.5264C30.1146 36.2056 31.2225 38.7544 33.1252 40.6571C33.1664 40.6983 33.2079 40.7391 33.2497 40.7796L29.9411 46.337C29.8018 46.5711 29.7759 46.8557 29.8709 47.1111C29.9659 47.3665 30.1714 47.5651 30.4298 47.6512L30.8958 47.8065C30.9875 47.8371 31.0836 47.8527 31.1804 47.8527H50.2606C50.5823 47.8527 50.8796 47.681 51.0403 47.4023C51.201 47.1236 51.2007 46.7804 51.0396 46.5019ZM26.5001 9.85C23.3797 9.85 20.8501 12.3796 20.8501 15.5V65C20.8501 68.1204 23.3797 70.65 26.5001 70.65H53.5001C56.6205 70.65 59.1501 68.1204 59.1501 65V15.5C59.1501 12.3796 56.6205 9.85 53.5001 9.85H26.5001ZM23.1501 15.5C23.1501 13.6498 24.6499 12.15 26.5001 12.15H53.5001C55.3503 12.15 56.8501 13.6498 56.8501 15.5V65C56.8501 66.8502 55.3503 68.35 53.5001 68.35H26.5001C24.6499 68.35 23.1501 66.8502 23.1501 65V15.5ZM34.7193 13.35C33.9461 13.35 33.3193 13.9768 33.3193 14.75C33.3193 15.5232 33.9461 16.15 34.7193 16.15H45.7193C46.4925 16.15 47.1193 15.5232 47.1193 14.75C47.1193 13.9768 46.4925 13.35 45.7193 13.35H34.7193ZM54.4574 69.6535C56.6219 69.2106 58.2501 67.2954 58.2501 65V15.5C58.2501 12.883 56.1338 10.7604 53.5193 10.75C56.1337 10.7604 58.25 12.8831 58.25 15.5V65C58.25 67.2954 56.6218 69.2105 54.4574 69.6535ZM26.5001 11.25C24.1529 11.25 22.2501 13.1528 22.2501 15.5V65C22.2501 66.9438 23.555 68.5828 25.3366 69.0888C23.555 68.5828 22.25 66.9438 22.25 65V15.5C22.25 13.1528 24.1528 11.25 26.5 11.25H53.5C53.5 11.25 53.5001 11.25 53.5001 11.25H26.5001ZM34.7161 15.25C34.7171 15.25 34.7182 15.25 34.7193 15.25L34.7192 15.25C34.7182 15.25 34.7171 15.25 34.7161 15.25ZM45.7192 15.25L45.7193 15.25C45.9955 15.25 46.2193 15.0261 46.2193 14.75C46.2193 14.4739 45.9955 14.25 45.7193 14.25L45.7192 14.25C45.9954 14.25 46.2192 14.4739 46.2192 14.75C46.2192 15.0261 45.9954 15.25 45.7192 15.25Z" fill="#424242"/>
</svg>
