<svg width="80" height="80" viewBox="0 0 80 80" fill="none" xmlns="http://www.w3.org/2000/svg">
<path d="M77.0005 42.5C68.4258 60.0071 61.6819 56.3998 45.2634 73.2446C30.0677 88.8347 2.4122 53.1853 1.34757 44.9637C-0.329946 32.0091 15.7497 1.30702 40.6172 1.86706C56.2809 2.21983 85.5752 24.9929 77.0005 42.5Z" fill="#DECAFF"/>
<path fill-rule="evenodd" clip-rule="evenodd" d="M73 13.3871V7H7V13.3871H9.12903V62.3548H7V67.6774V68.7419V73H15.5161V71.9355C15.5161 70.1748 16.949 68.7419 18.7097 68.7419H61.2903C63.051 68.7419 64.4839 70.1748 64.4839 71.9355V73H73V68.7419V67.6774V62.3548H70.871V13.3871H73ZM9.12903 9.12903H70.871V11.2581H9.12903V9.12903ZM13.4946 70.871H9.12903V68.7419H14.4772C14.0066 69.3636 13.6554 70.08 13.4946 70.871ZM9.12903 66.6129V64.4839H70.871V66.6129H9.12903ZM70.871 70.871H66.5054C66.3446 70.08 65.9934 69.3636 65.5228 68.7419H70.871V70.871ZM68.7419 62.3548H11.2581V13.3871H68.7419V62.3548ZM38.9788 48.9415C38.9788 48.3892 39.4266 47.9415 39.9788 47.9415H39.9922C40.5445 47.9415 40.9922 48.3892 40.9922 48.9415C40.9922 49.4938 40.5445 49.9415 39.9922 49.9415H39.9788C39.4266 49.9415 38.9788 49.4938 38.9788 48.9415ZM36.6934 45.6563C37.5649 44.7851 38.7467 44.2957 39.9789 44.2957C41.2111 44.2957 42.3929 44.7851 43.2644 45.6563C43.6549 46.0467 44.2881 46.0466 44.6786 45.6561C45.069 45.2655 45.0689 44.6323 44.6784 44.2418C43.4318 42.9957 41.7414 42.2957 39.9789 42.2957C38.2163 42.2957 36.5259 42.9957 35.2794 44.2418C34.8888 44.6323 34.8887 45.2655 35.2792 45.6561C35.6697 46.0466 36.3028 46.0467 36.6934 45.6563ZM39.9788 38.647C38.6269 38.647 37.2882 38.9133 36.0393 39.4306C34.7903 39.948 33.6555 40.7063 32.6996 41.6623C32.309 42.0528 31.6759 42.0528 31.2853 41.6623C30.8948 41.2718 30.8948 40.6386 31.2853 40.2481C32.4269 39.1064 33.7823 38.2008 35.2739 37.5829C36.7655 36.965 38.3642 36.647 39.9788 36.647C41.5933 36.647 43.1921 36.965 44.6837 37.5829C46.1753 38.2008 47.5306 39.1064 48.6723 40.2481C49.0628 40.6386 49.0628 41.2718 48.6722 41.6623C48.2817 42.0528 47.6485 42.0528 47.258 41.6623C46.3021 40.7063 45.1673 39.948 43.9183 39.4306C42.6693 38.9133 41.3307 38.647 39.9788 38.647ZM28.7072 37.6697C34.9309 31.4447 45.026 31.4414 51.2951 37.672C51.6868 38.0613 52.32 38.0594 52.7093 37.6676C53.0986 37.2759 53.0966 36.6427 52.7049 36.2534C45.6583 29.2501 34.3001 29.2469 27.2928 36.2557C26.9023 36.6462 26.9024 37.2794 27.293 37.6699C27.6835 38.0604 28.3167 38.0603 28.7072 37.6697Z" fill="#424242"/>
</svg>
