<svg width="32" height="32" viewBox="0 0 32 32" fill="none" xmlns="http://www.w3.org/2000/svg">
<path fill-rule="evenodd" clip-rule="evenodd" d="M13.5688 6.62026C13.966 6.22311 14.5046 6 15.0662 6C15.6279 6 16.1665 6.22311 16.5637 6.62026C16.9608 7.0174 17.1839 7.55604 17.1839 8.11769V17.763C17.1839 18.071 17.3258 18.3618 17.5685 18.5513C18.2359 19.0723 18.724 19.7887 18.9647 20.6005C19.2054 21.4123 19.1867 22.2789 18.9112 23.0795C18.6357 23.8802 18.1171 24.5748 17.4278 25.0666C16.7385 25.5583 15.9129 25.8226 15.0662 25.8226C14.2195 25.8226 13.3939 25.5583 12.7047 25.0666C12.0154 24.5748 11.4968 23.8802 11.2213 23.0795C10.9458 22.2789 10.9271 21.4123 11.1678 20.6005C11.4084 19.7887 11.8965 19.0723 12.5639 18.5513C12.8067 18.3618 12.9486 18.071 12.9486 17.763V8.11769C12.9486 7.55604 13.1717 7.0174 13.5688 6.62026ZM15.0662 4C13.9742 4 12.9268 4.43383 12.1546 5.20604C11.3824 5.97826 10.9486 7.02561 10.9486 8.11769V17.3017C10.1495 18.0403 9.56135 18.9827 9.25026 20.0319C8.89119 21.243 8.91912 22.5359 9.33015 23.7303C9.74119 24.9248 10.5148 25.9611 11.5431 26.6947C12.5714 27.4283 13.8031 27.8226 15.0662 27.8226C16.3294 27.8226 17.5611 27.4283 18.5894 26.6947C19.6177 25.9611 20.3913 24.9248 20.8023 23.7303C21.2134 22.5359 21.2413 21.243 20.8822 20.0319C20.5711 18.9827 19.983 18.0403 19.1839 17.3017V8.11769C19.1839 7.02561 18.7501 5.97826 17.9779 5.20604C17.2057 4.43383 16.1583 4 15.0662 4ZM15.0661 7.11769C15.6184 7.11769 16.0661 7.56541 16.0661 8.11769V18.9828C17.2025 19.3923 18.0149 20.48 18.0149 21.7575C18.0149 23.386 16.6948 24.7061 15.0664 24.7061C13.4379 24.7061 12.1178 23.386 12.1178 21.7575C12.1178 20.4802 12.93 19.3926 14.0661 18.983V8.11769C14.0661 7.56541 14.5138 7.11769 15.0661 7.11769ZM15.0661 20.809L15.0599 20.809C14.539 20.8125 14.1178 21.2358 14.1178 21.7575C14.1178 22.2814 14.5425 22.7061 15.0664 22.7061C15.5902 22.7061 16.0149 22.2814 16.0149 21.7575C16.0149 21.2356 15.5934 20.8121 15.0721 20.809L15.0661 20.809ZM22.6508 9.6639C22.2633 9.6639 21.8796 9.74028 21.5216 9.88866C21.1637 10.037 20.8385 10.2545 20.5647 10.5287C20.1744 10.9194 20.1747 11.5526 20.5654 11.9429C20.9562 12.3332 21.5894 12.3328 21.9797 11.9421C22.0678 11.8539 22.1724 11.7839 22.2875 11.7362C22.4027 11.6885 22.5261 11.6639 22.6508 11.6639C22.7754 11.6639 22.8989 11.6885 23.014 11.7362C23.1292 11.7839 23.2338 11.8539 23.3219 11.9421C23.5957 12.2162 23.9209 12.4337 24.2788 12.5821C24.6368 12.7305 25.0205 12.8069 25.408 12.8069C25.7955 12.8069 26.1791 12.7305 26.5371 12.5821C26.895 12.4337 27.2202 12.2162 27.4941 11.9421C27.8844 11.5514 27.884 10.9182 27.4933 10.5279C27.1025 10.1376 26.4694 10.1379 26.0791 10.5287C25.991 10.6169 25.8864 10.6868 25.7712 10.7346C25.6561 10.7823 25.5326 10.8069 25.408 10.8069C25.2833 10.8069 25.1599 10.7823 25.0447 10.7346C24.9296 10.6868 24.825 10.6169 24.7369 10.5287C24.463 10.2545 24.1378 10.037 23.7799 9.88866C23.4219 9.74028 23.0383 9.6639 22.6508 9.6639ZM21.5216 13.7857C21.8796 13.6374 22.2633 13.561 22.6508 13.561C23.0383 13.561 23.4219 13.6374 23.7799 13.7857C24.1378 13.9341 24.463 14.1516 24.7369 14.4258C24.825 14.514 24.9296 14.5839 25.0447 14.6317C25.1599 14.6794 25.2833 14.704 25.408 14.704C25.5326 14.704 25.6561 14.6794 25.7712 14.6317C25.8864 14.5839 25.991 14.514 26.0791 14.4258C26.4694 14.035 27.1025 14.0347 27.4933 14.425C27.884 14.8153 27.8844 15.4484 27.4941 15.8392C27.2202 16.1133 26.895 16.3308 26.5371 16.4792C26.1791 16.6276 25.7955 16.704 25.408 16.704C25.0205 16.704 24.6368 16.6276 24.2788 16.4792C23.9209 16.3308 23.5957 16.1133 23.3219 15.8392C23.2338 15.751 23.1292 15.681 23.014 15.6333C22.8989 15.5856 22.7754 15.561 22.6508 15.561C22.5261 15.561 22.4027 15.5856 22.2875 15.6333C22.1724 15.681 22.0678 15.751 21.9797 15.8392C21.5894 16.2299 20.9562 16.2303 20.5654 15.84C20.1747 15.4497 20.1744 14.8165 20.5647 14.4258C20.8385 14.1516 21.1637 13.9341 21.5216 13.7857Z" fill="#424242"/>
</svg>
