<svg width="32" height="32" viewBox="0 0 32 32" fill="none" xmlns="http://www.w3.org/2000/svg">
<path d="M4.91452 22.393L9.45455 16.8802L13.9946 22.393C14.1301 22.5577 14.3322 22.653 14.5454 22.653H21.9657L27.2405 26.1695C27.5684 26.3881 28.0115 26.2995 28.2301 25.9716C28.4487 25.6436 28.3601 25.2006 28.0322 24.9819L22.5776 21.3456L22.3835 21.6368L22.5776 21.3456C22.4604 21.2674 22.3227 21.2257 22.1818 21.2257H14.8822L10.0054 15.3039C9.71996 14.9573 9.18913 14.9573 8.90367 15.3039L3.81277 21.4857L4.08153 21.707L3.81277 21.4857C3.56222 21.7899 3.60574 22.2397 3.90998 22.4903C4.21423 22.7408 4.66397 22.6973 4.91452 22.393ZM6.19546 10.303C6.19546 12.103 7.6546 13.5621 9.45455 13.5621C11.2545 13.5621 12.7136 12.103 12.7136 10.303C12.7136 8.50309 11.2545 7.04395 9.45455 7.04395C7.6546 7.04395 6.19546 8.50309 6.19546 10.303ZM11.2864 10.303C11.2864 11.3147 10.4662 12.1348 9.45455 12.1348C8.44286 12.1348 7.62273 11.3147 7.62273 10.303C7.62273 9.29135 8.44286 8.47122 9.45455 8.47122C10.4662 8.47122 11.2864 9.29135 11.2864 10.303ZM3.65001 25.5757C3.65001 25.9699 3.96952 26.2894 4.36365 26.2894H21.0909C21.485 26.2894 21.8045 25.9699 21.8045 25.5757C21.8045 25.1816 21.485 24.8621 21.0909 24.8621H4.36365C3.96952 24.8621 3.65001 25.1816 3.65001 25.5757Z" fill="#424242" stroke="#424242" stroke-width="0.7" stroke-linecap="round" stroke-linejoin="round"/>
<path d="M19.2919 9.82551L19.2874 9.81435L19.2812 9.80404C19.1945 9.65951 19.108 9.54467 18.9703 9.37943L18.9707 9.37904L18.9611 9.36939C18.8183 9.22661 18.6072 9.15731 18.3976 9.19225L18.3975 9.19204L18.3897 9.19378C18.071 9.26459 17.8539 9.58187 17.9228 9.90772L17.948 10.0839C17.9497 10.1137 17.9565 10.1413 17.9621 10.1612C17.9692 10.1861 17.9783 10.2123 17.9868 10.236C17.989 10.2422 17.9912 10.2483 17.9934 10.2544C18.009 10.298 18.0233 10.3378 18.0333 10.3775C18.0388 10.3995 18.0439 10.4194 18.0487 10.4377C18.0698 10.5191 18.0829 10.5696 18.0829 10.6386V10.6493L18.0844 10.6598C18.1098 10.8381 18.1072 11.0012 18.0635 11.1322L18.0592 11.145L18.0573 11.1584C18.033 11.3285 17.9853 11.4728 17.8862 11.6462L17.8857 11.646L17.8803 11.6578L17.5557 12.3611L17.5557 12.3611L17.5548 12.3631C17.4453 12.6094 17.3312 12.8931 17.2738 13.2087C17.2198 13.5052 17.1618 13.8479 17.1907 14.1947C17.2478 14.8798 17.5606 15.5042 17.9302 15.9306L17.9299 15.9308L17.9375 15.9384C18.095 16.096 18.3452 16.2185 18.6108 16.1079C18.9209 16.001 19.0949 15.6632 19.005 15.3499V15.3454V15.3182L18.9955 15.2928C18.835 14.8649 18.7366 14.4844 18.7612 14.1393C18.7865 13.8113 18.8877 13.4512 19.0982 13.0034C19.2075 12.7846 19.318 12.5365 19.4017 12.2862C19.5111 12.0119 19.6258 11.6438 19.6272 11.2941C19.6551 10.9465 19.5965 10.6032 19.4842 10.2666C19.4542 10.1764 19.4171 10.0952 19.3827 10.023C19.3755 10.008 19.3686 9.9935 19.3619 9.97947C19.3351 9.92369 19.3116 9.87488 19.2919 9.82551Z" fill="#424242" stroke="#424242" stroke-width="0.3"/>
<path d="M24.5492 12.2955L24.5493 12.2956L24.5514 12.2903C24.6613 12.0156 24.7772 11.6455 24.7786 11.2941C24.8065 10.9465 24.7478 10.6032 24.6356 10.2666C24.6055 10.1764 24.5685 10.0952 24.5341 10.023C24.5269 10.008 24.52 9.9935 24.5132 9.97948C24.4864 9.92369 24.463 9.87488 24.4432 9.82551L24.4388 9.81435L24.4326 9.80404C24.3459 9.65951 24.2593 9.54467 24.1216 9.37943L24.1221 9.37904L24.1125 9.36939C23.9697 9.22661 23.7586 9.15731 23.5489 9.19225L23.5489 9.19204L23.5411 9.19378C23.2224 9.26459 23.0053 9.58187 23.0742 9.90772L23.0994 10.0839C23.101 10.1137 23.1079 10.1413 23.1135 10.1612C23.1205 10.1861 23.1297 10.2123 23.1382 10.236C23.1404 10.2422 23.1426 10.2483 23.1448 10.2544C23.1604 10.298 23.1747 10.3378 23.1846 10.3775C23.1901 10.3995 23.1953 10.4194 23.2 10.4377C23.2211 10.5191 23.2342 10.5696 23.2342 10.6386V10.6493L23.2357 10.6598C23.2612 10.8381 23.2586 11.0012 23.2149 11.1322L23.2106 11.145L23.2087 11.1584C23.1844 11.3285 23.1367 11.4728 23.0376 11.6462L23.0371 11.646L23.0316 11.6578L22.707 12.3611L22.707 12.3611L22.7062 12.3631C22.5967 12.6094 22.4825 12.8931 22.4251 13.2087C22.3712 13.5051 22.3132 13.8476 22.342 14.1942C22.3991 14.9078 22.7128 15.5051 23.0815 15.9306L23.0812 15.9308L23.0888 15.9384C23.2464 16.096 23.4965 16.2185 23.7622 16.1079C24.0723 16.001 24.2463 15.6632 24.1564 15.3499V15.3454V15.3182L24.1469 15.2928C23.9863 14.8647 23.8879 14.4841 23.9126 14.1388C23.9378 13.7849 24.0386 13.4518 24.2503 13.0018L24.2508 13.002L24.2551 12.9906C24.3343 12.7792 24.4405 12.5401 24.5492 12.2955Z" fill="#424242" stroke="#424242" stroke-width="0.3"/>
<path d="M29.7006 12.2955L29.7007 12.2956L29.7028 12.2903C29.8127 12.0156 29.9286 11.6455 29.9299 11.2941C29.9579 10.9465 29.8992 10.6032 29.787 10.2666C29.7569 10.1764 29.7198 10.0952 29.6854 10.023C29.6783 10.008 29.6713 9.9935 29.6646 9.97947C29.6378 9.92369 29.6143 9.87488 29.5946 9.82551L29.5901 9.81435L29.584 9.80404C29.4972 9.65951 29.4107 9.54467 29.273 9.37943L29.2735 9.37904L29.2638 9.36939C29.1211 9.22661 28.9099 9.15731 28.7003 9.19225L28.7003 9.19204L28.6924 9.19378C28.3738 9.26459 28.1567 9.58187 28.2256 9.90772L28.2507 10.0839C28.2524 10.1137 28.2593 10.1413 28.2649 10.1612C28.2719 10.1861 28.2811 10.2123 28.2895 10.236C28.2917 10.2422 28.2939 10.2483 28.2961 10.2544C28.3118 10.298 28.3261 10.3378 28.336 10.3775C28.3415 10.3995 28.3466 10.4194 28.3514 10.4377C28.3725 10.5191 28.3856 10.5696 28.3856 10.6386V10.6493L28.3871 10.6598C28.4126 10.8381 28.4099 11.0012 28.3663 11.1322L28.362 11.145L28.3601 11.1584C28.3358 11.3285 28.2881 11.4728 28.189 11.6462L28.1885 11.646L28.183 11.6578L27.8584 12.3611L27.8584 12.3611L27.8575 12.3631C27.748 12.6094 27.6339 12.8931 27.5765 13.2087C27.5226 13.5052 27.4646 13.8479 27.4935 14.1947C27.5505 14.8798 27.8634 15.5042 28.2329 15.9306L28.2326 15.9308L28.2402 15.9384C28.3977 16.096 28.6479 16.2185 28.9135 16.1079C29.2236 16.001 29.3976 15.6632 29.3078 15.3499V15.3454V15.3182L29.2982 15.2928C29.1378 14.8649 29.0394 14.4844 29.0639 14.1393C29.0892 13.8109 29.1906 13.4503 29.4017 13.0018L29.4021 13.002L29.4064 12.9906C29.4857 12.7792 29.5919 12.5401 29.7006 12.2955Z" fill="#424242" stroke="#424242" stroke-width="0.3"/>
</svg>
