<svg width="33" height="32" viewBox="0 0 33 32" fill="none" xmlns="http://www.w3.org/2000/svg">
<path d="M16.5 20V16M16.5 12H16.51M6.5 12.5227V19.4773C6.5 19.7218 6.5 19.8441 6.52763 19.9592C6.55213 20.0613 6.59253 20.1588 6.64736 20.2483C6.7092 20.3492 6.79568 20.4357 6.96863 20.6086L11.8914 25.5314C12.0643 25.7043 12.1508 25.7908 12.2517 25.8526C12.3412 25.9075 12.4387 25.9479 12.5408 25.9724C12.6559 26 12.7782 26 13.0227 26H19.9773C20.2218 26 20.3441 26 20.4592 25.9724C20.5613 25.9479 20.6588 25.9075 20.7483 25.8526C20.8492 25.7908 20.9357 25.7043 21.1086 25.5314L26.0314 20.6086C26.2043 20.4357 26.2908 20.3492 26.3526 20.2483C26.4075 20.1588 26.4479 20.0613 26.4724 19.9592C26.5 19.8441 26.5 19.7218 26.5 19.4773V12.5227C26.5 12.2782 26.5 12.1559 26.4724 12.0408C26.4479 11.9387 26.4075 11.8412 26.3526 11.7517C26.2908 11.6508 26.2043 11.5643 26.0314 11.3914L21.1086 6.46863C20.9357 6.29568 20.8492 6.2092 20.7483 6.14736C20.6588 6.09253 20.5613 6.05213 20.4592 6.02763C20.3441 6 20.2218 6 19.9773 6H13.0227C12.7782 6 12.6559 6 12.5408 6.02763C12.4387 6.05213 12.3412 6.09253 12.2517 6.14736C12.1508 6.2092 12.0643 6.29568 11.8914 6.46863L6.96863 11.3914C6.79568 11.5643 6.7092 11.6508 6.64736 11.7517C6.59253 11.8412 6.55213 11.9387 6.52763 12.0408C6.5 12.1559 6.5 12.2782 6.5 12.5227Z" stroke="#757575" stroke-width="2" stroke-linecap="round" stroke-linejoin="round"/>
</svg>
