<svg width="80" height="80" viewBox="0 0 80 80" fill="none" xmlns="http://www.w3.org/2000/svg">
<path d="M77.001 42.5C68.4263 60.0071 61.6824 56.3998 45.2639 73.2446C30.0681 88.8347 2.41269 53.1853 1.34806 44.9637C-0.329457 32.0091 15.7502 1.30702 40.6177 1.86706C56.2814 2.21983 85.5757 24.9929 77.001 42.5Z" fill="#7F56C1"/>
<path d="M73 13.3871V7H7V13.3871H9.12903V62.3548H7V67.6774V68.7419V73H15.5161V71.9355C15.5161 70.1748 16.949 68.7419 18.7097 68.7419H61.2903C63.051 68.7419 64.4839 70.1748 64.4839 71.9355V73H73V68.7419V67.6774V62.3548H70.871V13.3871H73ZM9.12903 9.12903H70.871V11.2581H9.12903V9.12903ZM13.4946 70.871H9.12903V68.7419H14.4772C14.0066 69.3636 13.6554 70.08 13.4946 70.871ZM9.12903 66.6129V64.4839H70.871V66.6129H9.12903ZM70.871 70.871H66.5054C66.3446 70.08 65.9934 69.3636 65.5228 68.7419H70.871V70.871ZM68.7419 62.3548H11.2581V13.3871H68.7419V62.3548Z" fill="#FFFAF1"/>
<path d="M39.9785 48.9415H39.9918" stroke="#FFFAF1" stroke-width="2" stroke-linecap="round" stroke-linejoin="round"/>
<path d="M35.9863 44.9491C37.0453 43.8904 38.4814 43.2957 39.9788 43.2957C41.4762 43.2957 42.9123 43.8904 43.9713 44.9491" stroke="#FFFAF1" stroke-width="2" stroke-linecap="round" stroke-linejoin="round"/>
<path d="M31.9922 40.9552C33.041 39.9064 34.286 39.0744 35.6563 38.5068C37.0266 37.9392 38.4953 37.647 39.9785 37.647C41.4618 37.647 42.9304 37.9392 44.3007 38.5068C45.6711 39.0744 46.9161 39.9064 47.9649 40.9552" stroke="#FFFAF1" stroke-width="2" stroke-linecap="round" stroke-linejoin="round"/>
<path d="M28 36.9627C34.6155 30.3458 45.3421 30.3458 52 36.9627" stroke="#FFFAF1" stroke-width="2" stroke-linecap="round" stroke-linejoin="round"/>
</svg>
