<svg width="80" height="80" viewBox="0 0 80 80" fill="none" xmlns="http://www.w3.org/2000/svg">
<path fill-rule="evenodd" clip-rule="evenodd" d="M58.096 12.9954C58.6457 12.9424 59.0484 12.4538 58.9954 11.904C58.9424 11.3543 58.4538 10.9516 57.904 11.0046C56.4147 11.1482 55.2001 11.9435 54.4857 12.5236C54.4423 12.5588 54.3801 12.5831 54.315 12.5856C54.2518 12.5879 54.2149 12.5695 54.1982 12.5565C53.806 12.2507 53.2976 11.882 52.7761 11.5849C52.2983 11.3127 51.6416 11 51 11C50.4477 11 50 11.4477 50 12C50 12.5523 50.4477 13 51 13C51.0784 13 51.3394 13.0682 51.7861 13.3227C52.1893 13.5524 52.6125 13.8562 52.9685 14.1338C53.8151 14.7938 54.9856 14.694 55.7464 14.0762C56.3354 13.5979 57.1785 13.0839 58.096 12.9954ZM72.0841 27.9965C72.6344 27.95 73.0429 27.4663 72.9965 26.9159C72.95 26.3656 72.4663 25.9571 71.9159 26.0036C71.1864 26.0651 70.5689 26.3421 70.1312 26.6016C69.9583 26.7042 69.7851 26.6782 69.7196 26.6374C69.5005 26.5009 69.2396 26.3524 68.9715 26.235C68.7256 26.1274 68.3731 26 68 26C67.4477 26 67 26.4477 67 27C67 27.5455 67.4367 27.9889 67.9795 27.9998L67.986 28.0012L68.0001 28.0047L68.004 28.0058C68.0417 28.0161 68.0968 28.0354 68.1694 28.0672C68.3166 28.1316 68.4875 28.2262 68.6621 28.3349C69.4632 28.8341 70.4459 28.7402 71.1513 28.3219C71.4305 28.1564 71.7541 28.0243 72.0841 27.9965ZM14.9954 22.904C15.0484 23.4538 14.6457 23.9424 14.096 23.9954C13.1785 24.0839 12.3354 24.5979 11.7464 25.0762C10.9856 25.694 9.8151 25.7938 8.96852 25.1338C8.61248 24.8562 8.18926 24.5524 7.78611 24.3227C7.33936 24.0682 7.07845 24 7 24C6.44772 24 6 23.5523 6 23C6 22.4477 6.44772 22 7 22C7.6416 22 8.29826 22.3127 8.77611 22.5849C9.29757 22.882 9.806 23.2507 10.1982 23.5565C10.2149 23.5695 10.2518 23.5879 10.315 23.5856C10.3801 23.5831 10.4423 23.5588 10.4857 23.5236C11.2001 22.9435 12.4147 22.1482 13.904 22.0046C14.4538 21.9516 14.9424 22.3543 14.9954 22.904ZM37.8995 31.2299C38.6417 29.8876 39.2743 28.5576 39.8046 27.2939V39.0012C39.8046 39.0209 39.8052 39.0405 39.8063 39.06L30.6732 40.2777C33.7828 37.6484 36.1551 34.3846 37.8995 31.2299ZM27.1372 40.4253C26.9902 40.5212 26.8767 40.6493 26.7999 40.7942L25.7302 40.9368C24.1699 41.1449 23.4503 42.9904 24.4581 44.1996L27.1265 47.4018C23.3597 47.2345 19.8411 45.9871 17.1343 43.8625L16.8084 43.6067C16.6272 43.4644 16.3722 43.4644 16.191 43.6067L15.8651 43.8625C12.9508 46.1504 9.09384 47.4211 5 47.4211C4.86723 47.4211 4.73991 47.4739 4.64611 47.5679C4.55232 47.6618 4.49975 47.7893 4.5 47.922L4.50145 48.6824C4.50197 48.9581 4.72567 49.1814 5.00144 49.1814C9.2539 49.1814 13.3061 47.9455 16.5012 45.6702C19.6959 47.9451 23.7477 49.1814 28.001 49.1814C32.2534 49.1814 36.3056 47.9455 39.5007 45.6702C42.6954 47.9451 46.7472 49.1814 51.0005 49.1814C55.2538 49.1814 59.3051 47.9455 62.5003 45.6702C65.6949 47.9451 69.7467 49.1814 74 49.1814C74.1327 49.1814 74.2599 49.1287 74.3537 49.0348C74.4474 48.941 74.5001 48.8137 74.5 48.6811L74.4995 47.9208C74.4993 47.6447 74.2755 47.4211 73.9995 47.4211H73.9967C69.9029 47.4211 66.0468 46.1503 63.1319 43.8625L62.8061 43.6067C62.6249 43.4644 62.3699 43.4644 62.1886 43.6067L61.8628 43.8625C59.4343 45.769 56.3513 46.9691 53.0222 47.3163L57.6825 39.9929C58.5951 38.5588 57.4159 36.7121 55.7308 36.9367L51.3904 37.5155C52.5551 33.4576 51.0796 29.7023 48.892 26.7371C46.632 23.674 43.5161 21.308 41.3163 20.0482C41.2377 20.0013 41.152 19.9648 41.0613 19.9408C40.9774 19.9185 40.892 19.9075 40.8071 19.9074C40.3374 19.9042 39.9163 20.2338 39.8208 20.7114C39.3887 22.8721 38.2256 26.5069 36.1492 30.2621C34.0729 34.0171 31.1187 37.8287 27.1372 40.4253ZM50.6747 47.4184C50.697 47.2941 50.7434 47.1719 50.8154 47.0587L55.9952 38.9192L25.9945 42.9193L29.358 46.9554C29.4591 47.0768 29.5266 47.215 29.5615 47.3589C33.0667 47.0783 36.3234 45.8569 38.8638 43.8625L39.1896 43.6067C39.3709 43.4644 39.6259 43.4644 39.8071 43.6067L40.1329 43.8625C42.971 46.0901 46.7014 47.3534 50.6747 47.4184ZM41.8046 22.722V38.7936L49.3146 37.7922C49.2918 37.6412 49.3035 37.4827 49.3551 37.3279C50.4789 33.9565 49.3426 30.7166 47.2826 27.9245C45.6901 25.766 43.6034 23.9631 41.8046 22.722ZM37.5 57.0936C37.5 56.8368 37.3054 56.6217 37.0499 56.5961C34.3471 56.3249 31.8469 55.3562 29.8818 53.8138L29.618 53.6067C29.4368 53.4644 29.1818 53.4644 29.0005 53.6067L28.7368 53.8138C26.396 55.6515 23.2949 56.6742 20 56.6742C19.8672 56.6742 19.7399 56.727 19.6461 56.821C19.5523 56.915 19.4997 57.0424 19.5 57.1752L19.5012 57.7907C19.5017 58.0664 19.7254 58.2897 20.0012 58.2897C23.4372 58.2897 26.7151 57.2982 29.3105 55.4688C31.4826 56.9998 34.1328 57.9439 36.9528 58.2112C37.093 58.2245 37.2323 58.178 37.3365 58.0833C37.4406 57.9885 37.5 57.8542 37.5 57.7134V57.0936ZM69.5 62.0936C69.5 61.8368 69.3054 61.6217 69.0499 61.5961C66.3471 61.3249 63.8469 60.3562 61.8818 58.8138L61.618 58.6067C61.4368 58.4644 61.1818 58.4644 61.0005 58.6067L60.7368 58.8138C58.396 60.6515 55.2949 61.6742 52 61.6742C51.8672 61.6742 51.7399 61.727 51.6461 61.821C51.5523 61.915 51.4997 62.0424 51.5 62.1752L51.5012 62.7907C51.5017 63.0664 51.7254 63.2897 52.0012 63.2897C55.4372 63.2897 58.7151 62.2982 61.3105 60.4688C63.4826 61.9998 66.1328 62.9439 68.9528 63.2112C69.093 63.2245 69.2323 63.178 69.3365 63.0833C69.4406 62.9885 69.5 62.8542 69.5 62.7134V62.0936ZM50.5 69.0936C50.5 68.8368 50.3054 68.6217 50.0499 68.5961C47.3471 68.3249 44.8469 67.3562 42.8818 65.8138L42.618 65.6067C42.4368 65.4644 42.1818 65.4644 42.0005 65.6067L41.7368 65.8138C39.396 67.6515 36.2949 68.6742 33 68.6742C32.8672 68.6742 32.7399 68.727 32.6461 68.821C32.5523 68.915 32.4997 69.0424 32.5 69.1752L32.5012 69.7907C32.5017 70.0664 32.7254 70.2897 33.0012 70.2897C36.4372 70.2897 39.7151 69.2982 42.3105 67.4688C44.4826 68.9998 47.1328 69.9439 49.9528 70.2112C50.093 70.2245 50.2323 70.178 50.3365 70.0833C50.4406 69.9885 50.5 69.8542 50.5 69.7134V69.0936ZM19.5 66.0936C19.5 65.8368 19.3054 65.6217 19.0499 65.5961C16.3471 65.3249 13.8469 64.3562 11.8818 62.8138L11.618 62.6067C11.4368 62.4644 11.1818 62.4644 11.0005 62.6067L10.7368 62.8138C8.39597 64.6515 5.29491 65.6742 2 65.6742C1.86723 65.6742 1.73991 65.727 1.64611 65.821C1.55232 65.915 1.49975 66.0424 1.5 66.1752L1.50117 66.7907C1.50169 67.0664 1.7254 67.2897 2.00117 67.2897C5.43718 67.2897 8.71506 66.2982 11.3105 64.4688C13.4826 65.9998 16.1328 66.9439 18.9528 67.2112C19.093 67.2245 19.2323 67.178 19.3365 67.0833C19.4406 66.9885 19.5 66.8542 19.5 66.7134V66.0936Z" fill="#538CD8"/>
</svg>
