<svg width="80" height="80" viewBox="0 0 80 80" fill="none" xmlns="http://www.w3.org/2000/svg">
<path fill-rule="evenodd" clip-rule="evenodd" d="M33 21C33 20.4477 33.4477 20 34 20C34.5523 20 35 20.4477 35 21V59C35 59.5523 34.5523 60 34 60C33.4477 60 33 59.5523 33 59V21ZM44 26C44 25.4477 44.4477 25 45 25C45.5523 25 46 25.4477 46 26V54C46 54.5523 45.5523 55 45 55C44.4477 55 44 54.5523 44 54V26ZM23 26C22.4477 26 22 26.4477 22 27V53C22 53.5523 22.4477 54 23 54C23.5523 54 24 53.5523 24 53V27C24 26.4477 23.5523 26 23 26ZM38 31C38 30.4477 38.4477 30 39 30C39.5523 30 40 30.4477 40 31V49C40 49.5523 39.5523 50 39 50C38.4477 50 38 49.5523 38 49V31ZM28 31C27.4477 31 27 31.4477 27 32V48C27 48.5523 27.4477 49 28 49C28.5523 49 29 48.5523 29 48V32C29 31.4477 28.5523 31 28 31ZM17 34C17 33.4477 17.4477 33 18 33C18.5523 33 19 33.4477 19 34V46C19 46.5523 18.5523 47 18 47C17.4477 47 17 46.5523 17 46V34ZM12 38C12 37.4477 12.4477 37 13 37C13.5523 37 14 37.4477 14 38V42C14 42.5523 13.5523 43 13 43C12.4477 43 12 42.5523 12 42V38ZM50 34C49.4477 34 49 34.4477 49 35V45C49 45.5523 49.4477 46 50 46C50.5523 46 51 45.5523 51 45V35C51 34.4477 50.5523 34 50 34ZM61 35C61 34.4477 61.4477 34 62 34C62.5523 34 63 34.4477 63 35V45C63 45.5523 62.5523 46 62 46C61.4477 46 61 45.5523 61 45V35ZM56 26C55.4477 26 55 26.4477 55 27V51C55 51.5523 55.4477 52 56 52C56.5523 52 57 51.5523 57 51V27C57 26.4477 56.5523 26 56 26ZM67 37C66.4477 37 66 37.4477 66 38V42C66 42.5523 66.4477 43 67 43C67.5523 43 68 42.5523 68 42V38C68 37.4477 67.5523 37 67 37Z" fill="#538CD8"/>
</svg>
