<svg width="80" height="80" viewBox="0 0 80 80" fill="none" xmlns="http://www.w3.org/2000/svg">
<path fill-rule="evenodd" clip-rule="evenodd" d="M25.8284 23L34.8284 14H46.1243L54.432 23H25.8284ZM23 23L34 12H47L57.1538 23H70C71.6569 23 73 24.3431 73 26C73 27.6569 71.6569 29 70 29H69V31C69 32.6569 67.6569 34 66 34H64V65H65C66.6569 65 68 66.3431 68 68V69C68 70.6569 66.6569 72 65 72H15C13.3431 72 12 70.6569 12 69V68C12 66.3431 13.3431 65 15 65H16V34H14C12.3431 34 11 32.6569 11 31V29H10C8.34315 29 7 27.6569 7 26C7 24.3431 8.34315 23 10 23H23ZM59 25H56.2782H23.8284H21H10C9.44772 25 9 25.4477 9 26C9 26.5523 9.44772 27 10 27H11H13H67H69H70C70.5523 27 71 26.5523 71 26C71 25.4477 70.5523 25 70 25H59ZM16 32H18H62H64H66C66.5523 32 67 31.5523 67 31V29H13V31C13 31.5523 13.4477 32 14 32H16ZM18 34V65H20V46C20 41.0296 24.0282 37 28.9989 37H39C39.5523 37 40 37.4477 40 38C40 38.5523 39.5523 39 39 39H28.9989C25.1331 39 22 42.1338 22 46V65H58V46C58 42.134 54.866 39 51 39H43C42.4477 39 42 38.5523 42 38C42 37.4477 42.4477 37 43 37H51C55.9706 37 60 41.0294 60 46V65H62V34H18ZM18 67H20H21H59H60H62H64H65C65.5523 67 66 67.4477 66 68V69C66 69.5523 65.5523 70 65 70H15C14.4477 70 14 69.5523 14 69V68C14 67.4477 14.4477 67 15 67H16H18Z" fill="#538CD8"/>
<path d="M39.3274 56.4258C39.3591 56.3953 39.3907 56.3648 39.4222 56.3345C39.4546 56.8417 39.5163 57.3792 39.616 57.9042C39.7408 58.5616 39.9267 59.2077 40.1946 59.7534C40.4616 60.2974 40.8183 60.7582 41.2936 61.0198C41.8248 61.3145 42.2771 61.3771 42.6533 61.225C43.0233 61.0754 43.2639 60.7399 43.426 60.3667C43.5577 60.0633 43.6478 59.7097 43.7126 59.3561C44.1203 60.2728 44.2777 61.2903 44.075 62.1249C43.9438 62.6651 43.6634 63.1244 43.2058 63.4407C42.7481 63.7571 42.0935 63.9437 41.1901 63.9021C39.8758 63.7271 38.6196 63.132 37.8581 62.2272C37.1052 61.3328 36.821 60.1206 37.4674 58.6508C37.7979 57.9129 38.5615 57.164 39.2799 56.4716C39.2958 56.4563 39.3116 56.4411 39.3274 56.4258ZM37.7207 64.0532C38.6581 64.7146 39.8402 65.0561 41.0602 65.1922C41.1253 65.2009 41.1879 65.2022 41.2473 65.1964C42.3298 65.225 43.18 64.931 43.8116 64.4121C44.4571 63.8817 44.8567 63.1308 45.0526 62.2957C45.4428 60.6323 45.0364 58.5921 44.0925 57.1232L44.0917 57.122C43.914 56.8498 43.6275 56.7571 43.3705 56.8333C43.1206 56.9073 42.9248 57.1335 42.8951 57.4349L42.8951 57.435C42.8877 57.5109 42.8806 57.6035 42.8727 57.7075C42.8557 57.9306 42.8347 58.2062 42.7977 58.4818C42.7709 58.6812 42.737 58.8698 42.6929 59.0246C42.6467 59.1871 42.5975 59.2818 42.5582 59.3219C42.2775 59.6086 42.0771 59.692 41.9462 59.6978C41.8267 59.703 41.7166 59.6448 41.6059 59.5086C41.4932 59.37 41.3999 59.1731 41.3227 58.9607C41.2563 58.778 41.2062 58.597 41.1649 58.4479C41.1586 58.4252 41.1525 58.4032 41.1466 58.382L41.1466 58.382L41.1459 58.3795C40.7954 57.1862 40.5884 56.0396 40.6445 54.8374C40.6627 54.7737 40.6733 54.7089 40.6733 54.6437C40.6732 54.611 40.6702 54.5781 40.6632 54.5457C40.6661 54.5105 40.6692 54.4752 40.6726 54.4399L40.6727 54.4387C40.6874 54.2726 40.6473 54.1241 40.5544 54.0094C40.4634 53.897 40.3366 53.8354 40.2096 53.8118C39.9629 53.766 39.6704 53.8548 39.4903 54.0693L39.4901 54.0691L39.4838 54.0774C39.1021 54.5832 38.6726 55.057 38.2401 55.5341C38.2221 55.554 38.2042 55.5738 38.1862 55.5936C37.738 56.0883 37.2884 56.5882 36.9042 57.1199C36.1308 58.1902 35.613 59.4025 35.8637 61.0097L35.8637 61.0097L35.864 61.0111C36.0913 62.4037 36.7769 63.3873 37.7207 64.0532Z" fill="#538CD8" stroke="#538CD8" stroke-width="0.4"/>
<path d="M40.3386 64.8446C36.2289 64.5601 31.9421 62.9221 29.8948 59.0953C29.3612 58.0942 29.1655 57.2199 29.1939 56.4232C29.2224 55.6253 29.4761 54.8896 29.8654 54.1668C30.256 53.4415 30.7783 52.7374 31.3389 51.9992C31.3876 51.9351 31.4367 51.8707 31.4859 51.806C31.6458 51.5958 31.8079 51.3828 31.9697 51.166C31.9656 51.2587 31.9609 51.3522 31.9562 51.4466C31.9512 51.5465 31.9461 51.6474 31.9417 51.7492C31.9071 52.55 31.9098 53.4124 32.4005 54.0672C32.8022 54.6097 33.4249 54.7867 34.0368 54.7614C34.6472 54.7362 35.2753 54.5107 35.7441 54.2107L35.7457 54.2097C37.2825 53.2049 37.6101 51.455 37.3721 49.8124C37.2761 49.0595 37.0608 48.3709 36.8204 47.7055C36.742 47.4882 36.6614 47.2749 36.5814 47.0628C36.4136 46.6184 36.2478 46.1793 36.107 45.7197L36.1069 45.7193C35.6291 44.1698 35.9406 42.7294 36.5625 41.3304C36.6699 41.7021 36.802 42.0762 36.9627 42.4261C37.4415 43.4685 38.2234 44.3893 39.4362 44.2291C40.0408 44.1492 40.461 43.8129 40.7428 43.3781C41.0208 42.9492 41.1668 42.4219 41.2388 41.9351L41.2389 41.9351L41.2394 41.9312C41.382 40.817 41.0456 39.8005 40.7325 38.854C40.6717 38.6704 40.6118 38.4894 40.5564 38.3108C40.3839 37.7541 40.2503 37.2127 40.245 36.6632C40.5592 37.1626 40.9339 37.62 41.3246 38.097C41.3801 38.1647 41.4359 38.2328 41.4919 38.3014L41.4919 38.3014L41.4931 38.3029C42.9709 40.0813 44.0084 41.9241 43.9629 44.2627L43.9629 44.2636C43.9457 45.3838 43.6949 46.3832 43.4452 47.3779C43.3642 47.7008 43.2833 48.0233 43.2105 48.3492C42.9157 49.6698 42.7672 51.0148 43.3708 52.5564L43.3708 52.5564L43.3723 52.5602C43.5605 53.0131 43.9886 53.9437 44.5486 54.6395C44.8275 54.986 45.1545 55.2939 45.5185 55.4442C45.898 55.6009 46.3071 55.5804 46.7039 55.2891L46.7042 55.2889C47.0219 55.0547 47.1863 54.6258 47.281 54.23C47.3777 53.8258 47.4137 53.4006 47.4368 53.1184C47.4974 52.6466 47.4631 52.0437 47.4125 51.4074C47.4012 51.2651 47.389 51.1207 47.3767 50.975C47.3332 50.4584 47.2882 49.9246 47.2747 49.403C47.2604 48.8521 47.282 48.3279 47.3739 47.8678C47.6758 49.2144 48.3723 50.4242 49.0482 51.5983C49.0685 51.6335 49.0887 51.6686 49.1089 51.7038C50.1564 53.5244 51.1262 55.2681 50.7225 57.4049L50.7221 57.4073C50.3382 59.5819 48.8315 61.4883 46.8633 62.8318C44.9107 64.1646 42.5282 64.926 40.4003 64.8474C40.3834 64.8461 40.3662 64.8454 40.3488 64.8452C40.3483 64.8452 40.3478 64.8452 40.3473 64.8452L40.3386 64.8446ZM46.094 50.1308C46.1175 50.4271 46.1403 50.7134 46.1532 50.9816C46.1646 51.2725 46.1703 51.6999 46.1495 52.1358C46.1286 52.5755 46.0813 53.0096 45.9919 53.3199C45.9466 53.477 45.8958 53.5831 45.8467 53.6428C45.8039 53.6948 45.7804 53.6936 45.7625 53.6907C45.7231 53.6843 45.6375 53.6455 45.5037 53.4988C45.3741 53.3566 45.2188 53.135 45.036 52.8108L45.0361 52.8108L45.033 52.8058C44.5327 51.9761 44.13 50.8783 44.13 49.8868C44.13 49.0945 44.3534 48.3065 44.61 47.4912C44.6378 47.4026 44.6661 47.3136 44.6945 47.2242C44.9244 46.5012 45.1616 45.755 45.2471 44.9982L45.2471 44.9982L45.2475 44.9937C45.3424 43.9375 45.2955 42.8272 45.0086 41.7605C44.6754 40.5071 44.1051 39.3518 43.3468 38.2952L43.3468 38.2952L43.345 38.2928C43.0953 37.9555 42.8258 37.6404 42.5608 37.3342C42.5368 37.3066 42.5129 37.2789 42.489 37.2514C42.2476 36.9727 42.0119 36.7007 41.793 36.4181C41.3139 35.7996 40.9265 35.1442 40.7716 34.314L40.7717 34.3139L40.7704 34.3078C40.6337 33.6851 39.8262 33.6349 39.5602 34.1615C38.8864 35.3343 38.8093 36.2551 38.9807 37.1734C39.0651 37.6252 39.2091 38.074 39.363 38.5421C39.3739 38.5752 39.3848 38.6084 39.3958 38.6417C39.5412 39.0829 39.6939 39.5465 39.8218 40.0652L39.8218 40.0652L39.8229 40.0693C39.9648 40.5966 40.0831 41.1506 39.921 41.6028L39.9202 41.6049C39.7804 42.0098 39.4922 42.2123 39.1909 42.2447C38.8858 42.2775 38.5331 42.1392 38.2674 41.7886C38.0569 41.4887 37.89 41.0348 37.7701 40.5427C37.6509 40.0534 37.5826 39.5459 37.5599 39.1559L37.5602 39.1559L37.559 39.1458C37.5267 38.8497 37.3169 38.6223 37.0671 38.5406C36.805 38.455 36.4995 38.5299 36.3078 38.8214L36.3075 38.8212L36.3017 38.8312C35.5101 40.1998 34.6957 41.7456 34.5516 43.4001L34.5516 43.4006C34.4364 44.7633 34.8454 45.8595 35.2697 46.9969C35.3769 47.2841 35.485 47.5739 35.5859 47.8712C35.5983 47.9104 35.6107 47.9496 35.6231 47.989C35.9921 49.1547 36.3904 50.413 36.0501 51.5779L36.05 51.5782C35.8311 52.3322 35.2405 52.9944 34.6717 53.1988C34.3952 53.2982 34.1403 53.2851 33.9267 53.1463C33.7077 53.004 33.4948 52.7054 33.3615 52.1551C33.2634 51.7167 33.2795 51.2874 33.2967 50.8293C33.2987 50.7775 33.3007 50.7253 33.3025 50.6727C33.32 50.1632 33.3222 49.622 33.1219 49.0637L33.1219 49.0637L33.1212 49.0618C33.0278 48.8092 32.8186 48.6375 32.5779 48.6026C32.3313 48.5669 32.0813 48.679 31.9259 48.93C31.6068 49.4265 31.2175 49.9171 30.803 50.418C30.6911 50.5533 30.5772 50.6895 30.4624 50.8267C30.1542 51.1953 29.84 51.571 29.5431 51.9541C28.7282 53.0058 28.0131 54.1507 27.843 55.4804C27.6493 56.9549 28.1345 58.4622 28.7966 59.7083L28.7966 59.7084C31.0121 63.8717 35.5886 65.6999 39.9753 66.0653C40.0689 66.1326 40.1857 66.1781 40.3264 66.189L40.3264 66.1891L40.3323 66.1894C44.3213 66.3818 48.8159 63.9351 50.9031 60.5222C51.8546 58.9788 52.3821 57.0919 52.1425 55.1977L52.1426 55.1977L52.1418 55.193C51.9136 53.6793 51.1102 52.3827 50.336 51.1332C50.215 50.938 50.0948 50.744 49.9776 50.5504C49.1005 49.1022 48.3775 47.6666 48.6013 45.8978L48.6014 45.8971C48.632 45.6482 48.5421 45.3917 48.3599 45.2322C48.1651 45.0616 47.8861 45.0212 47.606 45.179L47.6056 45.1792C46.5262 45.7899 46.1458 46.785 46.0432 47.8427C45.9712 48.5854 46.0351 49.3895 46.094 50.1308Z" fill="#538CD8" stroke="#538CD8" stroke-width="0.4" stroke-linejoin="round"/>
</svg>
