<svg width="80" height="80" viewBox="0 0 80 80" fill="none" xmlns="http://www.w3.org/2000/svg">
<path fill-rule="evenodd" clip-rule="evenodd" d="M40 5C40.5523 5 41 5.44772 41 6V11.5194L50.3508 19H60C61.1046 19 62 19.8954 62 21V24C62 25.1046 61.1046 26 60 26H56V29H57C58.1046 29 59 29.8954 59 31V51.7543C59 53.2434 57.4309 54.2103 56.1008 53.5408L52.1008 51.5275C51.4259 51.1878 51 50.4967 51 49.741V31C51 29.8954 51.8954 29 53 29H54V26H45.9191L45.9712 28.9854L46.971 28.9679C48.0754 28.9486 48.9863 29.8283 49.0056 30.9327L49.6228 66.2951C49.6503 67.8707 47.9296 68.8577 46.5834 68.0385L42.5398 65.5777C41.9541 65.2213 41.5918 64.5897 41.5799 63.9041L41.0068 31.0723C40.9875 29.9679 41.8672 29.057 42.9716 29.0377L43.9715 29.0203L43.9188 26H35.9326L36.0366 28.9792L37.0385 28.9442C38.1424 28.9056 39.0686 29.7693 39.1071 30.8731L40.6198 74.1911C40.6811 75.9468 38.6113 76.9229 37.2957 75.7587L33.1656 72.1042C32.7548 71.7407 32.5113 71.2244 32.4922 70.6762L31.112 31.1523C31.0734 30.0485 31.9371 29.1223 33.041 29.0838L34.0379 29.049L33.9314 26H25.963L26.2401 29.9629L27.2346 29.8934C28.3365 29.8163 29.2922 30.6471 29.3692 31.749L31.2086 58.0525C31.3185 59.6245 29.6517 60.7002 28.2645 59.9526L24.0977 57.7068C23.4942 57.3815 23.0993 56.7697 23.0515 56.0858L21.3887 32.307C21.3117 31.2051 22.1425 30.2494 23.2443 30.1724L24.245 30.1024L23.9581 26H20C18.8954 26 18 25.1046 18 24V21C18 19.8954 18.8954 19 20 19H29.6492L39 11.5194V6C39 5.44772 39.4477 5 40 5ZM49.9908 21H50.008H60V24H20V21H29.992H30.0092H49.9908ZM47.1492 19L40 13.2806L32.8508 19H47.1492ZM56 31H54H53V49.741L57 51.7543V31H56ZM44.0064 31.02L46.0061 30.9851L47.0059 30.9676L47.6231 66.33L43.5796 63.8692L43.0065 31.0374L44.0064 31.02ZM27.3741 31.8885L23.3839 32.1675L25.0466 55.9462L29.2134 58.192L27.3741 31.8885ZM25.8004 38.0134C26.3513 37.9749 26.7667 37.497 26.7282 36.9461C26.6896 36.3951 26.2118 35.9797 25.6608 36.0183C25.1099 36.0568 24.6945 36.5346 24.733 37.0856C24.7716 37.6365 25.2494 38.0519 25.8004 38.0134ZM33.1108 31.0825L37.1083 30.9429L38.621 74.2609L34.491 70.6064L33.1108 31.0825ZM36.2829 35.9748C36.3022 36.5267 35.8704 36.9898 35.3184 37.009C34.7665 37.0283 34.3034 36.5965 34.2841 36.0446C34.2648 35.4926 34.6967 35.0295 35.2486 35.0103C35.8006 34.991 36.2636 35.4228 36.2829 35.9748ZM45.1121 37.0017C45.6643 36.992 46.1041 36.5366 46.0945 35.9844C46.0849 35.4322 45.6294 34.9923 45.0772 35.002C44.525 35.0116 44.0852 35.4671 44.0948 36.0193C44.1044 36.5715 44.5599 37.0113 45.1121 37.0017ZM56 36C56 36.5523 55.5523 37 55 37C54.4477 37 54 36.5523 54 36C54 35.4477 54.4477 35 55 35C55.5523 35 56 35.4477 56 36ZM14 56.0399L13.4352 57.5724L13.4352 57.5725C13.3624 57.7701 13.2475 57.9496 13.0986 58.0986C12.9496 58.2475 12.7701 58.3624 12.5725 58.4352L12.5724 58.4352L11.0399 59L12.5724 59.5648L12.5725 59.5648C12.7701 59.6376 12.9496 59.7525 13.0986 59.9014C13.2475 60.0504 13.3624 60.2299 13.4352 60.4275L13.4352 60.4276L14 61.9601L14.5648 60.4276L14.5648 60.4275C14.6376 60.2299 14.7525 60.0504 14.9014 59.9014C15.0504 59.7525 15.2299 59.6376 15.4275 59.5648L15.4276 59.5648L16.9601 59L15.4276 58.4352L15.4275 58.4352C15.2299 58.3624 15.0504 58.2475 14.9014 58.0986C14.7525 57.9496 14.6376 57.7701 14.5648 57.5725L14.5648 57.5724L14 56.0399ZM13.1719 53.2597C13.4149 53.0906 13.7039 53 14 53C14.2961 53 14.5851 53.0906 14.8281 53.2597C15.0712 53.4287 15.2567 53.6681 15.3597 53.9457L15.3605 53.9479L16.3546 56.6454L19.0521 57.6395L19.0543 57.6403C19.3319 57.7433 19.5713 57.9288 19.7403 58.1719C19.9094 58.415 20 58.7039 20 59C20 59.2961 19.9094 59.585 19.7403 59.8281C19.5713 60.0712 19.3319 60.2567 19.0543 60.3597L19.0521 60.3605L16.3546 61.3546L15.3605 64.0521L15.3597 64.0543C15.2567 64.3319 15.0712 64.5713 14.8281 64.7403C14.585 64.9094 14.2961 65 14 65C13.7039 65 13.415 64.9094 13.1719 64.7403C12.9288 64.5713 12.7433 64.3319 12.6403 64.0543L12.6395 64.0521L11.6454 61.3546L8.94786 60.3605L8.94566 60.3597C8.66809 60.2567 8.42871 60.0712 8.25966 59.8281C8.09061 59.5851 8 59.2961 8 59C8 58.7039 8.09061 58.4149 8.25966 58.1719C8.42871 57.9288 8.66809 57.7433 8.94566 57.6403L8.94786 57.6395L11.6454 56.6454L12.6395 53.9479L12.6403 53.9457C12.7433 53.6681 12.9288 53.4287 13.1719 53.2597ZM25 66.2103L24.7358 66.9271L24.7358 66.9271C24.6676 67.1124 24.5599 67.2807 24.4203 67.4203C24.2807 67.5599 24.1124 67.6676 23.9271 67.7358L23.9271 67.7358L23.2103 68L23.9271 68.2642L23.9271 68.2642C24.1124 68.3324 24.2807 68.4401 24.4203 68.5797C24.5599 68.7193 24.6676 68.8876 24.7358 69.0729L25 69.7897L25.2642 69.0729C25.3324 68.8876 25.4401 68.7193 25.5797 68.5797C25.7193 68.4401 25.8876 68.3324 26.0729 68.2642L26.0729 68.2642L26.7897 68L26.0729 67.7358L26.0729 67.7358C25.8876 67.6676 25.7193 67.5599 25.5797 67.4203C25.4401 67.2807 25.3324 67.1124 25.2642 66.9271L25.2642 66.9271L25 66.2103ZM24.2233 63.2435C24.4513 63.085 24.7223 63 25 63C25.2777 63 25.5487 63.085 25.7767 63.2435C26.0047 63.4021 26.1786 63.6266 26.2753 63.8869L26.2761 63.8891L27.0395 65.9605L29.1109 66.7239L29.1131 66.7247C29.3734 66.8214 29.5979 66.9953 29.7565 67.2233C29.915 67.4513 30 67.7223 30 68C30 68.2777 29.915 68.5487 29.7565 68.7767C29.5979 69.0047 29.3734 69.1786 29.1131 69.2753L29.1109 69.2761L27.0395 70.0395L26.2761 72.1109L26.2753 72.1131C26.1786 72.3734 26.0047 72.5979 25.7767 72.7565C25.5487 72.915 25.2777 73 25 73C24.7223 73 24.4513 72.915 24.2233 72.7565C23.9953 72.5979 23.8214 72.3734 23.7247 72.1131L23.7239 72.1109L22.9605 70.0395L20.8891 69.2761L20.8869 69.2753C20.6266 69.1786 20.4021 69.0047 20.2435 68.7767C20.085 68.5487 20 68.2777 20 68C20 67.7223 20.085 67.4513 20.2435 67.2233C20.4021 66.9953 20.6266 66.8214 20.8869 66.7247L20.8891 66.7239L22.9605 65.9605L23.7239 63.8891L23.7247 63.8869C23.8214 63.6266 23.9953 63.4021 24.2233 63.2435Z" fill="#538CD8"/>
</svg>
