<svg width="80" height="80" viewBox="0 0 80 80" fill="none" xmlns="http://www.w3.org/2000/svg">
<path fill-rule="evenodd" clip-rule="evenodd" d="M30.9442 22C24.8318 22 19.8331 26.5727 19.2157 32.5576C14.988 33.6484 12.0005 37.4499 12 41.8957C12 47.2167 16.3294 51.5456 21.6496 51.5456C22.2435 51.5456 22.722 51.0663 22.722 50.4733C22.722 49.8812 22.2431 49.4014 21.6496 49.4014C17.5116 49.4014 14.1447 46.0332 14.1447 41.8952C14.1447 38.2107 16.7765 35.0987 20.4066 34.4933C20.4722 34.4821 20.565 34.4796 20.6663 34.4768C20.8974 34.4706 21.173 34.4632 21.2728 34.3484C21.3743 34.233 21.3446 33.9576 21.3198 33.7274C21.3091 33.628 21.2993 33.537 21.3013 33.4711C21.4734 28.2401 25.708 24.1422 30.9431 24.1422C34.6224 24.1422 37.9309 26.1888 39.5797 29.4827C39.6151 29.5541 39.6495 29.6607 39.687 29.7773C39.7739 30.0474 39.8779 30.3705 40.053 30.4303C40.2268 30.4896 40.5053 30.2976 40.7389 30.1366C40.8406 30.0665 40.9338 30.0022 41.0062 29.9671C41.5863 29.6855 42.2088 29.5434 42.8583 29.5434C43.4145 29.5434 43.9449 29.6515 44.433 29.8465C42.1931 30.7969 40.2784 32.4295 38.9757 34.5761C38.3845 34.3994 37.7699 34.3097 37.1397 34.3097C34.0202 34.3097 31.3985 36.5501 30.8507 39.5421C26.7891 40.7322 23.9144 44.5099 23.9144 48.8057C23.9144 54.0831 28.3044 58.3752 33.5653 58.4474C34.1104 58.3964 34.5387 57.9437 34.5387 57.3848C34.5387 56.8267 34.1104 56.364 33.5653 56.3124C29.4274 56.3124 26.0591 52.9451 26.0591 48.8062C26.0591 45.2594 28.5759 42.1679 32.0427 41.4544C32.1038 41.4419 32.1895 41.4361 32.2831 41.4297C32.4994 41.415 32.7579 41.3974 32.8524 41.2879C32.9446 41.1797 32.925 40.9239 32.9085 40.7088C32.9012 40.6139 32.8946 40.5269 32.8984 40.464C33.0226 38.2153 34.8861 36.4548 37.1394 36.4548C37.7889 36.4548 38.4123 36.5979 38.9928 36.879C39.0652 36.9141 39.1583 36.9783 39.2598 37.0484C39.4932 37.2094 39.7713 37.4012 39.946 37.3422C40.1215 37.2821 40.2258 36.9591 40.313 36.689C40.3506 36.5724 40.3851 36.4657 40.4207 36.3941C42.0682 33.0998 45.3771 31.0541 49.0541 31.0541C54.2921 31.0541 58.5266 35.152 58.6973 40.383C58.6998 40.4502 58.6901 40.5429 58.6794 40.644C58.6553 40.8737 58.6265 41.1465 58.7272 41.2612C58.8274 41.3765 59.104 41.3837 59.3357 41.3898C59.436 41.3924 59.5279 41.3948 59.5934 41.4057C63.2208 42.012 65.8553 45.1232 65.8553 48.8076C65.8553 52.9464 62.4884 56.3138 58.3504 56.3138C57.756 56.3138 57.2762 56.7932 57.2762 57.3862C57.2762 57.9787 57.7569 58.4585 58.3504 58.4585C63.6711 58.4585 68 54.1292 68 48.8076C68 44.3606 65.0126 40.5593 60.784 39.4667C60.1689 33.4818 55.1698 28.9091 49.0547 28.9091C48.4134 28.9091 47.7804 28.9671 47.1603 29.0669C46.0217 28.0305 44.5123 27.4007 42.8594 27.4007C42.2288 27.4007 41.615 27.4905 41.0248 27.668C38.8893 24.1488 35.1121 22 30.9442 22ZM41.1195 75.9326C41.2507 76 41.3813 76 41.5124 76L41.5124 75.9999C41.8399 75.9999 42.167 75.8651 42.2986 75.595L52.7779 60.0544C52.9744 59.7165 53.0397 59.3112 52.8432 58.9732C52.7121 58.6353 52.3846 58.4326 51.9917 58.4326H50.2232L52.9086 52.4191C53.0397 52.1491 53.0397 51.7433 52.8433 51.4732C52.6468 51.2027 52.3193 51 51.9917 51H44.5907C44.1979 51 43.805 51.2705 43.6738 51.6759L40.0715 62.4865C39.9404 62.7565 40.0058 63.0271 40.1369 63.2971C40.268 63.5677 40.5302 63.7029 40.792 63.7703L43.4115 64.2435L40.5955 74.7166C40.4644 75.1893 40.6609 75.7299 41.1195 75.9326ZM44.8525 62.4191L42.2982 61.9459L45.3113 53.0942H50.4851L47.7997 59.0403C47.6686 59.3103 47.6686 59.7161 47.8651 59.9862C48.0615 60.2567 48.3891 60.4594 48.7166 60.4594H50.1575L44.0668 69.5138L45.6387 63.703C45.7041 63.4329 45.6387 63.1624 45.5076 62.8923C45.3765 62.6218 45.1143 62.4865 44.8525 62.4191Z" fill="#538CD8"/>
</svg>
