<svg width="80" height="80" viewBox="0 0 80 80" fill="none" xmlns="http://www.w3.org/2000/svg">
<path d="M19 46.5H33C33.6667 46.5 35 47 35 49C35 51 33.3333 51.8333 32.5 52" stroke="#538CD8" stroke-width="2" stroke-linecap="round" stroke-linejoin="round"/>
<path d="M19.5 36H38.7593C41.0062 35.8388 45.5 34.0653 45.5 28.2614C45.5 21.0065 34.9074 21.4901 34.9074 28.2614" stroke="#538CD8" stroke-width="2" stroke-linecap="round" stroke-linejoin="round"/>
<path d="M45.1112 37.763C45.1112 37.763 53 38.5 57.535 36.3847C59.5527 35.4436 61.1247 32.465 59.7449 29.0967C58.4182 25.8579 55 26.9999 53.499 28.5" stroke="#538CD8" stroke-width="2" stroke-linecap="round" stroke-linejoin="round"/>
<path d="M19.5 41.5H44C46.8333 42 52.4 44.5 52 50.5C51.5 58 41.5 60.5 40 53C38.5 45.5 46 46.5 47 49" stroke="#538CD8" stroke-width="2" stroke-linecap="round" stroke-linejoin="round"/>
</svg>
