<svg width="80" height="80" viewBox="0 0 80 80" fill="none" xmlns="http://www.w3.org/2000/svg">
<path fill-rule="evenodd" clip-rule="evenodd" d="M60.3587 9.67847C60.206 9.22891 59.7583 8.94865 59.2872 9.00778C58.8161 9.06692 58.4516 9.44914 58.4148 9.92249C58.2932 11.4865 58.1108 13.8469 57.9588 15.845C57.8828 16.8439 57.8143 17.7529 57.7648 18.4269C57.7519 18.6027 57.7398 18.7681 57.7291 18.9176L43.2786 14.7259C42.8076 14.5892 42.307 14.8143 42.0967 15.2573C41.8863 15.7003 42.0283 16.2305 42.4318 16.5092L54.1843 24.624C53.2087 25.8131 51.7758 26.4151 49.9141 26.4151C46.9234 26.4151 45.2309 25.1044 43.439 23.7167L43.4359 23.7143L43.4337 23.7126C41.8258 22.4676 40.163 21.18 37.6925 21.18C33.2176 21.18 32.2351 26.8082 32.0201 29.136H28.4007V34.6758C24.7546 35.6316 21.4589 37.743 19.0535 40.6812C16.4393 43.8745 15 47.91 15 52.0444C15.0003 58.2325 18.1465 63.6994 22.9234 66.9293C25.7895 68.8673 29.2426 70 32.9556 70C42.856 70 50.9099 61.9457 50.9099 52.0445C50.9099 47.9101 49.4701 43.8749 46.8564 40.6813C44.4514 37.7426 41.1552 35.6316 37.5096 34.6759V29.1361H34.0286C34.2397 27.2024 35.0055 23.1702 37.6926 23.1702C39.4842 23.1702 40.7513 24.1508 42.2183 25.2877L42.2188 25.2881C44.1048 26.7489 46.2425 28.4047 49.9142 28.4047C51.0798 28.4047 52.0637 28.2151 52.8933 27.9057L51.2279 31.1513C51.0137 31.5688 51.1186 32.0791 51.4801 32.3782C51.8415 32.6774 52.3624 32.685 52.7325 32.3965L58.5693 27.8463L59.5094 39.0834C59.5512 39.5829 59.9563 39.9743 60.457 39.9988C60.9577 40.0233 61.3991 39.6733 61.4895 39.1802L63.2693 29.4679L67.7333 35.3405C68.035 35.7373 68.5829 35.8514 69.0179 35.6079C69.4529 35.3643 69.6421 34.8376 69.4615 34.373L66.4929 26.7362L72.3238 28.0349C72.8095 28.1431 73.3009 27.8777 73.4767 27.4121C73.6525 26.9466 73.4593 26.4226 73.0233 26.1827L69.1431 24.0475L74.2174 22.9173C74.6785 22.8146 75.0048 22.4032 74.9999 21.9309C74.9951 21.4585 74.6603 21.054 74.1972 20.9608L63.4559 18.7999L60.3587 9.67847ZM59.6428 20.5139C59.6982 20.3229 59.694 20.1287 59.6413 19.9512C59.668 19.861 59.6824 19.7655 59.6824 19.6667C59.6824 19.6742 59.6831 19.6622 59.6855 19.6244C59.6882 19.5811 59.6931 19.5037 59.7014 19.3828C59.715 19.1847 59.7348 18.9091 59.7594 18.5733C59.8087 17.9021 59.877 16.9951 59.953 15.9967L60.0335 14.9413L61.7472 19.9882C61.8618 20.3257 62.1474 20.5767 62.4969 20.647L69.177 21.9909L66.1238 22.671C65.7177 22.7614 65.4101 23.0938 65.3512 23.5056C65.2924 23.9174 65.4946 24.3226 65.8591 24.5232L65.9287 24.5615L65.0998 24.3769C64.7395 24.2966 64.3642 24.4214 64.1237 24.7014C63.8832 24.9814 63.8166 25.3712 63.9503 25.7152L65.0192 28.465L63.4902 26.4537C63.2505 26.1383 62.8472 25.9942 62.4619 26.0862C62.0766 26.1782 61.7819 26.4889 61.7105 26.8786L60.8762 31.4313L60.4083 25.8382C60.3777 25.4724 60.1491 25.1527 59.8127 25.0055C59.4764 24.8583 59.0865 24.9072 58.7969 25.1329L55.0752 28.0342L56.6544 24.9565C56.8836 24.5098 56.7461 23.9624 56.3329 23.6771L48.6354 18.3622L58.4038 21.1957C58.9342 21.3496 59.4889 21.0443 59.6428 20.5139ZM35.5209 34.2741C33.8234 34.0304 32.0878 34.0304 30.3909 34.2741V31.126H35.5209V34.2741ZM29.604 36.4329C31.7995 35.9635 34.1114 35.9635 36.3069 36.4329C43.6161 37.9945 48.9198 44.5596 48.9198 52.0452C48.9198 60.8487 41.7574 68.0103 32.9547 68.0103C24.1517 68.0108 16.9896 60.8492 16.9896 52.0452C16.9896 51.1096 17.0725 50.1884 17.2318 49.2895C18.347 42.9973 23.2078 37.7994 29.604 36.4329ZM29.6042 42.6072C25.1853 43.5517 21.9789 47.521 21.9789 52.0458L21.979 52.0457C21.979 52.5946 21.5331 53.041 20.9847 53.041C20.4353 53.041 19.9899 52.5951 19.9899 52.0457C19.9899 46.5892 23.8584 41.801 29.1889 40.6623C29.7256 40.5475 30.2538 40.89 30.369 41.4271C30.4838 41.9647 30.1414 42.4929 29.6042 42.6072Z" fill="#538CD8"/>
</svg>
