<svg width="80" height="80" viewBox="0 0 80 80" fill="none" xmlns="http://www.w3.org/2000/svg">
<path fill-rule="evenodd" clip-rule="evenodd" d="M23.0279 13.7653C23.1575 13.2285 23.6978 12.8983 24.2346 13.0279C26.7376 13.6321 30.4835 14.9984 33.6295 17.1637C36.7536 19.314 39.5 22.4094 39.5 26.5C39.5 29.0857 38.1779 31.5486 36.4012 33.852C34.6814 36.0818 32.4203 38.3044 30.2038 40.483L29.9512 40.7314C27.628 43.0158 25.3729 45.2555 23.6924 47.5091C22.007 49.7691 21.0001 51.9143 21 54C20.9999 58.0451 22.1446 60.6179 23.4163 62.2635C24.6978 63.9219 26.1664 64.715 26.9474 65.1055C27.4414 65.3525 27.6416 65.9532 27.3947 66.4472C27.1477 66.9412 26.547 67.1414 26.053 66.8944C25.1673 66.4516 23.3857 65.4947 21.8337 63.4865C20.2719 61.4654 18.9999 58.4548 19 54C19.0001 51.2768 20.3057 48.7051 22.0891 46.3135C23.8774 43.9154 26.2472 41.5687 28.549 39.3053L28.7544 39.1034C31.01 36.8859 33.1836 34.7489 34.8176 32.6305C36.5097 30.4367 37.5 28.4143 37.5 26.5C37.5 23.3906 35.4131 20.8193 32.4955 18.8112C29.5998 16.8182 26.0957 15.5346 23.7654 14.9721C23.2285 14.8425 22.8983 14.3022 23.0279 13.7653ZM37.0875 14.0909C37.3134 13.587 37.9051 13.3616 38.4091 13.5875C40.8718 14.6915 44.5652 16.6513 47.6606 18.961C49.207 20.115 50.6398 21.3825 51.695 22.702C52.7383 24.0065 53.5 25.4712 53.5 27C53.5 28.7137 52.898 30.4954 52.1453 32.2465C51.7649 33.1313 51.3324 34.0378 50.897 34.9467L50.8332 35.0797C50.4159 35.9506 49.9964 36.826 49.6019 37.7172C47.9332 41.4874 46.8412 45.2736 48.4247 49.1192C50.0844 53.15 53.5659 57.0202 57.3622 59.9593C61.1845 62.9185 65.1246 64.7799 67.5905 65.0041C68.1406 65.0541 68.5459 65.5405 68.4959 66.0905C68.4459 66.6405 67.9595 67.0459 67.4095 66.9959C64.3754 66.7201 60.0655 64.5815 56.1378 61.5407C52.1841 58.4797 48.4156 54.35 46.5753 49.8807C44.6588 45.2263 46.0668 40.7625 47.7731 36.9077C48.1801 35.9881 48.6116 35.0878 49.0259 34.2232L49.026 34.2231L49.0933 34.0826C49.5309 33.1692 49.946 32.2983 50.3078 31.4566C51.0395 29.7545 51.5 28.2863 51.5 27C51.5 26.1287 51.0533 25.1018 50.1331 23.9511C49.2248 22.8154 47.9388 21.6641 46.4644 20.5639C43.5181 18.3654 39.9615 16.4752 37.5909 15.4125C37.087 15.1866 36.8616 14.5949 37.0875 14.0909ZM43.2929 59.2929C42.6102 59.9756 41.5611 60.7938 40.3931 61.4363C39.2106 62.0866 38.009 62.5 37 62.5C36.4477 62.5 36 62.9477 36 63.5C36 64.0523 36.4477 64.5 37 64.5C38.491 64.5 40.0394 63.9133 41.3569 63.1887C42.3442 62.6457 43.2595 61.9932 44 61.3591C44.7405 61.9932 45.6558 62.6457 46.6431 63.1887C47.9606 63.9133 49.509 64.5 51 64.5C51.5523 64.5 52 64.0523 52 63.5C52 62.9477 51.5523 62.5 51 62.5C49.991 62.5 48.7894 62.0866 47.6069 61.4363C46.4389 60.7938 45.3898 59.9756 44.7071 59.2929C44.3166 58.9024 43.6834 58.9024 43.2929 59.2929ZM35.8356 40.2526C36.2145 39.9158 36.7855 39.9158 37.1644 40.2526C37.576 40.6185 38.2229 41.0684 38.9481 41.423C39.6844 41.783 40.4107 42 41 42C41.5523 42 42 42.4477 42 43C42 43.5523 41.5523 44 41 44C39.9822 44 38.9406 43.6455 38.0697 43.2198C37.4967 42.9396 36.9584 42.6093 36.5 42.2775C36.0416 42.6093 35.5033 42.9396 34.9303 43.2198C34.0594 43.6455 33.0178 44 32 44C31.4477 44 31 43.5523 31 43C31 42.4477 31.4477 42 32 42C32.5893 42 33.3156 41.783 34.0519 41.423C34.7771 41.0684 35.424 40.6185 35.8356 40.2526ZM46.0979 26.3273C45.7569 26.0242 45.2431 26.0242 44.9021 26.3273C44.4834 26.6995 43.8289 27.1545 43.0958 27.5129C42.3527 27.8761 41.6108 28.1 41 28.1C40.5029 28.1 40.1 28.5029 40.1 29C40.1 29.497 40.5029 29.9 41 29.9C41.9964 29.9 43.0223 29.5524 43.8864 29.13C44.4791 28.8402 45.034 28.4963 45.5 28.1537C45.966 28.4963 46.5209 28.8402 47.1136 29.13C47.9777 29.5524 49.0036 29.9 50 29.9C50.4971 29.9 50.9 29.497 50.9 29C50.9 28.5029 50.4971 28.1 50 28.1C49.3892 28.1 48.6473 27.8761 47.9042 27.5129C47.1711 27.1545 46.5166 26.6995 46.0979 26.3273ZM40.584 18.3759C40.8359 18.208 41.1641 18.208 41.416 18.3759C41.6832 18.5541 42.1115 18.7783 42.5975 18.9565C43.0876 19.1362 43.5847 19.25 44 19.25C44.4142 19.25 44.75 19.5858 44.75 20C44.75 20.4142 44.4142 20.75 44 20.75C43.3439 20.75 42.6624 20.578 42.0811 20.3649C41.6871 20.2204 41.3154 20.0482 41 19.8748C40.6846 20.0482 40.3129 20.2204 39.9189 20.3649C39.3376 20.578 38.6561 20.75 38 20.75C37.5858 20.75 37.25 20.4142 37.25 20C37.25 19.5858 37.5858 19.25 38 19.25C38.4153 19.25 38.9124 19.1362 39.4025 18.9565C39.8885 18.7783 40.3168 18.5541 40.584 18.3759ZM29.5547 51.1679C29.2188 50.944 28.7812 50.944 28.4453 51.1679C27.8747 51.5483 26.9823 52.014 25.9772 52.3825C24.9666 52.7531 23.9109 53 23 53C22.4477 53 22 53.4477 22 54C22 54.5523 22.4477 55 23 55C24.232 55 25.5334 54.6755 26.6657 54.2603C27.5359 53.9412 28.3468 53.5535 29 53.1755C29.6532 53.5535 30.4641 53.9412 31.3343 54.2603C32.4666 54.6755 33.768 55 35 55C35.5523 55 36 54.5523 36 54C36 53.4477 35.5523 53 35 53C34.0891 53 33.0334 52.7531 32.0228 52.3825C31.0177 52.014 30.1253 51.5483 29.5547 51.1679Z" fill="#538CD8"/>
</svg>
