<svg width="80" height="80" viewBox="0 0 80 80" fill="none" xmlns="http://www.w3.org/2000/svg">
<path fill-rule="evenodd" clip-rule="evenodd" d="M30.8297 17C24.8063 17 19.9234 21.9249 19.9234 28C19.9234 28.3405 19.9387 28.6777 19.9688 29.0107C14.9759 29.2477 11 33.4055 11 38.5C11 43.579 14.9518 47.7271 19.9234 47.9871V48H20.4191H20.9148H21.8978C22.4501 48 22.8978 47.5524 22.8978 47.0001V46L20.8574 45.9872C20.7125 45.9957 20.5664 46 20.4191 46C16.3122 46 12.983 42.6421 12.983 38.5C12.983 34.3579 16.3122 31 20.4191 31C20.6276 31 20.834 31.0086 21.0378 31.0255L22.3574 31.135L22.0901 29.8271C21.9697 29.2379 21.9063 28.627 21.9063 28C21.9063 23.0294 25.9015 19 30.8297 19C35.5623 19 39.4351 22.7165 39.7344 27.413L39.8188 28.7373L41.0577 28.2904C41.5782 28.1027 42.1399 28 42.7275 28C44.1145 28 45.3684 28.5745 46.2682 29.5004C46.5562 29.7968 46.9373 30 47.3505 30C48.1177 30 48.6084 29.2025 48.1287 28.6038C46.8564 27.0156 44.9096 26 42.7275 26C42.3347 26 41.949 26.033 41.5732 26.0965C40.679 20.9282 36.2095 17 30.8297 17ZM45.2083 32.7212C46.6105 32.4662 48.0555 32.4623 49.4595 32.7098C50.8634 32.9572 52.195 33.4503 53.3785 34.1575C55.7694 35.586 57.4003 37.7904 57.9551 40.2621C58.0576 40.7187 58.4629 41.0431 58.9308 41.0431C61.3032 41.0431 63.57 41.945 65.2346 43.5372C66.8977 45.128 67.8232 47.2758 67.8232 49.5054C67.8232 51.7351 66.8977 53.8829 65.2346 55.4736C63.57 57.0658 61.3032 57.9677 58.9308 57.9677H58.0998C57.5475 57.9677 57.0998 58.4154 57.0998 58.9677C57.0998 59.52 57.5475 59.9677 58.0998 59.9677H58.9308C61.8057 59.9677 64.5713 58.8758 66.6171 56.9189C68.6643 54.9606 69.8232 52.2949 69.8232 49.5054C69.8232 46.7159 68.6643 44.0502 66.6171 42.0919C64.7564 40.3122 62.3004 39.2478 59.7082 39.0698C58.8836 36.3399 56.992 33.9867 54.4044 32.4406C53.0062 31.6052 51.4437 31.0286 49.8066 30.7401C48.1694 30.4516 46.4858 30.4561 44.8505 30.7535C43.2153 31.0508 41.6565 31.6358 40.2637 32.4788C38.8708 33.3219 37.669 34.4079 36.7313 35.6792C35.7933 36.9508 35.1385 38.3822 34.8099 39.8928C34.5691 40.9994 34.5075 42.1299 34.6249 43.2486H33.698C31.4809 43.2486 29.3546 44.1293 27.7869 45.697C26.2192 47.2648 25.3385 49.3911 25.3385 51.6082C25.3385 53.8253 26.2192 55.9515 27.7869 57.5193C29.3546 59.087 31.4809 59.9677 33.698 59.9677H34.529C35.0813 59.9677 35.529 59.52 35.529 58.9677C35.529 58.4154 35.0813 57.9677 34.529 57.9677H33.698C32.0114 57.9677 30.3938 57.2977 29.2011 56.105C28.0085 54.9124 27.3385 53.2948 27.3385 51.6082C27.3385 49.9215 28.0085 48.3039 29.2011 47.1113C30.3938 45.9186 32.0114 45.2486 33.698 45.2486H35.8008C36.1045 45.2486 36.3917 45.1106 36.5815 44.8735C36.7713 44.6364 36.843 44.3259 36.7765 44.0296C36.5015 42.8047 36.4974 41.5441 36.7641 40.3179C37.031 39.0915 37.5648 37.9183 38.3408 36.8664C39.1169 35.8141 40.1208 34.9031 41.2993 34.1898C42.478 33.4764 43.8061 32.9761 45.2083 32.7212ZM46.5 49.7324L47.3975 51.5591L46.5 52.0001L45.6025 51.5591L46.5 49.7324ZM46.5 52.0001C45.6025 51.5591 45.6024 51.5592 45.6024 51.5593L45.6023 51.5596L45.6018 51.5604L45.6003 51.5636L45.5945 51.5753L45.5728 51.6198C45.554 51.6586 45.5265 51.7151 45.4917 51.7873C45.4221 51.9317 45.3231 52.1389 45.2043 52.3916C44.9671 52.8964 44.65 53.5859 44.3321 54.3215C44.0153 55.0543 43.6921 55.8459 43.4463 56.5515C43.2179 57.2069 43 57.9389 43 58.4801C43 60.4166 44.5595 62.0001 46.5 62.0001C48.4405 62.0001 50 60.4166 50 58.4801C50 57.9389 49.7821 57.2069 49.5537 56.5515C49.3079 55.8459 48.9847 55.0543 48.6679 54.3215C48.35 53.5859 48.0329 52.8964 47.7957 52.3916C47.6769 52.1389 47.5779 51.9317 47.5083 51.7873C47.4735 51.7151 47.446 51.6586 47.4272 51.6198L47.4055 51.5753L47.3997 51.5636L47.3982 51.5604L47.3977 51.5596L47.3976 51.5593C47.3976 51.5592 47.3975 51.5591 46.5 52.0001ZM46.5 54.3616C46.3917 54.6029 46.2798 54.8562 46.1679 55.115C45.8597 55.8281 45.5579 56.5696 45.335 57.2095C45.0946 57.8995 45 58.3255 45 58.4801C45 59.3271 45.6791 60.0001 46.5 60.0001C47.3209 60.0001 48 59.3271 48 58.4801C48 58.3255 47.9054 57.8995 47.665 57.2095C47.4421 56.5696 47.1403 55.8281 46.8321 55.115C46.7202 54.8562 46.6083 54.6029 46.5 54.3616ZM54.5 63C53.6025 62.559 53.6024 62.5591 53.6024 62.5592L53.6023 62.5594L53.6018 62.5603L53.6003 62.5635L53.5945 62.5752L53.5728 62.6197C53.554 62.6585 53.5265 62.715 53.4917 62.7872C53.4221 62.9316 53.3231 63.1388 53.2043 63.3915C52.9671 63.8963 52.65 64.5858 52.3321 65.3213C52.0153 66.0542 51.6921 66.8458 51.4463 67.5514C51.2179 68.2068 51 68.9388 51 69.48C51 71.4165 52.5595 73 54.5 73C56.4405 73 58 71.4165 58 69.48C58 68.9388 57.7821 68.2068 57.5537 67.5514C57.3079 66.8458 56.9847 66.0542 56.6679 65.3213C56.35 64.5858 56.0329 63.8963 55.7957 63.3915C55.6769 63.1388 55.5779 62.9316 55.5083 62.7872C55.4735 62.715 55.446 62.6585 55.4272 62.6197L55.4055 62.5752L55.3997 62.5635L55.3982 62.5603L55.3977 62.5594L55.3976 62.5592C55.3976 62.5591 55.3975 62.559 54.5 63ZM53.6025 62.559L54.5 63L55.3975 62.559L54.5 60.7323L53.6025 62.559ZM54.1679 66.1148C54.2798 65.8561 54.3917 65.6028 54.5 65.3615C54.6083 65.6028 54.7202 65.8561 54.8321 66.1148C55.1403 66.828 55.4421 67.5695 55.665 68.2093C55.9054 68.8994 56 69.3254 56 69.48C56 70.327 55.3209 71 54.5 71C53.6791 71 53 70.327 53 69.48C53 69.3254 53.0946 68.8994 53.335 68.2093C53.5579 67.5695 53.8597 66.828 54.1679 66.1148ZM37.6025 62.5591L38.5 63.0001C37.6025 62.5591 37.6024 62.5592 37.6024 62.5593L37.6023 62.5595L37.6018 62.5604L37.6003 62.5636L37.5945 62.5753L37.5728 62.6198C37.554 62.6586 37.5265 62.7151 37.4917 62.7873C37.4221 62.9317 37.3231 63.1389 37.2043 63.3916C36.9671 63.8964 36.65 64.5859 36.3321 65.3214C36.0153 66.0543 35.6921 66.8459 35.4463 67.5515C35.2179 68.2069 35 68.9388 35 69.4801C35 71.4166 36.5595 73.0001 38.5 73.0001C40.4405 73.0001 42 71.4166 42 69.4801C42 68.9388 41.7821 68.2069 41.5537 67.5515C41.3079 66.8459 40.9847 66.0543 40.6679 65.3214C40.35 64.5859 40.0329 63.8964 39.7957 63.3916C39.6769 63.1389 39.5779 62.9317 39.5083 62.7873C39.493 62.7556 39.4791 62.7269 39.4668 62.7015C39.451 62.6689 39.4378 62.6416 39.4272 62.6198L39.4055 62.5753L39.3997 62.5636L39.3982 62.5604L39.3977 62.5595L39.3976 62.5593C39.3976 62.5592 39.3975 62.5591 38.5 63.0001L39.3975 62.5591L38.5 60.7324L37.6025 62.5591ZM38.1679 66.1149C38.2798 65.8562 38.3917 65.6029 38.5 65.3616C38.6083 65.6029 38.7202 65.8562 38.8321 66.1149C39.1403 66.8281 39.4421 67.5695 39.665 68.2094C39.9054 68.8995 40 69.3255 40 69.4801C40 70.3271 39.3209 71.0001 38.5 71.0001C37.6791 71.0001 37 70.3271 37 69.4801C37 69.3255 37.0946 68.8995 37.335 68.2094C37.5579 67.5695 37.8597 66.8281 38.1679 66.1149Z" fill="#538CD8"/>
</svg>
