<svg width="32" height="32" viewBox="0 0 32 32" fill="none" xmlns="http://www.w3.org/2000/svg">
<path d="M16.0001 20.7806C18.6403 20.7806 20.7807 18.6402 20.7807 16C20.7807 13.3597 18.6403 11.2194 16.0001 11.2194C13.3598 11.2194 11.2195 13.3597 11.2195 16C11.2195 18.6402 13.3598 20.7806 16.0001 20.7806Z" stroke="#424242" stroke-width="2" stroke-linecap="round" stroke-linejoin="round"/>
<path d="M21.5435 9.73403C21.7987 9.95995 22.0399 10.2011 22.2658 10.4563L24.987 10.8449C25.4283 11.6133 25.7685 12.4355 25.9993 13.291L24.3505 15.4893C24.3505 15.4893 24.3713 16.1705 24.3506 16.5106L26 18.7096C25.7687 19.565 25.4279 20.3869 24.9861 21.155L22.2658 21.5436C22.2658 21.5436 21.7988 22.0399 21.5437 22.2658L21.1551 24.987C20.3867 25.4283 19.5645 25.7685 18.709 25.9993L16.5108 24.3506C16.1707 24.3713 15.8295 24.3713 15.4894 24.3506L13.2904 26C12.435 25.7687 11.6131 25.4279 10.845 24.9861L10.4565 22.266C10.2013 22.0401 9.96009 21.7989 9.73417 21.5437L7.01298 21.1551C6.57169 20.3867 6.23146 19.5645 6.00072 18.709L7.64947 16.5107C7.64947 16.5107 7.62873 15.8295 7.64941 15.4894L6 13.2904C6.23132 12.435 6.57211 11.6131 7.01392 10.845L9.73403 10.4565C9.95995 10.2013 10.2011 9.96009 10.4563 9.73417L10.8449 7.01298C11.6133 6.57169 12.4355 6.23146 13.291 6.00072L15.4892 7.64941C15.8293 7.62873 16.1705 7.62873 16.5106 7.64941L18.7096 6C19.565 6.23132 20.3869 6.57211 21.155 7.01392L21.5435 9.73403Z" stroke="#424242" stroke-width="2" stroke-linecap="round" stroke-linejoin="round"/>
</svg>
