<svg width="80" height="80" viewBox="0 0 80 80" fill="none" xmlns="http://www.w3.org/2000/svg">
<path d="M70.1106 38.3657C70.1111 48.5637 62.1185 66.4228 38.1185 64.3657C3.11853 61.3657 6.74703 34.8657 13.7471 24.8656C21.7992 13.3626 36.9996 9.86894 54.1107 13.3657C61.1104 14.7961 70.1097 22.3657 70.1106 38.3657Z" fill="#FFB800"/>
<rect x="14" y="46" width="28" height="20" rx="2" stroke="#FFFAF1" stroke-width="2"/>
<path d="M31.8828 55.3084L33.2203 57.6154" stroke="#FFFAF1" stroke-width="1.5" stroke-linecap="round" stroke-linejoin="round"/>
<path d="M29.1426 56.5933L29.5573 58.9471" stroke="#FFFAF1" stroke-width="1.5" stroke-linecap="round" stroke-linejoin="round"/>
<path d="M26.0768 56.5875L25.6621 58.9471" stroke="#FFFAF1" stroke-width="1.5" stroke-linecap="round" stroke-linejoin="round"/>
<path d="M23.3375 55.3084L22 57.6271" stroke="#FFFAF1" stroke-width="1.5" stroke-linecap="round" stroke-linejoin="round"/>
<path d="M22.0059 54C22.9871 55.2149 24.786 56.751 27.6129 56.751C30.4398 56.751 32.2388 55.2149 33.22 54" stroke="#FFFAF1" stroke-width="1.5" stroke-linecap="round" stroke-linejoin="round"/>
<rect x="39" y="14" width="28" height="20" rx="2" stroke="#FFFAF1" stroke-width="2"/>
<path d="M47.6667 24L45.1333 22.1C45.0922 22.0687 45.0587 22.0284 45.0356 21.9822C45.0125 21.936 45.0003 21.885 45 21.8333V20.3333C45 20.2449 45.0351 20.1601 45.0976 20.0976C45.1601 20.0351 45.2449 20 45.3333 20H50C50.0884 20 50.1732 20.0351 50.2357 20.0976C50.2982 20.1601 50.3333 20.2449 50.3333 20.3333V21.8167C50.333 21.8684 50.3208 21.9193 50.2977 21.9655C50.2746 22.0118 50.2412 22.0521 50.2 22.0833L47.6667 24Z" stroke="#FFFAF1" stroke-width="1.5" stroke-linecap="round" stroke-linejoin="round"/>
<path d="M47.6667 24L45.1333 25.9C45.0922 25.9313 45.0587 25.9716 45.0356 26.0178C45.0125 26.064 45.0003 26.115 45 26.1667V27.6667C45 27.7551 45.0351 27.8399 45.0976 27.9024C45.1601 27.9649 45.2449 28 45.3333 28H50C50.0884 28 50.1732 27.9649 50.2357 27.9024C50.2982 27.8399 50.3333 27.7551 50.3333 27.6667V26.1833C50.333 26.1316 50.3208 26.0807 50.2977 26.0345C50.2746 25.9882 50.2412 25.9479 50.2 25.9167L47.6667 24Z" stroke="#FFFAF1" stroke-width="1.5" stroke-linecap="round" stroke-linejoin="round"/>
<path d="M56.8907 24.676C56.5511 24.8721 56.2857 25.1747 56.1356 25.537C55.9855 25.8993 55.9592 26.3009 56.0607 26.6797C56.1622 27.0585 56.3858 27.3932 56.6969 27.6319C57.008 27.8706 57.3892 28 57.7813 28C58.1735 28 58.5546 27.8706 58.8657 27.6319C59.1768 27.3932 59.4005 27.0585 59.502 26.6797C59.6035 26.3009 59.5771 25.8993 59.4271 25.537C59.277 25.1747 59.0116 24.8721 58.672 24.676V20.8907C58.672 20.6544 58.5782 20.4279 58.4111 20.2609C58.2441 20.0938 58.0176 20 57.7813 20C57.5451 20 57.3186 20.0938 57.1515 20.2609C56.9845 20.4279 56.8907 20.6544 56.8907 20.8907V24.676Z" stroke="#FFFAF1" stroke-width="1.5" stroke-linecap="round" stroke-linejoin="round"/>
<circle cx="62" cy="21" r="1" stroke="#FFFAF1"/>
<path d="M35.3184 23.9801C30.9637 24.1578 28.9047 29.2407 28.0841 32.9793C27.8993 33.821 27.7901 38.1445 27.7695 38.1342" stroke="#FFFAF1" stroke-width="2" stroke-linecap="round"/>
<path d="M46.0684 56.7642C47.099 56.7118 48.0131 56.3921 48.9768 56.0371C50.0526 55.6407 51.2436 55.3606 52.2218 54.7445C54.639 53.2219 57.0271 50.6321 58.3483 48.1332C59.4924 45.9694 60.0045 43.6374 60.0045 41.2123C60.0045 40.8259 60.2204 39.8301 59.7621 39.6773" stroke="#FFFAF1" stroke-width="2" stroke-linecap="round"/>
</svg>
