<svg width="32" height="32" viewBox="0 0 32 32" fill="none" xmlns="http://www.w3.org/2000/svg">
<rect x="2" y="6" width="28" height="20" rx="2" stroke="#424242" stroke-width="2"/>
<path d="M10.6667 16L8.13333 14.1C8.09217 14.0687 8.05874 14.0284 8.03562 13.9822C8.01251 13.936 8.00032 13.885 8 13.8333V12.3333C8 12.2449 8.03512 12.1601 8.09763 12.0976C8.16014 12.0351 8.24493 12 8.33333 12H13C13.0884 12 13.1732 12.0351 13.2357 12.0976C13.2982 12.1601 13.3333 12.2449 13.3333 12.3333V13.8167C13.333 13.8684 13.3208 13.9193 13.2977 13.9655C13.2746 14.0118 13.2412 14.0521 13.2 14.0833L10.6667 16Z" stroke="#424242" stroke-width="1.5" stroke-linecap="round" stroke-linejoin="round"/>
<path d="M10.6667 16L8.13333 17.9C8.09217 17.9313 8.05874 17.9716 8.03562 18.0178C8.01251 18.064 8.00032 18.115 8 18.1667V19.6667C8 19.7551 8.03512 19.8399 8.09763 19.9024C8.16014 19.9649 8.24493 20 8.33333 20H13C13.0884 20 13.1732 19.9649 13.2357 19.9024C13.2982 19.8399 13.3333 19.7551 13.3333 19.6667V18.1833C13.333 18.1316 13.3208 18.0807 13.2977 18.0345C13.2746 17.9882 13.2412 17.9479 13.2 17.9167L10.6667 16Z" stroke="#424242" stroke-width="1.5" stroke-linecap="round" stroke-linejoin="round"/>
<path d="M19.8907 16.676C19.5511 16.8721 19.2857 17.1747 19.1356 17.537C18.9855 17.8993 18.9592 18.3009 19.0607 18.6797C19.1622 19.0585 19.3858 19.3932 19.6969 19.6319C20.008 19.8706 20.3892 20 20.7813 20C21.1735 20 21.5546 19.8706 21.8657 19.6319C22.1768 19.3932 22.4005 19.0585 22.502 18.6797C22.6035 18.3009 22.5771 17.8993 22.4271 17.537C22.277 17.1747 22.0116 16.8721 21.672 16.676V12.8907C21.672 12.6544 21.5782 12.4279 21.4111 12.2609C21.2441 12.0938 21.0176 12 20.7813 12C20.5451 12 20.3186 12.0938 20.1515 12.2609C19.9845 12.4279 19.8907 12.6544 19.8907 12.8907V16.676Z" stroke="#424242" stroke-width="1.5" stroke-linecap="round" stroke-linejoin="round"/>
<circle cx="25" cy="13" r="1" stroke="#424242"/>
</svg>
