<svg width="80" height="80" viewBox="0 0 80 80" fill="none" xmlns="http://www.w3.org/2000/svg">
<path d="M46 36L53.3333 43.3333M53.3333 36L46 43.3333" stroke="#424242" stroke-width="2" stroke-linecap="round" stroke-linejoin="round"/>
<mask id="path-2-outside-1_4527_14933" maskUnits="userSpaceOnUse" x="18" y="18" width="44" height="44" fill="black">
<rect fill="white" x="18" y="18" width="44" height="44"/>
<path fill-rule="evenodd" clip-rule="evenodd" d="M27.7889 35.0733L31.0577 35.1086C31.4721 35.1133 31.8055 35.4542 31.8004 35.8681L31.7124 44.2524C31.7077 44.665 31.372 44.9965 30.9609 44.9965H30.9534L27.6846 44.9625C27.4853 44.9611 27.2944 44.8782 27.1547 44.7362C27.0155 44.5942 26.9391 44.4019 26.9405 44.2035L27.0285 35.8173C27.0304 35.618 27.1128 35.4271 27.2548 35.2874C27.3968 35.1482 27.5868 35.0998 27.7889 35.0733ZM28.4511 43.4673L30.2168 43.4864L30.2903 36.6038L28.5247 36.5842L28.4511 43.4673ZM40.3086 27.9358C40.5242 27.723 40.8473 27.6601 41.1262 27.7742C41.4079 27.8915 41.59 28.1646 41.59 28.4682V51.7522C41.59 52.0558 41.4066 52.3305 41.1262 52.4465C41.034 52.4842 40.9353 52.5037 40.8385 52.5037C40.6438 52.5037 40.4506 52.4269 40.3072 52.2835L33.1559 45.1337C33.0153 44.993 32.9357 44.8021 32.9357 44.6024V35.5862C32.9357 35.3864 33.0153 35.1941 33.1573 35.0535L40.3086 27.9358ZM34.4382 44.2921L40.0869 49.9388V30.2778L34.4382 35.8999V44.2921ZM25.4137 19H54.808C58.3502 19 61.2218 21.8716 61.2218 25.4137V54.808C61.2218 58.3506 58.3502 61.2218 54.808 61.2218H25.4137C21.8716 61.2218 19 58.3502 19 54.808V25.4137C19 21.8711 21.8716 19 25.4137 19ZM54.808 59.718C57.5157 59.718 59.7186 57.5151 59.7186 54.8074V25.4131C59.7186 22.7054 57.5157 20.5026 54.808 20.5026H25.4137C22.706 20.5026 20.5031 22.7054 20.5031 25.4131V54.8074C20.5031 57.5151 22.706 59.718 25.4137 59.718H54.808Z"/>
</mask>
<path fill-rule="evenodd" clip-rule="evenodd" d="M27.7889 35.0733L31.0577 35.1086C31.4721 35.1133 31.8055 35.4542 31.8004 35.8681L31.7124 44.2524C31.7077 44.665 31.372 44.9965 30.9609 44.9965H30.9534L27.6846 44.9625C27.4853 44.9611 27.2944 44.8782 27.1547 44.7362C27.0155 44.5942 26.9391 44.4019 26.9405 44.2035L27.0285 35.8173C27.0304 35.618 27.1128 35.4271 27.2548 35.2874C27.3968 35.1482 27.5868 35.0998 27.7889 35.0733ZM28.4511 43.4673L30.2168 43.4864L30.2903 36.6038L28.5247 36.5842L28.4511 43.4673ZM40.3086 27.9358C40.5242 27.723 40.8473 27.6601 41.1262 27.7742C41.4079 27.8915 41.59 28.1646 41.59 28.4682V51.7522C41.59 52.0558 41.4066 52.3305 41.1262 52.4465C41.034 52.4842 40.9353 52.5037 40.8385 52.5037C40.6438 52.5037 40.4506 52.4269 40.3072 52.2835L33.1559 45.1337C33.0153 44.993 32.9357 44.8021 32.9357 44.6024V35.5862C32.9357 35.3864 33.0153 35.1941 33.1573 35.0535L40.3086 27.9358ZM34.4382 44.2921L40.0869 49.9388V30.2778L34.4382 35.8999V44.2921ZM25.4137 19H54.808C58.3502 19 61.2218 21.8716 61.2218 25.4137V54.808C61.2218 58.3506 58.3502 61.2218 54.808 61.2218H25.4137C21.8716 61.2218 19 58.3502 19 54.808V25.4137C19 21.8711 21.8716 19 25.4137 19ZM54.808 59.718C57.5157 59.718 59.7186 57.5151 59.7186 54.8074V25.4131C59.7186 22.7054 57.5157 20.5026 54.808 20.5026H25.4137C22.706 20.5026 20.5031 22.7054 20.5031 25.4131V54.8074C20.5031 57.5151 22.706 59.718 25.4137 59.718H54.808Z" fill="#424242"/>
<path d="M31.0577 35.1086L31.0599 34.9087L31.0599 34.9087L31.0577 35.1086ZM27.7889 35.0733L27.7911 34.8733L27.7769 34.8731L27.7629 34.875L27.7889 35.0733ZM31.8004 35.8681L31.6004 35.8657L31.6004 35.866L31.8004 35.8681ZM31.7124 44.2524L31.9124 44.2547L31.9124 44.2545L31.7124 44.2524ZM30.9534 44.9965L30.9513 45.1965H30.9534V44.9965ZM27.6846 44.9625L27.6867 44.7625L27.686 44.7625L27.6846 44.9625ZM27.1547 44.7362L27.0119 44.8762L27.0121 44.8765L27.1547 44.7362ZM26.9405 44.2035L26.7405 44.2014L26.7405 44.2021L26.9405 44.2035ZM27.0285 35.8173L27.2285 35.8194L27.2285 35.8192L27.0285 35.8173ZM27.2548 35.2874L27.1148 35.1446L27.1146 35.1449L27.2548 35.2874ZM30.2168 43.4864L30.2146 43.6864L30.4146 43.6885L30.4167 43.4885L30.2168 43.4864ZM28.4511 43.4673L28.2511 43.4651L28.249 43.6651L28.449 43.6673L28.4511 43.4673ZM30.2903 36.6038L30.4903 36.6059L30.4925 36.406L30.2925 36.4038L30.2903 36.6038ZM28.5247 36.5842L28.5269 36.3843L28.3268 36.382L28.3247 36.5821L28.5247 36.5842ZM41.1262 27.7742L41.2031 27.5896L41.202 27.5891L41.1262 27.7742ZM40.3086 27.9358L40.1681 27.7934L40.1675 27.794L40.3086 27.9358ZM41.1262 52.4465L41.202 52.6316L41.2027 52.6313L41.1262 52.4465ZM40.3072 52.2835L40.4486 52.1421L40.4486 52.142L40.3072 52.2835ZM33.1559 45.1337L33.0145 45.2751L33.0145 45.2751L33.1559 45.1337ZM33.1573 35.0535L33.2981 35.1956L33.2984 35.1953L33.1573 35.0535ZM40.0869 49.9388L39.9455 50.0803L40.2869 50.4216V49.9388H40.0869ZM34.4382 44.2921H34.2382V44.3749L34.2968 44.4335L34.4382 44.2921ZM40.0869 30.2778H40.2869V29.7966L39.9458 30.1361L40.0869 30.2778ZM34.4382 35.8999L34.2972 35.7582L34.2382 35.8168V35.8999H34.4382ZM31.0599 34.9087L27.7911 34.8733L27.7867 35.2732L31.0555 35.3086L31.0599 34.9087ZM32.0004 35.8706C32.0069 35.3459 31.5847 34.9146 31.0599 34.9087L31.0555 35.3086C31.3596 35.3121 31.6042 35.5625 31.6004 35.8657L32.0004 35.8706ZM31.9124 44.2545L32.0004 35.8702L31.6004 35.866L31.5124 44.2503L31.9124 44.2545ZM30.9609 45.1965C31.4817 45.1965 31.9065 44.7767 31.9124 44.2547L31.5124 44.2502C31.509 44.5533 31.2623 44.7965 30.9609 44.7965V45.1965ZM30.9534 45.1965H30.9609V44.7965H30.9534V45.1965ZM27.6825 45.1625L30.9513 45.1965L30.9555 44.7965L27.6867 44.7625L27.6825 45.1625ZM27.0121 44.8765C27.1881 45.0554 27.4294 45.1607 27.6832 45.1625L27.686 44.7625C27.5412 44.7615 27.4007 44.7011 27.2973 44.596L27.0121 44.8765ZM26.7405 44.2021C26.7388 44.4525 26.8351 44.6958 27.0119 44.8762L27.2975 44.5962C27.1959 44.4925 27.1395 44.3513 27.1405 44.2049L26.7405 44.2021ZM26.8285 35.8152L26.7405 44.2014L27.1405 44.2056L27.2285 35.8194L26.8285 35.8152ZM27.1146 35.1449C26.9354 35.3211 26.8309 35.5623 26.8285 35.8155L27.2285 35.8192C27.2299 35.6738 27.2902 35.5332 27.3951 35.43L27.1146 35.1449ZM27.7629 34.875C27.5516 34.9027 27.3055 34.9576 27.1148 35.1446L27.3948 35.4303C27.4881 35.3388 27.622 35.2969 27.815 35.2716L27.7629 34.875ZM30.2189 43.2864L28.4533 43.2673L28.449 43.6673L30.2146 43.6864L30.2189 43.2864ZM30.0903 36.6017L30.0168 43.4842L30.4167 43.4885L30.4903 36.6059L30.0903 36.6017ZM28.5225 36.7842L30.2881 36.8038L30.2925 36.4038L28.5269 36.3843L28.5225 36.7842ZM28.6511 43.4694L28.7247 36.5864L28.3247 36.5821L28.2511 43.4651L28.6511 43.4694ZM41.202 27.5891C40.8492 27.4448 40.4409 27.5241 40.1681 27.7934L40.4491 28.0781C40.6074 27.9218 40.8454 27.8754 41.0505 27.9593L41.202 27.5891ZM41.79 28.4682C41.79 28.0837 41.5592 27.7379 41.2031 27.5896L41.0493 27.9588C41.2567 28.0452 41.39 28.2456 41.39 28.4682H41.79ZM41.79 51.7522V28.4682H41.39V51.7522H41.79ZM41.2027 52.6313C41.5579 52.4843 41.79 52.1366 41.79 51.7522H41.39C41.39 51.975 41.2552 52.1767 41.0498 52.2616L41.2027 52.6313ZM40.8385 52.7037C40.9619 52.7037 41.0862 52.6789 41.202 52.6316L41.0505 52.2613C40.9818 52.2894 40.9088 52.3037 40.8385 52.3037V52.7037ZM40.1658 52.4249C40.3474 52.6065 40.5918 52.7037 40.8385 52.7037V52.3037C40.6958 52.3037 40.5538 52.2472 40.4486 52.1421L40.1658 52.4249ZM33.0145 45.2751L40.1658 52.4249L40.4486 52.142L33.2973 44.9922L33.0145 45.2751ZM32.7357 44.6024C32.7357 44.8554 32.8366 45.0971 33.0145 45.2751L33.2974 44.9922C33.1941 44.889 33.1357 44.7488 33.1357 44.6024H32.7357ZM32.7357 35.5862V44.6024H33.1357V35.5862H32.7357ZM33.0166 34.9114C32.8364 35.0899 32.7357 35.3334 32.7357 35.5862H33.1357C33.1357 35.4394 33.1942 35.2984 33.2981 35.1956L33.0166 34.9114ZM40.1675 27.794L33.0162 34.9118L33.2984 35.1953L40.4497 28.0775L40.1675 27.794ZM40.2283 49.7974L34.5796 44.1506L34.2968 44.4335L39.9455 50.0803L40.2283 49.7974ZM39.8869 30.2778V49.9388H40.2869V30.2778H39.8869ZM34.5793 36.0417L40.228 30.4196L39.9458 30.1361L34.2972 35.7582L34.5793 36.0417ZM34.6382 44.2921V35.8999H34.2382V44.2921H34.6382ZM54.808 18.8H25.4137V19.2H54.808V18.8ZM61.4218 25.4137C61.4218 21.7611 58.4606 18.8 54.808 18.8V19.2C58.2397 19.2 61.0218 21.9821 61.0218 25.4137H61.4218ZM61.4218 54.808V25.4137H61.0218V54.808H61.4218ZM54.808 61.4218C58.4606 61.4218 61.4218 58.4611 61.4218 54.808H61.0218C61.0218 58.2402 58.2397 61.0218 54.808 61.0218V61.4218ZM25.4137 61.4218H54.808V61.0218H25.4137V61.4218ZM18.8 54.808C18.8 58.4606 21.7611 61.4218 25.4137 61.4218V61.0218C21.9821 61.0218 19.2 58.2397 19.2 54.808H18.8ZM18.8 25.4137V54.808H19.2V25.4137H18.8ZM25.4137 18.8C21.7612 18.8 18.8 21.7607 18.8 25.4137H19.2C19.2 21.9816 21.9821 19.2 25.4137 19.2V18.8ZM59.5186 54.8074C59.5186 57.4047 57.4053 59.518 54.808 59.518V59.918C57.6262 59.918 59.9186 57.6256 59.9186 54.8074H59.5186ZM59.5186 25.4131V54.8074H59.9186V25.4131H59.5186ZM54.808 20.7026C57.4053 20.7026 59.5186 22.8159 59.5186 25.4131H59.9186C59.9186 22.595 57.6262 20.3026 54.808 20.3026V20.7026ZM25.4137 20.7026H54.808V20.3026H25.4137V20.7026ZM20.7032 25.4131C20.7032 22.8159 22.8165 20.7026 25.4137 20.7026V20.3026C22.5956 20.3026 20.3031 22.595 20.3031 25.4131H20.7032ZM20.7032 54.8074V25.4131H20.3031V54.8074H20.7032ZM25.4137 59.518C22.8165 59.518 20.7032 57.4047 20.7032 54.8074H20.3031C20.3031 57.6256 22.5956 59.918 25.4137 59.918V59.518ZM54.808 59.518H25.4137V59.918H54.808V59.518Z" fill="#424242" mask="url(#path-2-outside-1_4527_14933)"/>
<path fill-rule="evenodd" clip-rule="evenodd" d="M15.9993 29.7936C12.5692 30.567 10.1948 33.8117 10.5898 37.389L13.6623 65.2199C14.0866 69.0626 17.5455 71.8337 21.3882 71.4095L49.2191 68.3369C51.8687 68.0444 54.0088 66.3091 54.9433 64H52.7093C51.9286 65.2666 50.5931 66.1731 48.9996 66.349L21.1687 69.4216C18.424 69.7246 15.9533 67.7452 15.6502 65.0004L12.5777 37.1695C12.3129 34.7712 13.7908 32.5821 15.9993 31.8656V29.7936Z" fill="#424242"/>
</svg>
