<svg width="80" height="80" viewBox="0 0 80 80" fill="none" xmlns="http://www.w3.org/2000/svg">
<path d="M12.056 37.4207C27.0702 57.0311 12.7432 54.4369 19.104 67.8731C25.4649 81.3095 60.2245 66.0741 65.4886 39.1421C68.6106 23.1693 54.2343 14.6804 37.9395 14.7483C16.8447 14.8362 -0.813442 20.6116 12.056 37.4207Z" fill="#43A24C"/>
<path d="M31.0588 35.0086L31.0588 35.0086C31.5284 35.0139 31.9062 35.4 31.9004 35.8694M31.0588 35.0086L31.8004 35.8681M31.0588 35.0086L27.79 34.9733L27.79 34.9723L27.7759 34.9741C27.5692 35.0013 27.3512 35.0529 27.1848 35.216L27.1847 35.2162C27.0242 35.3741 26.9307 35.5901 26.9285 35.8163M31.0588 35.0086L26.9285 35.8164M31.9004 35.8694L31.8004 35.8681M31.9004 35.8694L31.9004 35.8692L31.8004 35.8681M31.9004 35.8694L31.8124 44.2535L31.8124 44.2535C31.8071 44.7208 31.4268 45.0965 30.9609 45.0965H30.9534H30.9524L27.6839 45.0625M31.8004 35.8681L31.7124 44.2524C31.7077 44.665 31.372 44.9965 30.9609 44.9965H30.9534L27.6846 44.9625M27.6839 45.0625L27.6846 44.9625M27.6839 45.0625C27.4573 45.0609 27.2412 44.9668 27.0834 44.8063L27.0833 44.8062C26.9253 44.645 26.8389 44.4272 26.8405 44.2028L26.8405 44.2025L26.9285 35.8164M27.6839 45.0625L27.6836 45.0625L27.6846 44.9625M27.6846 44.9625L26.9285 35.8164M27.0285 35.8173L26.9405 44.2035M27.0285 35.8173C27.0304 35.618 27.1128 35.4271 27.2548 35.2874C27.3968 35.1482 27.5868 35.0998 27.7889 35.0733L31.0577 35.1086L26.9405 44.2035M27.0285 35.8173L26.9285 35.8164M27.0285 35.8173L26.9285 35.8163M26.9405 44.2035C26.9391 44.4019 27.0155 44.5942 27.1547 44.7362L26.9405 44.2035ZM26.9285 35.8164L26.9285 35.8163M26.9285 35.8164L26.9285 35.8163M41.1647 27.6819L41.1641 27.6816C40.8483 27.5525 40.4825 27.6235 40.2383 27.8646L40.238 27.8649L33.087 34.9825C32.9258 35.142 32.8357 35.3599 32.8357 35.5862V44.6024C32.8357 44.8288 32.9259 45.0451 33.0852 45.2044L33.1559 45.1337L33.0852 45.2044L40.2365 52.3542C40.399 52.5167 40.6178 52.6037 40.8385 52.6037C40.9486 52.6037 41.0601 52.5815 41.1641 52.539L41.1645 52.5389C41.4822 52.4074 41.69 52.0962 41.69 51.7522V28.4682C41.69 28.1241 41.4836 27.8147 41.1647 27.6819ZM44.8374 34.5186L44.8372 34.5187C44.495 34.8414 44.4779 35.3801 44.8009 35.7227C45.8956 36.8837 46.4725 38.4007 46.4267 39.9959C46.3786 41.5904 45.7151 43.071 44.5541 44.1634L44.554 44.1635C44.2118 44.4862 44.1947 45.0249 44.5178 45.3674L44.5178 45.3674C44.6856 45.5452 44.912 45.6349 45.1381 45.6349C45.3474 45.6349 45.5571 45.5583 45.722 45.4034L45.7222 45.4033C48.8006 42.5018 48.9451 37.6339 46.0412 34.555C45.7183 34.2126 45.1797 34.1974 44.8374 34.5186ZM48.5028 30.5304L48.5027 30.5305C48.1605 30.8532 48.1434 31.3919 48.4664 31.7344C52.9243 36.4634 52.7068 43.9363 47.9784 48.3924L47.9784 48.3924C47.6362 48.7151 47.6191 49.2538 47.9421 49.5963L47.9422 49.5964C48.1099 49.7741 48.3364 49.8638 48.5625 49.8638C48.7718 49.8638 48.9814 49.7872 49.1464 49.6323L49.1466 49.6322C54.5579 44.5305 54.8093 35.9764 49.7067 30.5649L49.7066 30.5648C49.3831 30.2228 48.845 30.2088 48.5028 30.5304ZM30.1893 36.7027L30.1178 43.3853L28.5522 43.3684L28.6236 36.6853L30.1893 36.7027ZM39.9869 30.5184V49.6975L34.5382 44.2506V35.9415L39.9869 30.5184ZM54.808 18.9H25.4137C21.8164 18.9 18.9 21.8159 18.9 25.4137V54.808C18.9 58.4054 21.8164 61.3218 25.4137 61.3218H54.808C58.4054 61.3218 61.3218 58.4059 61.3218 54.808V25.4137C61.3218 21.8164 58.4054 18.9 54.808 18.9ZM59.6186 54.8074C59.6186 57.4599 57.4605 59.618 54.808 59.618H25.4137C22.7613 59.618 20.6032 57.4599 20.6032 54.8074V25.4131C20.6032 22.7607 22.7613 20.6026 25.4137 20.6026H54.808C57.4605 20.6026 59.6186 22.7607 59.6186 25.4131V54.8074Z" fill="#FFFAF1" stroke="#FFFAF1" stroke-width="0.2"/>
<path fill-rule="evenodd" clip-rule="evenodd" d="M17 27.6736C14.6351 28.7971 13 31.2076 13 34V60C13 63.866 16.134 67 20 67H46C48.7924 67 51.2029 65.3649 52.3264 63H50.0004C49.0882 64.2144 47.6358 65 46 65H20C17.2386 65 15 62.7614 15 60V34C15 32.3642 15.7856 30.9118 17 29.9996V27.6736Z" fill="#FFFAF1"/>
</svg>
