<svg width="280" height="280" viewBox="0 0 280 280" fill="none" xmlns="http://www.w3.org/2000/svg">
<path fill-rule="evenodd" clip-rule="evenodd" d="M140.222 57L156.963 85.9274L237.947 85.9274C237.947 87.1308 237.924 88.3318 237.88 89.53C236.973 113.947 226.876 137.177 209.536 154.517C206.838 157.215 203.997 159.738 201.031 162.078L236.593 223.529H46.6386L42 221.983L78.7068 160.327C76.5141 158.492 74.3951 156.554 72.3574 154.517C55.0173 137.177 44.9203 113.947 44.0136 89.53C43.9691 88.3318 43.9468 87.1308 43.9468 85.9274L123 85.9274L140.222 57ZM140.178 64.1164L152.8 85.9274L127.193 85.9274L140.178 64.1164ZM139.455 89.53H125.048L83.3982 159.489C99.3536 171.972 119.022 178.987 139.455 179.313L139.455 89.53ZM143.058 89.53L143.058 179.301C162.352 178.865 180.937 172.467 196.324 161.137L154.885 89.53H143.058ZM139.455 182.916C118.368 182.592 98.0618 175.408 81.5409 162.609L47.4169 219.926H139.455V182.916ZM143.058 219.926V182.904C162.991 182.471 182.2 175.91 198.139 164.273L230.346 219.926H143.058ZM47.6188 89.53L120.855 89.53L80.5744 157.19C78.6208 155.534 76.729 153.794 74.9048 151.969C58.2404 135.305 48.5236 112.992 47.6188 89.53ZM159.047 89.53L199.207 158.926C201.916 156.765 204.515 154.444 206.989 151.969C223.653 135.305 233.37 112.992 234.275 89.53L159.047 89.53Z" fill="#B97A1B"/>
</svg>
