<svg width="80" height="80" viewBox="0 0 80 80" fill="none" xmlns="http://www.w3.org/2000/svg">
<path d="M19.2157 32.5576C19.8331 26.5727 24.8318 22 30.9442 22C35.1121 22 38.8893 24.1488 41.0248 27.668C41.615 27.4905 42.2288 27.4007 42.8594 27.4007C44.5123 27.4007 46.0217 28.0305 47.1603 29.0669C47.7804 28.9671 48.4134 28.9091 49.0547 28.9091C55.1698 28.9091 60.1689 33.4818 60.784 39.4667C65.0126 40.5593 68 44.3606 68 48.8076C68 54.1292 63.6711 58.4585 58.3504 58.4585C40.2703 58.4504 44.3538 57.9787 44.3538 57.3862C44.3538 56.7932 38.5 56 58.3504 56.3138C62.4884 56.3138 65.8553 52.9464 65.8553 48.8076C65.8553 45.1232 63.2208 42.012 59.5934 41.4057C59.3763 41.3698 58.8707 41.4264 58.7272 41.2612C58.5823 41.0961 58.7056 40.6029 58.6973 40.383C58.5266 35.152 54.2921 31.0541 49.0541 31.0541C45.3771 31.0541 42.0682 33.0998 40.4207 36.3941C40.3025 36.6315 40.1972 37.2562 39.946 37.3422C39.6953 37.4269 39.2316 36.9949 38.9928 36.879C38.4123 36.5979 37.7889 36.4548 37.1394 36.4548C34.8861 36.4548 33.0226 38.2153 32.8984 40.464C32.8859 40.6696 32.9853 41.132 32.8524 41.2879C32.7171 41.4448 32.2451 41.413 32.0427 41.4544C28.5759 42.1679 26.0591 45.2594 26.0591 48.8062C26.0591 52.9451 29.4274 56.3124 33.5653 56.3124C57 56 48.6705 56.8281 48.6705 57.3862C48.6705 57.9451 51 58.4552 33.5653 58.4474C28.3044 58.3752 23.9144 54.0831 23.9144 48.8057C23.9144 44.5099 26.7891 40.7322 30.8507 39.5421C31.3985 36.5501 34.0202 34.3097 37.1397 34.3097C37.7699 34.3097 38.3845 34.3994 38.9757 34.5761C40.2784 32.4295 42.1931 30.7969 44.433 29.8465C43.9449 29.6515 43.4145 29.5434 42.8583 29.5434C42.2088 29.5434 41.5863 29.6855 41.0062 29.9671C40.7675 30.083 40.3024 30.5154 40.053 30.4303C39.8023 30.3448 39.6974 29.7196 39.5797 29.4827C37.9309 26.1888 34.6224 24.1422 30.9431 24.1422C25.708 24.1422 21.4734 28.2401 21.3013 33.4711C21.2944 33.6896 21.4182 34.1832 21.2728 34.3484C21.1293 34.5135 20.6219 34.4565 20.4066 34.4933C16.7765 35.0987 14.1447 38.2107 14.1447 41.8952C14.1447 46.0332 17.5116 49.4014 21.6496 49.4014C22.2431 49.4014 22.722 49.8812 22.722 50.4733C22.722 51.0663 22.2435 51.5456 21.6496 51.5456C16.3294 51.5456 12 47.2167 12 41.8957C12.0005 37.4499 14.988 33.6484 19.2157 32.5576Z" fill="#424242"/>
</svg>
