<svg width="80" height="80" viewBox="0 0 80 80" fill="none" xmlns="http://www.w3.org/2000/svg">
<path fill-rule="evenodd" clip-rule="evenodd" d="M24.2346 13.0279C23.6978 12.8983 23.1575 13.2285 23.0279 13.7653C22.8983 14.3022 23.2285 14.8425 23.7654 14.9721C26.0957 15.5346 29.5998 16.8182 32.4955 18.8112C35.4131 20.8193 37.5 23.3906 37.5 26.5C37.5 28.4143 36.5097 30.4367 34.8176 32.6305C33.1836 34.7489 31.01 36.8859 28.7544 39.1034L28.549 39.3053C26.2472 41.5687 23.8774 43.9154 22.0891 46.3135C20.3057 48.7051 19.0001 51.2768 19 54C18.9999 58.4548 20.2719 61.4654 21.8337 63.4865C23.3857 65.4947 25.1673 66.4516 26.053 66.8944C26.547 67.1414 27.1477 66.9412 27.3947 66.4472C27.6416 65.9532 27.4414 65.3525 26.9474 65.1055C26.1664 64.715 24.6978 63.9219 23.4163 62.2635C22.1446 60.6179 20.9999 58.0451 21 54C21.0001 51.9143 22.007 49.7691 23.6924 47.5091C25.3729 45.2555 27.628 43.0158 29.9512 40.7314L30.2038 40.483C32.4203 38.3044 34.6814 36.0818 36.4012 33.852C38.1779 31.5486 39.5 29.0857 39.5 26.5C39.5 22.4094 36.7536 19.314 33.6295 17.1637C30.4835 14.9984 26.7376 13.6321 24.2346 13.0279ZM38.4091 13.5875C37.9051 13.3616 37.3134 13.587 37.0875 14.0909C36.8616 14.5949 37.087 15.1866 37.5909 15.4125C39.9615 16.4752 43.5181 18.3654 46.4644 20.5639C47.9388 21.6641 49.2248 22.8154 50.1331 23.9511C51.0533 25.1018 51.5 26.1287 51.5 27C51.5 28.2863 51.0395 29.7545 50.3078 31.4566C49.946 32.2983 49.5309 33.1692 49.0933 34.0826L49.026 34.2231L49.0259 34.2232C48.6116 35.0878 48.1801 35.9881 47.7731 36.9077C46.0668 40.7625 44.6588 45.2263 46.5753 49.8807C48.4156 54.35 52.1841 58.4797 56.1378 61.5407C60.0655 64.5815 64.3754 66.7201 67.4095 66.9959C67.9595 67.0459 68.4459 66.6405 68.4959 66.0905C68.5459 65.5405 68.1406 65.0541 67.5905 65.0041C65.1246 64.7799 61.1845 62.9185 57.3622 59.9593C53.5659 57.0202 50.0844 53.15 48.4247 49.1192C46.8412 45.2736 47.9332 41.4874 49.6019 37.7172C49.9964 36.826 50.4159 35.9506 50.8332 35.0797L50.897 34.9467C51.3324 34.0378 51.7649 33.1313 52.1453 32.2465C52.898 30.4954 53.5 28.7137 53.5 27C53.5 25.4712 52.7383 24.0065 51.695 22.702C50.6398 21.3825 49.207 20.115 47.6606 18.961C44.5652 16.6513 40.8718 14.6915 38.4091 13.5875ZM40 22.5C40 21.9477 40.4477 21.5 41 21.5H44C44.5523 21.5 45 21.9477 45 22.5C45 23.0523 44.5523 23.5 44 23.5H41C40.4477 23.5 40 23.0523 40 22.5ZM43 29C42.4477 29 42 29.4477 42 30C42 30.5523 42.4477 31 43 31H48C48.5523 31 49 30.5523 49 30C49 29.4477 48.5523 29 48 29H43ZM33 40C33 39.4477 33.4477 39 34 39H38C38.5523 39 39 39.4477 39 40C39 40.5523 38.5523 41 38 41H34C33.4477 41 33 40.5523 33 40ZM36 51C35.4477 51 35 51.4477 35 52C35 52.5523 35.4477 53 36 53H43C43.5523 53 44 52.5523 44 52C44 51.4477 43.5523 51 43 51H36ZM25 58C25 57.4477 25.4477 57 26 57H33C33.5523 57 34 57.4477 34 58C34 58.5523 33.5523 59 33 59H26C25.4477 59 25 58.5523 25 58ZM45 62C44.4477 62 44 62.4477 44 63C44 63.5523 44.4477 64 45 64H52C52.5523 64 53 63.5523 53 63C53 62.4477 52.5523 62 52 62H45Z" fill="#424242"/>
</svg>
