<svg width="32" height="32" viewBox="0 0 32 32" fill="none" xmlns="http://www.w3.org/2000/svg">
<path fill-rule="evenodd" clip-rule="evenodd" d="M10.1147 13.0828L13.8675 8.25768V23.3307L10.1147 18.5056C9.92522 18.262 9.63392 18.1195 9.32533 18.1195H7.10844C7.07968 18.1195 7.0521 18.1081 7.03176 18.0877C7.01143 18.0674 7 18.0398 7 18.0111V13.5773C7 13.5485 7.01143 13.5209 7.03176 13.5006C7.0521 13.4803 7.07968 13.4688 7.10844 13.4688H9.32533C9.63392 13.4688 9.92522 13.3264 10.1147 13.0828ZM14.5899 6.09682C14.1627 5.95441 13.6986 5.96951 13.2815 6.13939C12.8986 6.29537 12.5785 6.57239 12.3691 6.9266L8.83624 11.4688H7.10844C6.54925 11.4688 6.01296 11.691 5.61755 12.0864C5.22214 12.4818 5 13.0181 5 13.5773V18.0111C5 18.5702 5.22214 19.1065 5.61755 19.5019C6.01296 19.8974 6.54925 20.1195 7.10844 20.1195H8.83624L12.3691 24.6617C12.5785 25.016 12.8986 25.293 13.2815 25.4489C13.6986 25.6188 14.1627 25.6339 14.5899 25.4915C15.0172 25.3491 15.3794 25.0586 15.6111 24.6724C15.8256 24.3149 15.9152 23.8972 15.8675 23.4848V8.10353C15.9152 7.69114 15.8256 7.27345 15.6111 6.9159C15.3794 6.52976 15.0171 6.23923 14.5899 6.09682ZM21.5167 7.40653C21.8638 6.97697 22.4934 6.91015 22.923 7.25729C24.1961 8.28616 25.2231 9.58679 25.9285 11.0639C26.634 12.541 27.0001 14.1572 27.0001 15.7942C27.0001 17.4311 26.634 19.0473 25.9285 20.5244C25.2231 22.0015 24.1961 23.3022 22.923 24.331C22.4934 24.6782 21.8638 24.6113 21.5167 24.1818C21.1695 23.7522 21.2363 23.1226 21.6659 22.7755C22.7071 21.9341 23.5469 20.8705 24.1238 19.6625C24.7007 18.4545 25.0001 17.1328 25.0001 15.7942C25.0001 14.4555 24.7007 13.1338 24.1238 11.9258C23.5469 10.7179 22.7071 9.65424 21.6659 8.81284C21.2363 8.46571 21.1695 7.83608 21.5167 7.40653ZM18.5013 10.7604C18.8326 10.3186 19.4594 10.229 19.9013 10.5604C20.7138 11.1698 21.3733 11.96 21.8275 12.8684C22.2817 13.7768 22.5182 14.7785 22.5182 15.7942C22.5182 16.8098 22.2817 17.8115 21.8275 18.7199C21.3733 19.6284 20.7138 20.4186 19.9013 21.028C19.4594 21.3593 18.8326 21.2698 18.5013 20.828C18.1699 20.3861 18.2594 19.7593 18.7013 19.4279C19.2654 19.0049 19.7233 18.4562 20.0386 17.8255C20.354 17.1948 20.5182 16.4993 20.5182 15.7942C20.5182 15.089 20.354 14.3936 20.0386 13.7628C19.7233 13.1321 19.2654 12.5835 18.7013 12.1604C18.2594 11.829 18.1699 11.2022 18.5013 10.7604Z" fill="#424242"/>
</svg>
