<svg width="32" height="32" viewBox="0 0 32 32" fill="none" xmlns="http://www.w3.org/2000/svg">
<path d="M16.45 13.5198V17.1377M16.45 20.7556H16.459M14.9033 8.87078L7.24242 21.6601C7.08447 21.9336 7.00089 22.2438 7.00001 22.5596C6.99912 22.8755 7.08096 23.1861 7.23738 23.4605C7.39379 23.7349 7.61934 23.9636 7.89157 24.1238C8.1638 24.2839 8.47323 24.3701 8.78907 24.3735H24.1109C24.4268 24.3701 24.7362 24.2839 25.0084 24.1238C25.2807 23.9636 25.5062 23.7349 25.6626 23.4605C25.819 23.1861 25.9009 22.8755 25.9 22.5596C25.8991 22.2438 25.8155 21.9336 25.6576 21.6601L17.9967 8.87078C17.8354 8.60496 17.6084 8.38518 17.3375 8.23266C17.0666 8.08013 16.7609 8 16.45 8C16.1391 8 15.8334 8.08013 15.5625 8.23266C15.2916 8.38518 15.0646 8.60496 14.9033 8.87078Z" stroke="white" stroke-width="2" stroke-linecap="round" stroke-linejoin="round"/>
</svg>
