<svg width="80" height="80" viewBox="0 0 80 80" fill="none" xmlns="http://www.w3.org/2000/svg">
<path fill-rule="evenodd" clip-rule="evenodd" d="M12 40C12 39.4477 12.4477 39 13 39C13.5523 39 14 39.4477 14 40V41C14 41.5523 13.5523 42 13 42C12.4477 42 12 41.5523 12 41V40ZM17 40C17 39.4477 17.4477 39 18 39C18.5523 39 19 39.4477 19 40V41C19 41.5523 18.5523 42 18 42C17.4477 42 17 41.5523 17 41V40ZM28 39C27.4477 39 27 39.4477 27 40V41C27 41.5523 27.4477 42 28 42C28.5523 42 29 41.5523 29 41V40C29 39.4477 28.5523 39 28 39ZM38 40C38 39.4477 38.4477 39 39 39C39.5523 39 40 39.4477 40 40V41C40 41.5523 39.5523 42 39 42C38.4477 42 38 41.5523 38 41V40ZM50 39C49.4477 39 49 39.4477 49 40V41C49 41.5523 49.4477 42 50 42C50.5523 42 51 41.5523 51 41V40C51 39.4477 50.5523 39 50 39ZM61 40C61 39.4477 61.4477 39 62 39C62.5523 39 63 39.4477 63 40V41C63 41.5523 62.5523 42 62 42C61.4477 42 61 41.5523 61 41V40ZM23 39C22.4477 39 22 39.4477 22 40V41C22 41.5523 22.4477 42 23 42C23.5523 42 24 41.5523 24 41V40C24 39.4477 23.5523 39 23 39ZM44 40C44 39.4477 44.4477 39 45 39C45.5523 39 46 39.4477 46 40V41C46 41.5523 45.5523 42 45 42C44.4477 42 44 41.5523 44 41V40ZM56 39C55.4477 39 55 39.4477 55 40V41C55 41.5523 55.4477 42 56 42C56.5523 42 57 41.5523 57 41V40C57 39.4477 56.5523 39 56 39ZM33 40C33 39.4477 33.4477 39 34 39C34.5523 39 35 39.4477 35 40V41C35 41.5523 34.5523 42 34 42C33.4477 42 33 41.5523 33 41V40ZM67 39C66.4477 39 66 39.4477 66 40V41C66 41.5523 66.4477 42 67 42C67.5523 42 68 41.5523 68 41V40C68 39.4477 67.5523 39 67 39Z" fill="#424242"/>
</svg>
