<svg width="80" height="80" viewBox="0 0 80 80" fill="none" xmlns="http://www.w3.org/2000/svg">
<path d="M62.591 41.062H24.4066L24.4041 29.3609C24.4041 28.4199 23.642 27.6579 22.7011 27.6579C21.7575 27.6579 20.9955 28.4199 20.9955 29.3609V41.062H17.6943C14.4955 41.0671 11.9026 43.6599 11.9 46.8588V56.6857C11.9026 59.8846 14.4954 62.4774 17.6943 62.48H62.591C65.7898 62.4774 68.3827 59.8846 68.3853 56.6857V46.8588C68.3827 43.6599 65.7899 41.0671 62.591 41.062ZM64.9767 56.6828V56.6853C64.9767 57.3169 64.7261 57.9255 64.2786 58.373C63.8311 58.8204 63.2225 59.071 62.591 59.071H17.6943C16.3775 59.071 15.3086 58.0022 15.3086 56.6853V46.8584C15.3086 45.5415 16.3775 44.4727 17.6943 44.4727H62.591C63.9078 44.4727 64.9767 45.5415 64.9767 46.8584V56.6828ZM42.7483 51.7758C42.7483 52.2258 42.5667 52.6606 42.2471 52.9801C41.9275 53.2998 41.4954 53.4788 41.0428 53.4788H21.4786C20.5376 53.4788 19.7756 52.7167 19.7756 51.7757C19.7756 50.8322 20.5376 50.0702 21.4786 50.0702H41.0428C41.4954 50.0702 41.9275 50.2492 42.2471 50.5688C42.5667 50.8884 42.7483 51.3231 42.7483 51.7758ZM51.9383 51.7758C51.9383 52.2258 51.7593 52.6606 51.4397 52.9801C51.1201 53.2998 50.6854 53.4788 50.2354 53.4788H48.0184C47.0774 53.4788 46.3129 52.7167 46.3129 51.7757C46.3129 50.8322 47.0774 50.0702 48.0184 50.0702H50.2354C50.6854 50.0702 51.1201 50.2492 51.4397 50.5688C51.7593 50.8884 51.9383 51.3231 51.9383 51.7758ZM60.5097 51.7758C60.5097 52.2258 60.3307 52.6606 60.0111 52.9801C59.6915 53.2998 59.2568 53.4788 58.8068 53.4788H56.5898C55.6488 53.4788 54.8842 52.7167 54.8842 51.7757C54.8842 50.8322 55.6488 50.0702 56.5898 50.0702H58.8068C59.2568 50.0702 59.6915 50.2492 60.0111 50.5688C60.3307 50.8884 60.5097 51.3231 60.5097 51.7758ZM53.0125 35.9122L53.0099 35.9147C53.0125 36.7867 52.4883 37.5769 51.6828 37.9118C50.8774 38.2468 49.9492 38.0627 49.3303 37.4464C48.7141 36.8276 48.5299 35.8994 48.8649 35.0939C49.1999 34.2884 49.9901 33.7643 50.862 33.7668C51.4373 33.7592 51.9923 33.9816 52.4014 34.3856C52.8105 34.7897 53.0432 35.3394 53.0432 35.9147L53.0125 35.9122ZM61.1184 24.2825C58.2955 21.7817 54.6593 20.4034 50.8903 20.4034C47.1212 20.4034 43.4828 21.7817 40.6621 24.2825C40.3271 24.6047 39.8745 24.776 39.4091 24.7556C38.9437 24.7351 38.509 24.528 38.1996 24.1777C37.8927 23.8299 37.7419 23.3696 37.7828 22.9068C37.8211 22.444 38.0487 22.0169 38.4118 21.7255C41.851 18.68 46.2874 17 50.8827 17C55.478 17 59.9142 18.68 63.3535 21.7255C63.9084 22.1857 64.113 22.9477 63.8624 23.6228C63.6118 24.3004 62.9649 24.7479 62.2437 24.7376C61.8244 24.7325 61.4228 24.5689 61.1184 24.2825ZM55.6208 30.6035C52.9333 28.1845 48.8522 28.1845 46.1651 30.6035C45.4619 31.23 44.3853 31.1686 43.7563 30.4654C43.1298 29.7648 43.1912 28.6857 43.8944 28.0592C45.8173 26.3332 48.3104 25.3794 50.8928 25.3794C53.4751 25.3794 55.9685 26.3331 57.8911 28.0592C58.5943 28.6857 58.6557 29.7648 58.0292 30.4654C57.4002 31.1686 56.324 31.23 55.6208 30.6035Z" fill="#212121"/>
</svg>
