<svg width="32" height="32" viewBox="0 0 32 32" fill="none" xmlns="http://www.w3.org/2000/svg">
<path d="M16 24H16.0133" stroke="#424242" stroke-width="2" stroke-linecap="round" stroke-linejoin="round"/>
<path d="M12.2295 20.2293C13.2296 19.2295 14.586 18.6678 16.0002 18.6678C17.4144 18.6678 18.7707 19.2295 19.7708 20.2293" stroke="#424242" stroke-width="2" stroke-linecap="round" stroke-linejoin="round"/>
<path d="M19.1599 13.8107C20.8168 14.328 22.3216 15.2436 23.5426 16.4773M8.45728 16.4573C9.87118 15.0394 11.6572 14.0503 13.6093 13.604L8.45728 16.4573Z" stroke="#424242" stroke-width="2" stroke-linecap="round" stroke-linejoin="round"/>
<path d="M13.5465 8.18669C16.0333 7.80109 18.576 8.00751 20.968 8.78917C23.36 9.57084 25.534 10.9057 27.3132 12.6854M4.68652 12.6867C6.05111 11.3193 7.65205 10.2103 9.41186 9.41336L4.68652 12.6867Z" stroke="#424242" stroke-width="2" stroke-linecap="round" stroke-linejoin="round"/>
<path d="M4 4L28 28" stroke="#424242" stroke-width="2" stroke-linecap="round" stroke-linejoin="round"/>
</svg>
