<svg width="80" height="80" viewBox="0 0 80 80" fill="none" xmlns="http://www.w3.org/2000/svg">
<path d="M38.3374 52.8652L38.3363 52.8648C38.0544 52.7408 37.774 52.6166 37.495 52.493C34.816 51.3064 32.2566 50.1727 29.5918 49.7958C29.5917 49.7958 29.5917 49.7958 29.5917 49.7958L29.6197 49.5977C29.3102 49.554 29.045 49.221 29.0899 48.8885L38.3374 52.8652ZM38.3374 52.8652C41.3116 54.1512 44.41 55.41 47.8728 55.4544L47.8764 55.4544C52.1985 55.4322 56.5219 53.4913 61.3492 48.725C61.6323 48.4823 61.6327 48.0969 61.5145 47.8157C61.3956 47.5333 61.1193 47.2644 60.7437 47.2909C60.7297 47.291 60.7034 47.2916 60.6752 47.2963C60.6557 47.2995 60.6213 47.3067 60.5844 47.3259C60.442 47.3636 60.3133 47.4485 60.2136 47.5485C55.563 52.1161 51.7082 53.7683 47.8955 53.8121H47.8767C44.8128 53.7675 41.9141 52.6309 38.9819 51.345C38.7123 51.2255 38.4423 51.1049 38.1718 50.9841C35.4898 49.7862 32.757 48.5656 29.8014 48.1574C29.5824 48.1258 29.3642 48.2048 29.2018 48.3302C29.0408 48.4544 28.9088 48.6446 28.8909 48.868L38.3374 52.8652ZM26.7623 23.823L26.7623 23.823L26.7594 23.8233C24.1198 24.0485 21.3522 25.0386 18.3972 27.2944C17.9907 27.5371 17.8878 28.1073 18.1447 28.483L18.1444 28.4831L18.1508 28.4915C18.2992 28.6858 18.5243 28.7921 18.7461 28.8132C18.9628 28.8338 19.1974 28.7746 19.3679 28.6101C22.1277 26.5052 24.5855 25.6043 26.897 25.4249C29.2146 25.2451 31.4044 25.7889 33.6307 26.6053C34.7425 27.0131 35.8545 27.4986 36.9833 28.0008C37.1321 28.067 37.2812 28.1335 37.4307 28.2001C38.4129 28.6382 39.4091 29.0825 40.4235 29.4895C42.7604 30.4272 45.2106 31.1746 47.8682 31.2095C48.0986 31.2225 48.3094 31.1216 48.4592 30.9741C48.6101 30.8256 48.7142 30.6154 48.7142 30.3879C48.7142 30.1723 48.6159 29.969 48.4727 29.8217C48.3291 29.674 48.1258 29.5677 47.8978 29.5672C45.532 29.5342 43.2778 28.8406 41.0237 27.9346C40.0814 27.5559 39.1425 27.1415 38.196 26.7237C38.0101 26.6416 37.824 26.5595 37.6374 26.4774C36.5027 25.9783 35.3555 25.4841 34.1861 25.0549C32.1445 24.2962 30.0037 23.7786 27.746 23.8007H27.743C27.415 23.8007 27.0783 23.8007 26.7623 23.823ZM60.7034 28.6831L60.7015 28.6834C60.5118 28.7103 60.3323 28.7938 60.206 28.9454C55.5585 33.5084 51.7057 35.1594 47.8949 35.2026H47.8762C45.5205 35.1695 43.2714 34.4815 41.0202 33.581C40.0704 33.2011 39.1237 32.7849 38.1689 32.3652C37.9918 32.2873 37.8143 32.2093 37.6366 32.1313C36.5023 31.6342 35.3552 31.1412 34.1861 30.7119C31.8462 29.8527 29.385 29.2664 26.7602 29.4692C24.1353 29.6719 21.3629 30.6626 18.3961 32.9298C17.9897 33.1725 17.8868 33.7427 18.1436 34.1183L18.1434 34.1185L18.15 34.1271C18.2983 34.3207 18.5233 34.4269 18.7449 34.4481C18.9615 34.4689 19.1963 34.4101 19.3669 34.2454C22.1267 32.1402 24.5845 31.2394 26.8957 31.0628C29.2131 30.8858 31.4028 31.435 33.6289 32.2621L33.6296 32.2624C34.7416 32.6704 35.8537 33.1547 36.9825 33.6549C37.1215 33.7164 37.2607 33.7783 37.4002 33.8402C38.3922 34.2807 39.3982 34.7273 40.4228 35.136C42.7612 36.0688 45.2128 36.8107 47.8719 36.8448V36.8448L47.8756 36.8448C52.1992 36.8214 56.5237 34.8585 61.3522 30.1116C61.6312 29.8456 61.6224 29.4571 61.4922 29.1744C61.3632 28.8944 61.0745 28.6343 60.7034 28.6831ZM13.5908 33.6049C13.5718 33.6049 13.553 33.6076 13.5348 33.6129C13.3554 33.6652 13.1528 33.7735 13.0289 33.9572C12.1506 35.183 11.7577 36.4236 11.8036 37.5618L11.8035 37.5618L11.8038 37.5661C11.873 38.6871 12.4085 39.6761 13.2968 40.3118C15.0424 41.5758 17.8486 41.4739 20.7301 39.6519L20.7311 39.6513C23.2817 38.0176 25.582 37.4039 27.7676 37.3986C29.9577 37.3933 32.047 37.9987 34.1771 38.8272L34.1775 38.8273C35.2469 39.2411 36.3172 39.716 37.4041 40.1987L37.4329 40.2115C38.5089 40.6894 39.601 41.1745 40.7162 41.6106C42.967 42.4907 45.3241 43.1765 47.8717 43.2103V43.2104L47.8754 43.2104C52.199 43.1881 56.5239 41.2459 61.3532 36.4766C62.8196 35.0443 64.5348 35.2403 65.6067 36.1128L65.6067 36.1129L65.6107 36.116C66.1434 36.5277 66.488 37.1223 66.5481 37.7718L66.5482 37.7727C66.6087 38.3953 66.4139 39.1406 65.6723 39.9721L65.6721 39.972L65.6665 39.9789C65.5287 40.1481 65.4756 40.3728 65.4891 40.581C65.5026 40.7897 65.5848 41.0087 65.752 41.162L65.7518 41.1622L65.76 41.1689C65.927 41.3066 66.1452 41.3615 66.3502 41.3475C66.5558 41.3334 66.7673 41.2486 66.9177 41.0818L66.92 41.0792C67.8755 39.9816 68.2975 38.7536 68.1811 37.6018C68.0874 36.4755 67.4805 35.4962 66.6308 34.8037L66.6305 34.8034C64.968 33.4549 62.2288 33.2992 60.2131 35.304C55.562 39.8724 51.7073 41.5235 47.8952 41.5457H47.8758C45.6178 41.5126 43.4556 40.8846 41.2963 40.043C40.2185 39.6229 39.1449 39.151 38.0609 38.6745L38.0546 38.6717C36.9698 38.1949 35.8747 37.7137 34.7625 37.2796L34.7617 37.2793C32.5348 36.4208 30.204 35.7678 27.7292 35.7818C25.251 35.7957 22.6403 36.4783 19.8537 38.2719C17.3347 39.8456 15.2692 39.7209 14.2597 38.9903C13.775 38.6237 13.4785 38.1241 13.4586 37.4599L13.4587 37.4599L13.4583 37.4536C13.4183 36.8035 13.6587 35.9404 14.3672 34.9239C14.5821 34.6564 14.5531 34.3074 14.4182 34.0526C14.2835 33.7982 14.0116 33.5783 13.6704 33.6049H13.5908ZM60.7034 41.2378L60.7015 41.2381C60.5123 41.2649 60.3325 41.3477 60.2059 41.5002C55.5576 46.0634 51.7051 47.7357 47.8956 47.7573H47.876C45.5205 47.7242 43.2714 47.0361 41.0202 46.1356C40.0699 45.7555 39.1229 45.3391 38.1676 44.9191C37.9909 44.8414 37.8139 44.7635 37.6366 44.6858C36.5023 44.1886 35.3552 43.6955 34.1861 43.2661L34.1861 43.2661C31.8456 42.4067 29.3844 41.8261 26.7598 42.0317C24.1351 42.2373 21.363 43.2279 18.3962 45.4839C18.1897 45.6077 18.0665 45.8188 18.0224 46.031C17.9776 46.2461 18.0084 46.4903 18.1481 46.6787L18.1481 46.6787L18.1498 46.6809C18.2981 46.8753 18.5232 46.9817 18.7449 47.0029C18.9617 47.0236 19.1964 46.9644 19.367 46.7995C22.1266 44.6948 24.5842 43.7995 26.8955 43.6257C29.213 43.4513 31.4028 44.0006 33.6293 44.817C34.7414 45.2304 35.8536 45.7174 36.9824 46.2185C37.0952 46.2686 37.2082 46.3188 37.3213 46.3691C38.339 46.8215 39.3711 47.2804 40.423 47.6987C42.7615 48.6287 45.213 49.3649 47.872 49.3985L47.8755 49.3985C52.1982 49.3763 56.5222 47.4349 61.3504 42.6672C61.6342 42.4106 61.6202 42.0186 61.4925 41.7382C61.3651 41.4584 61.0776 41.1886 60.7034 41.2378Z" fill="#424242" stroke="#424242" stroke-width="0.4" stroke-linejoin="round"/>
</svg>
